<svg width="104" height="152" viewBox="0 0 104 152" fill="none" xmlns="http://www.w3.org/2000/svg">
<rect width="104" height="152" rx="4" fill="white"/>
<rect width="104" height="152" rx="4" fill="url(#paint0_linear_218_10095)"/>
<mask id="mask0_218_10095" style="mask-type:alpha" maskUnits="userSpaceOnUse" x="0" y="0" width="104" height="152">
<path d="M0 0H100C102.209 0 104 1.79086 104 4V148C104 150.209 102.209 152 100 152H0V0Z" fill="url(#paint1_linear_218_10095)"/>
</mask>
<g mask="url(#mask0_218_10095)">
<circle cx="6" cy="143" r="31" fill="url(#paint2_linear_218_10095)"/>
<circle cx="87.619" cy="27.619" r="92.9757" transform="rotate(-150.64 87.619 27.619)" fill="url(#paint3_linear_218_10095)"/>
<path d="M0 4C0 1.79086 1.79086 0 4 0H17V152H4C1.79086 152 0 150.209 0 148V4Z" fill="url(#paint4_linear_218_10095)"/>
</g>
<path d="M17 20C17 18.8954 17.8954 18 19 18H104V58H19C17.8954 58 17 57.1046 17 56V20Z" fill="#639BEE"/>
<path d="M33.316 28.194V29.496H38.398V28.194H33.316ZM35.472 28.712V32.562H36.998V28.712H35.472ZM27.254 32.814V38.26H28.836V34.074H35.122V38.246H36.788V32.814H27.254ZM28.388 34.76V35.88H35.57V34.76H28.388ZM28.388 36.566V37.826H35.584V36.566H28.388ZM37.46 25.24C36.27 25.618 34.45 25.884 32.854 26.024C33.008 26.36 33.176 26.878 33.218 27.214C34.842 27.13 36.788 26.906 38.202 26.514L37.46 25.24ZM32.854 26.024V28.082C32.854 29.216 32.756 30.728 31.832 31.834C32.182 31.974 32.84 32.422 33.106 32.66C34.128 31.442 34.324 29.524 34.324 28.11V26.024H32.854ZM25.686 25.94V27.186H32.308V25.94H25.686ZM28.878 27.522V32.534H30.404V27.522H28.878ZM26.148 29.804C26.148 29.552 26.834 29.09 26.834 29.09V29.048C27.772 28.222 28.892 26.85 29.676 25.52L27.982 25.128C27.52 26.262 26.666 27.452 26.4 27.746C26.134 28.068 25.896 28.292 25.644 28.348C25.826 28.768 26.064 29.496 26.148 29.804ZM26.148 29.804C26.274 29.678 26.792 29.594 27.352 29.594H32.35V28.306H26.848L26.148 28.684V29.804ZM25.672 30.574L25.784 31.918C27.492 31.736 29.872 31.512 32.154 31.274V30.084C29.76 30.28 27.282 30.476 25.672 30.574ZM39.63 29.986V31.638H52.426V29.986H39.63ZM40.47 25.982V27.634H51.67V25.982H40.47ZM46.042 31.358V35.67C46.042 37.364 46.49 37.91 48.268 37.91C48.618 37.91 49.99 37.91 50.368 37.91C51.908 37.91 52.384 37.266 52.58 34.872C52.104 34.76 51.334 34.48 50.97 34.186C50.886 35.978 50.788 36.272 50.214 36.272C49.892 36.272 48.772 36.272 48.506 36.272C47.904 36.272 47.806 36.188 47.806 35.656V31.358H46.042ZM44.894 26.654C44.782 30.462 44.824 34.788 39.392 36.832C39.826 37.182 40.302 37.812 40.54 38.246C46.28 35.88 46.476 30.994 46.63 26.654H44.894ZM60.294 28.236V29.846H66.496V28.236H60.294ZM53.98 26.724V28.222H59.762V26.724H53.98ZM53.882 32.66V34.158H59.902V32.66H53.882ZM53.588 29.594V31.12H60.028V29.594H53.588ZM63.598 25.254V36.314C63.598 36.538 63.514 36.622 63.262 36.622C63.01 36.622 62.254 36.622 61.484 36.594C61.736 37.042 62.03 37.784 62.1 38.246C63.234 38.246 64.018 38.176 64.55 37.91C65.068 37.644 65.264 37.196 65.264 36.314V25.254H63.598ZM60.434 31.316C60.868 32.352 61.4 33.71 61.638 34.522L63.164 33.892C62.884 33.108 62.296 31.778 61.848 30.798L60.434 31.316ZM56.08 25.114V30.378H57.704V25.114H56.08ZM56.08 31.428V36.748H57.704V31.428H56.08ZM53.406 36.076L53.602 37.728C55.422 37.476 57.942 37.14 60.294 36.804L60.224 35.25C57.802 35.558 55.142 35.894 53.406 36.076ZM72.04 31.288V32.604H75.638V31.288H72.04ZM72.04 33.64V34.956H75.652V33.64H72.04ZM69.324 36.006V37.546H78.774V36.006H69.324ZM68.274 28.768V38.26H69.884V30.308H78.004V38.26H79.712V28.768H68.274ZM71.326 29.79V36.692H72.824V29.79H71.326ZM74.98 29.79V36.678H76.492V29.79H74.98ZM72.908 26.64C72.852 27.522 72.628 28.698 72.432 29.51L73.972 29.916C74.252 29.188 74.56 28.096 74.896 27.06L72.908 26.64ZM67.686 25.912V27.508H80.342V25.912H67.686Z" fill="white"/>
<path d="M32.81 53H31.5L27.89 47.23H27.85C27.8567 47.3633 27.8633 47.5067 27.87 47.66C27.8833 47.8133 27.8933 47.9767 27.9 48.15C27.9067 48.3167 27.9133 48.49 27.92 48.67C27.9267 48.8433 27.93 49.02 27.93 49.2V53H26.95V45.86H28.25L31.85 51.6H31.88C31.8733 51.5 31.8667 51.3767 31.86 51.23C31.8533 51.0767 31.8467 50.9133 31.84 50.74C31.84 50.5667 31.8367 50.39 31.83 50.21C31.8233 50.03 31.8167 49.86 31.81 49.7V45.86H32.81V53ZM41.7137 49.42C41.7137 49.9733 41.6437 50.4767 41.5037 50.93C41.3703 51.3767 41.1637 51.7633 40.8837 52.09C40.6103 52.4167 40.2637 52.6667 39.8437 52.84C39.4303 53.0133 38.947 53.1 38.3937 53.1C37.827 53.1 37.3337 53.0133 36.9137 52.84C36.5003 52.66 36.1537 52.41 35.8737 52.09C35.6003 51.7633 35.397 51.3733 35.2637 50.92C35.1303 50.4667 35.0637 49.9633 35.0637 49.41C35.0637 48.6767 35.1837 48.0367 35.4237 47.49C35.6637 46.9433 36.0303 46.5167 36.5237 46.21C37.0237 45.9033 37.6503 45.75 38.4037 45.75C39.137 45.75 39.747 45.9033 40.2337 46.21C40.727 46.51 41.097 46.9367 41.3437 47.49C41.5903 48.0367 41.7137 48.68 41.7137 49.42ZM36.2037 49.42C36.2037 49.9933 36.2803 50.4867 36.4337 50.9C36.587 51.3067 36.827 51.6233 37.1537 51.85C37.4803 52.07 37.8937 52.18 38.3937 52.18C38.9003 52.18 39.3137 52.07 39.6337 51.85C39.9537 51.6233 40.1903 51.3067 40.3437 50.9C40.497 50.4867 40.5737 49.9933 40.5737 49.42C40.5737 48.56 40.4003 47.89 40.0537 47.41C39.7137 46.9233 39.1637 46.68 38.4037 46.68C37.897 46.68 37.4803 46.79 37.1537 47.01C36.827 47.23 36.587 47.5433 36.4337 47.95C36.2803 48.3567 36.2037 48.8467 36.2037 49.42ZM49.4629 53H46.6929V52.38L47.5429 52.13V46.74L46.6929 46.48V45.86H49.4629V46.48L48.6229 46.74V52.13L49.4629 52.38V53ZM54.608 53L52.448 46.93H52.408C52.4147 47.0633 52.4247 47.2433 52.438 47.47C52.4514 47.6967 52.4614 47.94 52.468 48.2C52.4747 48.46 52.478 48.7167 52.478 48.97V53H51.498V45.86H53.038L55.088 51.59H55.128L57.238 45.86H58.778V53H57.728V48.91C57.728 48.6767 57.7314 48.4367 57.738 48.19C57.7514 47.9367 57.7614 47.7 57.768 47.48C57.7814 47.26 57.7914 47.08 57.798 46.94H57.758L55.538 53H54.608ZM65.8277 53L65.0677 50.94H62.3077L61.5477 53H60.4277L63.1377 45.83H64.2577L66.9577 53H65.8277ZM64.0477 47.99C64.0277 47.9167 63.9911 47.8067 63.9377 47.66C63.8911 47.5067 63.8444 47.3533 63.7977 47.2C63.7511 47.04 63.7144 46.91 63.6877 46.81C63.6544 46.9433 63.6144 47.09 63.5677 47.25C63.5277 47.4033 63.4877 47.5467 63.4477 47.68C63.4077 47.8067 63.3744 47.91 63.3477 47.99L62.6277 50H64.7677L64.0477 47.99ZM71.4054 49.16H73.9854V52.72C73.6054 52.8467 73.2154 52.94 72.8154 53C72.4221 53.0667 71.9721 53.1 71.4654 53.1C70.7387 53.1 70.1221 52.9533 69.6154 52.66C69.1154 52.3667 68.7321 51.9467 68.4654 51.4C68.2054 50.8533 68.0754 50.1967 68.0754 49.43C68.0754 48.6833 68.2221 48.0367 68.5154 47.49C68.8087 46.9433 69.2287 46.52 69.7754 46.22C70.3287 45.9133 70.9987 45.76 71.7854 45.76C72.1787 45.76 72.5554 45.8 72.9154 45.88C73.2754 45.9533 73.6087 46.0567 73.9154 46.19L73.5254 47.09C73.2787 46.9767 73.0021 46.8833 72.6954 46.81C72.3954 46.73 72.0787 46.69 71.7454 46.69C71.2187 46.69 70.7621 46.8033 70.3754 47.03C69.9954 47.25 69.7021 47.5667 69.4954 47.98C69.2954 48.3867 69.1954 48.8733 69.1954 49.44C69.1954 49.9733 69.2787 50.4467 69.4454 50.86C69.6121 51.2733 69.8754 51.5967 70.2354 51.83C70.5954 52.0633 71.0654 52.18 71.6454 52.18C71.8387 52.18 72.0087 52.1733 72.1554 52.16C72.3021 52.14 72.4354 52.12 72.5554 52.1C72.6821 52.0733 72.8021 52.05 72.9154 52.03V50.09H71.4054V49.16ZM80.411 53H76.391V45.86H80.411V46.78H77.471V48.82H80.231V49.73H77.471V52.07H80.411V53Z" fill="white"/>
<defs>
<linearGradient id="paint0_linear_218_10095" x1="85" y1="-44.5" x2="18" y2="212" gradientUnits="userSpaceOnUse">
<stop stop-color="#8BB3FF"/>
<stop offset="1" stop-color="#80ABFF" stop-opacity="0"/>
</linearGradient>
<linearGradient id="paint1_linear_218_10095" x1="102" y1="-41" x2="18" y2="212" gradientUnits="userSpaceOnUse">
<stop stop-color="#A9C1F0"/>
<stop offset="1" stop-color="#A9C2F2" stop-opacity="0"/>
</linearGradient>
<linearGradient id="paint2_linear_218_10095" x1="6" y1="112" x2="6" y2="174" gradientUnits="userSpaceOnUse">
<stop stop-color="white"/>
<stop offset="0.692708" stop-color="white" stop-opacity="0"/>
</linearGradient>
<linearGradient id="paint3_linear_218_10095" x1="87.619" y1="-65.3567" x2="87.619" y2="120.595" gradientUnits="userSpaceOnUse">
<stop stop-color="white"/>
<stop offset="0.692708" stop-color="white" stop-opacity="0"/>
</linearGradient>
<linearGradient id="paint4_linear_218_10095" x1="2.07721e-08" y1="42.1677" x2="17" y2="42.1677" gradientUnits="userSpaceOnUse">
<stop stop-color="#A4C8FF"/>
<stop offset="0.317708" stop-color="#D7E7FF" stop-opacity="0.437964"/>
<stop offset="0.572917" stop-color="white" stop-opacity="0.54"/>
<stop offset="0.848958" stop-color="white" stop-opacity="0"/>
</linearGradient>
</defs>
</svg>
