<svg width="7" height="10" viewBox="0 0 7 10" fill="none" xmlns="http://www.w3.org/2000/svg">
<path d="M6.1142 4.24074C6.57981 4.63984 6.57981 5.36016 6.1142 5.75926L1.65079 9.58504C1.00212 10.141 -4.66843e-07 9.68013 -4.29498e-07 8.82578L-9.50382e-08 1.17422C-5.76932e-08 0.319867 1.00212 -0.141042 1.65079 0.414964L6.1142 4.24074Z" fill="#9CC3FE"/>
<path d="M6.1142 4.24074C6.57981 4.63984 6.57981 5.36016 6.1142 5.75926L1.65079 9.58504C1.00212 10.141 -4.66843e-07 9.68013 -4.29498e-07 8.82578L-9.50382e-08 1.17422C-5.76932e-08 0.319867 1.00212 -0.141042 1.65079 0.414964L6.1142 4.24074Z" fill="url(#paint0_linear_355_735)" fill-opacity="0.8"/>
<defs>
<linearGradient id="paint0_linear_355_735" x1="7" y1="0.5" x2="2.85874e-07" y2="5" gradientUnits="userSpaceOnUse">
<stop stop-color="white"/>
<stop offset="1" stop-color="white" stop-opacity="0"/>
</linearGradient>
</defs>
</svg>
