<svg width="375" height="140" viewBox="0 0 375 140" fill="none" xmlns="http://www.w3.org/2000/svg">
<g clip-path="url(#clip0_172_8425)">
<rect width="375" height="140" fill="#1264E0"/>
<path d="M257.104 177.282H198.667C193.303 177.283 188.153 175.181 184.321 171.427C180.49 167.673 178.284 162.567 178.175 157.204L176.003 68.3943C175.962 66.4092 176.318 64.4359 177.049 62.5899C177.78 60.7439 178.872 59.0623 180.261 57.6437C181.651 56.225 183.309 55.0977 185.139 54.3279C186.969 53.558 188.935 53.161 190.92 53.1602H227.559C231.226 53.1625 234.763 54.5136 237.498 56.956C240.233 59.3985 241.974 62.7616 242.389 66.4047L257.104 177.282Z" fill="#4D84FF"/>
<g opacity="0.3">
<path opacity="0.3" d="M257.104 177.282H198.667C193.303 177.283 188.153 175.181 184.321 171.427C180.49 167.673 178.284 162.567 178.175 157.204L176.003 68.3943C175.962 66.4092 176.318 64.4359 177.049 62.5899C177.78 60.7439 178.872 59.0623 180.261 57.6437C181.651 56.225 183.309 55.0977 185.139 54.3279C186.969 53.558 188.935 53.161 190.92 53.1602H227.559C231.226 53.1625 234.763 54.5136 237.498 56.956C240.233 59.3985 241.974 62.7616 242.389 66.4047L257.104 177.282Z" fill="black"/>
</g>
<path d="M240.842 48.2582C240.842 48.2582 249.012 58.9269 243.725 80.1681C238.439 101.409 211.162 89.8757 209.509 70.7297C207.586 48.1621 232.922 63.723 237.382 43.6543L240.842 48.2582Z" fill="#263238"/>
<path d="M234.912 41.9248C231.365 44.4238 229.962 48.0569 233.883 51.6131C237.805 55.1694 243.399 55.054 245.09 53.5931C246.782 52.1321 246.445 44.7121 246.445 44.7121L234.912 41.9248Z" fill="#407BFF"/>
<path opacity="0.8" d="M234.912 41.9248C231.365 44.4238 229.962 48.0569 233.883 51.6131C237.805 55.1694 243.399 55.054 245.09 53.5931C246.782 52.1321 246.445 44.7121 246.445 44.7121L234.912 41.9248Z" fill="white"/>
<path d="M279.701 89.2031C279.797 89.6356 279.96 90.3084 280.114 90.8755L280.576 92.6825C280.902 93.8935 281.258 95.1045 281.633 96.3156C282.344 98.7569 283.132 101.189 283.959 103.62C284.785 106.052 285.631 108.426 286.554 110.887C287.006 112.088 287.457 113.299 287.938 114.5L288.495 115.942C288.607 116.189 288.752 116.419 288.928 116.625C290.296 118.008 291.963 119.06 293.801 119.7C296.046 120.604 298.36 121.324 300.721 121.853C303.163 122.42 305.671 122.891 308.209 123.285C310.746 123.679 313.351 123.997 315.85 124.246L315.936 129.417C310.453 129.984 304.926 129.984 299.443 129.417C296.577 129.122 293.743 128.572 290.975 127.774C289.476 127.321 288.016 126.746 286.612 126.053C284.994 125.267 283.514 124.226 282.229 122.968C281.483 122.225 280.837 121.388 280.307 120.479C280.162 120.248 280.037 119.989 279.903 119.748L279.653 119.229L279.211 118.268C278.615 117.047 278.019 115.827 277.471 114.587C276.356 112.107 275.27 109.608 274.299 107.061C273.329 104.514 272.377 101.948 271.57 99.372C271.176 98.0456 270.791 96.7289 270.436 95.3737L269.907 93.3457C269.753 92.6152 269.609 92.0097 269.455 91.1446L279.701 89.2031Z" fill="#E58A7B"/>
<path d="M276.433 78.2846C280.556 79.3322 283.43 96.2868 283.43 96.2868L272.079 103.976C272.079 103.976 261.189 86.8676 264.39 82.3406C267.667 77.6887 270.416 76.7852 276.433 78.2846Z" fill="#407BFF"/>
<path opacity="0.5" d="M276.433 78.2846C280.556 79.3322 283.43 96.2868 283.43 96.2868L272.079 103.976C272.079 103.976 261.189 86.8676 264.39 82.3406C267.667 77.6887 270.416 76.7852 276.433 78.2846Z" fill="white"/>
<path opacity="0.2" d="M274.953 82.5522L265.082 90.376C267.004 95.1286 269.343 99.7022 272.07 104.043L279.941 98.6898L274.953 82.5522Z" fill="#407BFF"/>
<path d="M276.433 78.2848C276.433 78.2848 281.239 79.9571 271.627 138.616H231.048C231.73 122.094 231.749 111.906 223.858 77.9868C229.541 76.8164 235.3 76.0583 241.092 75.7185C247.232 75.2807 253.396 75.2807 259.536 75.7185C267.456 76.4778 276.433 78.2848 276.433 78.2848Z" fill="#407BFF"/>
<path opacity="0.5" d="M276.433 78.2848C276.433 78.2848 281.239 79.9571 271.627 138.616H231.048C231.73 122.094 231.749 111.906 223.858 77.9868C229.541 76.8164 235.3 76.0583 241.092 75.7185C247.232 75.2807 253.396 75.2807 259.536 75.7185C267.456 76.4778 276.433 78.2848 276.433 78.2848Z" fill="white"/>
<path d="M314.36 124.199L321.444 117.009L322.405 127.14C322.405 127.14 317.09 130.734 313.418 128.803L314.36 124.199Z" fill="#E58A7B"/>
<path d="M329.805 115.942L330.123 124.458L322.395 127.14L321.463 117.009L329.805 115.942Z" fill="#E58A7B"/>
<path d="M268.465 34.7642C272.06 34.9948 273.886 53.0259 263.342 51.9782C252.798 50.9306 268.465 34.7642 268.465 34.7642Z" fill="#263238"/>
<path opacity="0.2" d="M227.914 96.844C228.876 101.765 229.558 106.013 230.077 109.839L232.451 91.4712L227.914 96.844Z" fill="#407BFF"/>
<path d="M242.918 54.9961C244.081 60.9263 245.244 71.7969 241.092 75.7568C241.092 75.7568 242.716 81.7736 253.741 81.7736C265.861 81.7736 259.507 75.7568 259.507 75.7568C252.885 74.1805 253.058 69.2691 254.212 64.6652L242.918 54.9961Z" fill="#E58A7B"/>
<path d="M251.549 83.0617L255.24 81.7353L254.75 80.7261L251.549 83.0617Z" fill="#263238"/>
<path d="M258.71 82.2928L255.24 81.7354L255.99 80.6108L258.71 82.2928Z" fill="#263238"/>
<path d="M242.437 72.9601L239.929 75.4014C239.854 75.4785 239.812 75.582 239.812 75.6897C239.812 75.7974 239.854 75.9009 239.929 75.978L250.501 88.0212C251.004 85.161 252.536 82.5834 254.807 80.7741C246.061 77.4678 243.783 74.0461 243.004 73.085C242.986 73.0291 242.954 72.979 242.911 72.9395C242.867 72.9 242.814 72.8726 242.757 72.8599C242.699 72.8473 242.64 72.8499 242.584 72.8675C242.528 72.885 242.477 72.9169 242.437 72.9601Z" fill="#407BFF"/>
<path d="M257.547 74.8052L260.661 75.651C260.754 75.677 260.839 75.7271 260.906 75.7963C260.974 75.8655 261.022 75.9513 261.045 76.0451C261.925 79.9952 261.759 84.1064 260.565 87.9729C260.123 86.339 258.642 82.4271 255.99 80.6105C258.873 78.621 257.71 76.0547 257.297 75.084C257.283 75.0478 257.28 75.0087 257.287 74.9709C257.294 74.933 257.312 74.8978 257.338 74.8691C257.363 74.8404 257.396 74.8193 257.433 74.808C257.47 74.7968 257.509 74.7958 257.547 74.8052Z" fill="#407BFF"/>
<path d="M247.541 58.937L254.269 64.6558C253.99 65.7275 253.8 66.8205 253.702 67.9237C251.174 67.5585 247.705 64.7904 247.436 62.1568C247.271 61.0863 247.307 59.9945 247.541 58.937Z" fill="#CF6F64"/>
<path d="M242.274 39.3681C241.13 49.2199 240.429 53.372 244.465 59.2542C250.521 68.1063 262.881 67.3566 266.946 58.0432C270.608 49.662 271.858 34.9757 263.015 29.3626C261.07 28.1211 258.84 27.3975 256.536 27.2606C254.233 27.1238 251.933 27.5783 249.854 28.5809C247.776 29.5835 245.988 31.1009 244.662 32.989C243.335 34.877 242.513 37.073 242.274 39.3681Z" fill="#E58A7B"/>
<path d="M264.803 23.0961C248.512 16.6661 236.276 23.9227 233.749 34.2358C229.779 50.2484 242.457 51.373 242.457 51.373L244.042 47.2785C246.32 48.6529 252.693 48.0474 250.77 36.1581C249.636 29.4301 258.152 38.8012 268.955 37.7536C271.829 37.4748 275.76 27.4213 264.803 23.0961Z" fill="#263238"/>
<path d="M270.349 27.0556C268.206 23.7589 263.823 20.9332 254.74 19.5972C254.74 19.5972 259.459 20.664 260.988 24.1145C262.516 27.565 272.935 31.0252 270.349 27.0556Z" fill="#263238"/>
<path d="M239.141 47.8932C239.074 48.8406 239.195 49.7919 239.497 50.6924C239.799 51.5929 240.276 52.425 240.9 53.141C242.582 55.0633 244.792 53.8811 245.484 51.5744C246.099 49.4887 245.974 45.9901 243.725 44.9329C241.476 43.8756 239.323 45.548 239.141 47.8932Z" fill="#E58A7B"/>
<path d="M271.656 138.654C271.656 138.654 338.686 144.892 338.033 175.37C337.35 207.088 330.565 246.706 330.565 246.706H316.715C316.715 246.706 315.532 213.181 315.129 181.954C314.927 165.691 250.155 162.433 250.155 162.433L241.793 138.654H271.656Z" fill="#263238"/>
<path d="M260.93 138.654C260.93 138.654 304.248 153.023 305.344 170.805C307.353 203.541 292.965 246.735 292.965 246.735H279.326C279.326 246.735 280.105 218.093 281.729 188.432C283.786 151.159 218.024 187.913 231.048 138.683L260.93 138.654Z" fill="#263238"/>
<path d="M256.528 44.7404C256.384 45.5286 256.691 46.2494 257.21 46.3456C257.729 46.4417 258.258 45.865 258.402 45.0768C258.546 44.2887 258.239 43.5582 257.72 43.4717C257.201 43.3852 256.691 43.9427 256.528 44.7404Z" fill="#263238"/>
<path d="M265.495 46.3459C265.351 47.1341 265.659 47.8549 266.178 47.951C266.697 48.0471 267.235 47.4704 267.379 46.6823C267.523 45.8942 267.216 45.1637 266.697 45.0772C266.178 44.9907 265.64 45.5482 265.495 46.3459Z" fill="#263238"/>
<path d="M266.456 45.0772L268.465 44.8657C268.465 44.8657 267.264 46.1825 266.456 45.0772Z" fill="#263238"/>
<path d="M262.881 47.2778C263.266 49.2147 263.912 51.0902 264.803 52.8525C264.351 53.0586 263.859 53.1652 263.362 53.1652C262.864 53.1652 262.372 53.0586 261.92 52.8525L262.881 47.2778Z" fill="#DF5753"/>
<path d="M258.613 55.4191C257.559 55.2518 256.558 54.8382 255.693 54.212C254.828 53.5858 254.123 52.7645 253.635 51.8148C253.618 51.7778 253.617 51.7359 253.632 51.6981C253.646 51.6603 253.675 51.6297 253.712 51.6129C253.75 51.5997 253.792 51.6012 253.829 51.6172C253.867 51.6332 253.897 51.6625 253.913 51.6994C254.376 52.597 255.041 53.3739 255.857 53.968C256.674 54.5622 257.617 54.9571 258.613 55.1211C258.653 55.1303 258.688 55.1542 258.712 55.188C258.735 55.2219 258.744 55.2632 258.738 55.3037C258.731 55.3331 258.716 55.3597 258.693 55.3802C258.671 55.4007 258.643 55.4143 258.613 55.4191Z" fill="#263238"/>
<path d="M254.423 41.1941C254.381 41.1957 254.34 41.1879 254.302 41.1712C254.263 41.1546 254.229 41.1296 254.202 41.098C254.173 41.071 254.15 41.0383 254.134 41.0019C254.118 40.9655 254.11 40.9263 254.11 40.8866C254.11 40.8469 254.118 40.8076 254.134 40.7712C254.15 40.7348 254.173 40.7021 254.202 40.6751C254.72 40.1692 255.351 39.7952 256.044 39.5844C256.736 39.3736 257.469 39.3324 258.181 39.4641C258.256 39.4865 258.32 39.5368 258.359 39.6047C258.399 39.6726 258.41 39.753 258.393 39.8293C258.384 39.8681 258.367 39.9046 258.343 39.9369C258.32 39.9691 258.291 39.9963 258.257 40.0169C258.222 40.0375 258.185 40.0511 258.145 40.0568C258.106 40.0626 258.066 40.0604 258.027 40.0504C257.413 39.9419 256.782 39.9821 256.187 40.1677C255.591 40.3534 255.049 40.679 254.606 41.1172C254.554 41.1612 254.49 41.188 254.423 41.1941Z" fill="#263238"/>
<path d="M270.397 42.7708C270.337 42.773 270.279 42.7566 270.229 42.7239C270.179 42.6912 270.14 42.6438 270.118 42.5882C269.883 42.0113 269.515 41.4981 269.044 41.0905C268.573 40.683 268.013 40.3926 267.408 40.243C267.33 40.2289 267.26 40.1849 267.213 40.1204C267.167 40.0559 267.147 39.9758 267.158 39.897C267.172 39.8167 267.217 39.7454 267.284 39.6985C267.351 39.6516 267.433 39.6332 267.514 39.6471C268.218 39.8102 268.872 40.141 269.421 40.6112C269.97 41.0814 270.397 41.6772 270.666 42.3479C270.699 42.4219 270.701 42.5058 270.672 42.5813C270.643 42.6569 270.586 42.718 270.512 42.7516L270.397 42.7708Z" fill="#263238"/>
<path d="M229.923 92.4902C229.049 95.3736 228.107 98.257 227.271 101.217C226.434 104.178 225.55 107.061 224.791 109.993C224.032 112.924 223.311 115.827 222.772 118.643C222.513 120.065 222.273 121.478 222.138 122.805C222.061 123.468 222.023 124.093 222.013 124.669C222.013 124.804 222.013 124.669 221.917 124.448C221.8 124.188 221.637 123.95 221.436 123.747C220.946 123.324 220.764 123.401 220.985 123.468C221.387 123.566 221.801 123.608 222.215 123.593C223.509 123.548 224.796 123.384 226.06 123.103C228.922 122.472 231.744 121.666 234.508 120.69C240.188 118.768 245.955 116.423 251.568 114.029L254.048 118.556C248.723 122.047 243.157 125.157 237.391 127.86C234.406 129.268 231.326 130.466 228.174 131.445C226.419 131.98 224.617 132.344 222.792 132.531C221.652 132.648 220.502 132.619 219.37 132.445C218.619 132.332 217.885 132.122 217.188 131.82C216.287 131.431 215.471 130.869 214.785 130.167C213.453 128.762 212.689 126.913 212.642 124.977C212.594 124.016 212.584 123.055 212.642 122.189C212.709 120.411 212.873 118.729 213.094 117.086C213.555 113.799 214.151 110.627 214.881 107.474C215.612 104.322 216.39 101.275 217.246 98.2186C218.101 95.1621 219.024 92.1634 220.129 89.1069L229.923 92.4902Z" fill="#E58A7B"/>
<path d="M251.338 114.184L260.815 111.781L256.297 120.883C256.297 120.883 249.886 121.162 247.772 117.586L251.338 114.184Z" fill="#E58A7B"/>
<path d="M268.475 115.231L264.284 122.651L256.297 120.883L260.814 111.781L268.475 115.231Z" fill="#E58A7B"/>
<path d="M257.479 43.4722L259.488 43.2607C259.488 43.2607 258.248 44.5775 257.479 43.4722Z" fill="#263238"/>
<path d="M230.442 136.27L230.115 139.903C229.981 140.192 230.308 140.48 230.779 140.48H271.858C272.223 140.48 272.521 140.298 272.55 140.067L272.915 136.434C272.915 136.184 272.617 135.972 272.223 135.972H231.105C230.979 135.962 230.851 135.983 230.735 136.036C230.619 136.088 230.518 136.168 230.442 136.27Z" fill="#407BFF"/>
<path d="M235.969 140.875H234.864C234.642 140.875 234.479 140.759 234.489 140.625L235.008 135.896C235.008 135.761 235.219 135.646 235.44 135.646H236.507C236.728 135.646 236.892 135.761 236.882 135.896L236.363 140.625C236.373 140.759 236.18 140.875 235.969 140.875Z" fill="#263238"/>
<path d="M268.763 140.875H267.658C267.437 140.875 267.273 140.759 267.283 140.625L267.802 135.896C267.802 135.761 268.013 135.646 268.235 135.646H269.33C269.551 135.646 269.715 135.761 269.705 135.896L269.186 140.625C269.186 140.759 268.975 140.875 268.763 140.875Z" fill="#263238"/>
<path d="M252.366 140.875H251.261C251.04 140.875 250.876 140.759 250.886 140.625L251.405 135.896C251.405 135.761 251.616 135.646 251.837 135.646H252.933C253.154 135.646 253.317 135.761 253.308 135.896L252.789 140.625C252.77 140.759 252.587 140.875 252.366 140.875Z" fill="#263238"/>
<path d="M223.859 78.0253C219.783 79.2652 214.901 93.269 214.901 93.269L228.02 106.081C228.02 106.081 236.44 92.8654 234.748 87.6079C232.951 82.1294 228.501 76.622 223.859 78.0253Z" fill="#407BFF"/>
<path opacity="0.5" d="M223.859 78.0253C219.783 79.2652 214.901 93.269 214.901 93.269L228.02 106.081C228.02 106.081 236.44 92.8654 234.748 87.6079C232.951 82.1294 228.501 76.622 223.859 78.0253Z" fill="white"/>
<path d="M417.865 125.668H341.397V274.405H417.865V125.668Z" fill="#407BFF"/>
<path opacity="0.6" d="M417.865 125.668H341.397V274.405H417.865V125.668Z" fill="white"/>
<path d="M269.724 125.668H193.256V274.405H269.724V125.668Z" fill="#407BFF"/>
<path opacity="0.6" d="M269.724 125.668H193.256V274.405H269.724V125.668Z" fill="white"/>
<path d="M270.637 136.827L422.681 136.827V125.668L270.637 125.668V136.827Z" fill="#407BFF"/>
<path opacity="0.3" d="M270.637 136.827L422.681 136.827V125.668L270.637 125.668V136.827Z" fill="black"/>
<path d="M272.598 125.668H266.293V274.405H272.598V125.668Z" fill="#407BFF"/>
<path opacity="0.3" d="M272.598 125.668H266.293V274.405H272.598V125.668Z" fill="black"/>
<path d="M270.272 161.25L417.577 161.25V129.118L270.272 129.118V161.25Z" fill="#407BFF"/>
<path opacity="0.3" d="M270.272 161.25L417.577 161.25V129.118L270.272 129.118V161.25Z" fill="black"/>
<path d="M417.904 278.73H375.45C372.568 278.727 369.804 277.581 367.766 275.543C365.728 273.505 364.582 270.742 364.579 267.859V133.914C364.579 131.365 363.567 128.921 361.764 127.118C359.962 125.316 357.517 124.303 354.968 124.303H342.262V123.342H354.958C357.762 123.342 360.452 124.456 362.434 126.438C364.417 128.421 365.531 131.11 365.531 133.914V267.859C365.534 270.487 366.578 273.006 368.436 274.864C370.294 276.721 372.813 277.766 375.44 277.769H417.904C418.626 277.77 419.331 277.543 419.917 277.121C420.503 276.698 420.941 276.101 421.168 275.415C421.395 274.729 421.399 273.989 421.181 273.3C420.962 272.611 420.532 272.009 419.951 271.579L420.518 270.81C421.26 271.36 421.809 272.13 422.088 273.011C422.367 273.891 422.361 274.837 422.072 275.714C421.782 276.591 421.224 277.355 420.475 277.896C419.727 278.437 418.827 278.729 417.904 278.73Z" fill="#407BFF"/>
<path opacity="0.3" d="M417.904 278.73H375.45C372.568 278.727 369.804 277.581 367.766 275.543C365.728 273.505 364.582 270.742 364.579 267.859V133.914C364.579 131.365 363.567 128.921 361.764 127.118C359.962 125.316 357.517 124.303 354.968 124.303H342.262V123.342H354.958C357.762 123.342 360.452 124.456 362.434 126.438C364.417 128.421 365.531 131.11 365.531 133.914V267.859C365.534 270.487 366.578 273.006 368.436 274.864C370.294 276.721 372.813 277.766 375.44 277.769H417.904C418.626 277.77 419.331 277.543 419.917 277.121C420.503 276.698 420.941 276.101 421.168 275.415C421.395 274.729 421.399 273.989 421.181 273.3C420.962 272.611 420.532 272.009 419.951 271.579L420.518 270.81C421.26 271.36 421.809 272.13 422.088 273.011C422.367 273.891 422.361 274.837 422.072 275.714C421.782 276.591 421.224 277.355 420.475 277.896C419.727 278.437 418.827 278.729 417.904 278.73Z" fill="black"/>
<path d="M362.699 81.2627H291.44L281.117 123.342H352.367L362.699 81.2627Z" fill="#407BFF"/>
<path opacity="0.4" d="M362.699 81.2627H291.44L281.117 123.342H352.367L362.699 81.2627Z" fill="white"/>
<path d="M283.299 123.341L283.011 125.667H255.051L255.339 123.341H283.299Z" fill="#407BFF"/>
<path opacity="0.4" d="M283.299 123.341L283.011 125.667H255.051L255.339 123.341H283.299Z" fill="white"/>
<path d="M354.558 123.341L354.27 125.667H283.011L283.299 123.341H354.558Z" fill="#407BFF"/>
<path opacity="0.5" d="M354.558 123.341L354.27 125.667H283.011L283.299 123.341H354.558Z" fill="black"/>
<path d="M364.89 81.2627H293.631L283.309 123.342H354.558L364.89 81.2627Z" fill="#407BFF"/>
<path opacity="0.5" d="M364.89 81.2627H293.631L283.309 123.342H354.558L364.89 81.2627Z" fill="black"/>
<path d="M26.1 36.8V39.1H43.94V36.8H26.1ZM32.62 43.28V45.5H43.1V43.28H32.62ZM31.84 50.08V52.3H43.86V50.08H31.84ZM36.7 39.96V51.26H39.12V39.96H36.7ZM32.4 34C31.36 38.04 29.08 42.52 25.46 44.88C25.82 45.46 26.38 46.52 26.62 47.2C30.9 44.28 33.42 39.42 34.9 34.6L32.4 34ZM28.4 42.38V52.76H30.82V42.38H28.4ZM46.6 47.62C46.6 47.2 48.1 46.52 48.1 46.52V46.46C50.02 44.54 52 41.9 53.5 39.3L51.58 38.06C50.22 40.78 48.18 43.52 47.48 44.24C46.84 44.98 46.4 45.42 45.86 45.52C46.14 46.12 46.48 47.18 46.6 47.62ZM46.6 47.62C47.12 47.34 47.94 47.1 52.84 46.14C52.8 45.66 52.82 44.76 52.9 44.14L47.46 45.04L46.46 45.76L46.6 47.62ZM46.46 42.74C46.46 42.32 47.74 41.6 47.74 41.6V41.54C49.18 39.84 50.68 37.4 51.68 35.12L49.46 34.06C48.72 36.34 47.34 38.76 46.9 39.36C46.46 40 46.12 40.42 45.7 40.54C45.96 41.16 46.36 42.28 46.46 42.74ZM46.46 42.74C46.86 42.54 47.54 42.4 50.78 42.06C50.8 41.58 50.88 40.74 51.02 40.14L47.4 40.4L46.4 41.06L46.46 42.74ZM45.94 49.6L46.44 51.88C48.38 51.2 50.82 50.34 53.12 49.52L52.76 47.56C50.26 48.34 47.64 49.16 45.94 49.6ZM53.62 38.62L54.02 40.8L63.56 39.28L63.16 37.18L53.62 38.62ZM53.2 42.94L53.58 45.1L64.08 43.14L63.7 41.04L53.2 42.94ZM56.42 33.94C56.46 42.98 57.76 52.8 61.86 52.8C63.46 52.8 64.08 52.14 64.48 49.68C63.94 49.42 63.26 48.9 62.78 48.34C62.7 49.96 62.52 50.46 62.14 50.46C60.22 50.46 58.66 41.98 58.8 33.94H56.42ZM59.12 35.46C59.94 36 61.06 36.82 61.62 37.36L63.06 35.94C62.48 35.44 61.34 34.68 60.52 34.2L59.12 35.46ZM62.24 43.98C60.26 47.14 56.52 49.36 52.48 50.54C53.04 51.08 53.64 51.92 53.94 52.52C58.2 51 61.96 48.5 64.24 44.9L62.24 43.98ZM66.62 37.44V39.86H79.06V37.44H66.62ZM77.82 37.44V37.98C77.6 45.72 77.32 48.94 76.68 49.62C76.44 49.88 76.22 49.96 75.82 49.94C75.28 49.94 74.18 49.94 72.98 49.84C73.42 50.56 73.78 51.68 73.82 52.42C75.02 52.44 76.28 52.48 77.06 52.34C77.92 52.22 78.5 51.96 79.08 51.16C79.88 50.12 80.18 47.04 80.46 38.66C80.48 38.32 80.5 37.44 80.5 37.44H77.82ZM72.02 34.06V38.22C72.02 42.08 71.48 47.54 65.64 50.96C66.26 51.4 67.22 52.36 67.64 52.94C74.04 49.04 74.64 42.74 74.64 38.24V34.06H72.02ZM68.16 40.96C67.54 42.76 66.46 44.82 65.38 46.22L67.66 47.48C68.68 45.94 69.68 43.68 70.38 41.88L68.16 40.96ZM80.16 41.5C80.96 43.54 81.86 46.22 82.2 47.86L84.58 46.92C84.16 45.3 83.18 42.68 82.36 40.72L80.16 41.5ZM97.86 35.92V50.94H100.34V35.92H97.86ZM93.58 40.72V51.12H95.94V40.72H93.58ZM98.72 42V44.24H103.62V42H98.72ZM92.62 35.28V37.5H104V35.28H92.62ZM92.1 49.8V52.04H104.4V49.8H92.1ZM86.62 35.78C87.7 36.76 89.14 38.12 89.78 39.02L91.42 37.36C90.72 36.5 89.26 35.22 88.16 34.34L86.62 35.78ZM88.34 52.44C88.7 51.96 89.38 51.36 93.02 48.22C92.72 47.74 92.28 46.76 92.06 46.1L88.16 49.42L87.74 50.2L88.34 52.44ZM85.78 40.18V42.48H89.44V40.18H85.78ZM88.34 52.44C88.34 51.54 90.48 49.4 90.48 49.4V40.18H88.14V48.26C88.14 49.5 87.4 50.46 86.9 50.9C87.3 51.22 88.08 52 88.34 52.44Z" fill="white"/>
<path d="M33.856 69.704C33.856 70.368 33.772 70.972 33.604 71.516C33.444 72.052 33.196 72.516 32.86 72.908C32.532 73.3 32.108 73.6 31.588 73.808C31.076 74.016 30.472 74.12 29.776 74.12C29.08 74.12 28.472 74.016 27.952 73.808C27.44 73.592 27.016 73.292 26.68 72.908C26.352 72.516 26.104 72.048 25.936 71.504C25.776 70.96 25.696 70.356 25.696 69.692C25.696 68.804 25.84 68.032 26.128 67.376C26.424 66.72 26.872 66.212 27.472 65.852C28.08 65.484 28.852 65.3 29.788 65.3C30.716 65.3 31.48 65.484 32.08 65.852C32.68 66.212 33.124 66.724 33.412 67.388C33.708 68.044 33.856 68.816 33.856 69.704ZM27.604 69.704C27.604 70.304 27.68 70.82 27.832 71.252C27.984 71.684 28.22 72.016 28.54 72.248C28.86 72.48 29.272 72.596 29.776 72.596C30.296 72.596 30.712 72.48 31.024 72.248C31.344 72.016 31.576 71.684 31.72 71.252C31.872 70.82 31.948 70.304 31.948 69.704C31.948 68.8 31.78 68.092 31.444 67.58C31.108 67.068 30.556 66.812 29.788 66.812C29.276 66.812 28.86 66.928 28.54 67.16C28.22 67.392 27.984 67.724 27.832 68.156C27.68 68.588 27.604 69.104 27.604 69.704ZM39.2068 67.328C39.9108 67.328 40.4748 67.52 40.8988 67.904C41.3228 68.28 41.5348 68.888 41.5348 69.728V74H39.7468V70.172C39.7468 69.7 39.6628 69.348 39.4948 69.116C39.3268 68.876 39.0588 68.756 38.6908 68.756C38.1468 68.756 37.7748 68.944 37.5748 69.32C37.3748 69.688 37.2748 70.22 37.2748 70.916V74H35.4868V67.448H36.8548L37.0948 68.288H37.1908C37.3348 68.064 37.5108 67.884 37.7188 67.748C37.9268 67.604 38.1588 67.5 38.4148 67.436C38.6708 67.364 38.9348 67.328 39.2068 67.328ZM45.1615 74H43.3735V64.88H45.1615V74ZM48.8178 67.448V74H47.0298V67.448H48.8178ZM47.9298 64.88C48.1938 64.88 48.4218 64.944 48.6138 65.072C48.8058 65.192 48.9018 65.42 48.9018 65.756C48.9018 66.084 48.8058 66.312 48.6138 66.44C48.4218 66.568 48.1938 66.632 47.9298 66.632C47.6578 66.632 47.4258 66.568 47.2338 66.44C47.0498 66.312 46.9578 66.084 46.9578 65.756C46.9578 65.42 47.0498 65.192 47.2338 65.072C47.4258 64.944 47.6578 64.88 47.9298 64.88ZM54.406 67.328C55.11 67.328 55.674 67.52 56.098 67.904C56.522 68.28 56.734 68.888 56.734 69.728V74H54.946V70.172C54.946 69.7 54.862 69.348 54.694 69.116C54.526 68.876 54.258 68.756 53.89 68.756C53.346 68.756 52.974 68.944 52.774 69.32C52.574 69.688 52.474 70.22 52.474 70.916V74H50.686V67.448H52.054L52.294 68.288H52.39C52.534 68.064 52.71 67.884 52.918 67.748C53.126 67.604 53.358 67.5 53.614 67.436C53.87 67.364 54.134 67.328 54.406 67.328ZM61.2727 67.328C61.8807 67.328 62.4007 67.444 62.8327 67.676C63.2727 67.908 63.6127 68.244 63.8527 68.684C64.0927 69.124 64.2127 69.664 64.2127 70.304V71.168H59.9887C60.0047 71.672 60.1527 72.068 60.4327 72.356C60.7207 72.644 61.1167 72.788 61.6207 72.788C62.0447 72.788 62.4287 72.748 62.7727 72.668C63.1167 72.58 63.4727 72.448 63.8407 72.272V73.652C63.5207 73.812 63.1807 73.928 62.8207 74C62.4687 74.08 62.0407 74.12 61.5367 74.12C60.8807 74.12 60.3007 74 59.7967 73.76C59.2927 73.512 58.8967 73.14 58.6087 72.644C58.3207 72.148 58.1767 71.524 58.1767 70.772C58.1767 70.004 58.3047 69.368 58.5607 68.864C58.8247 68.352 59.1887 67.968 59.6527 67.712C60.1167 67.456 60.6567 67.328 61.2727 67.328ZM61.2847 68.6C60.9407 68.6 60.6527 68.712 60.4207 68.936C60.1967 69.16 60.0647 69.508 60.0247 69.98H62.5327C62.5327 69.716 62.4847 69.48 62.3887 69.272C62.3007 69.064 62.1647 68.9 61.9807 68.78C61.7967 68.66 61.5647 68.6 61.2847 68.6ZM72.4038 68.792H70.8558V74H69.0678V68.792H68.0838V67.928L69.0678 67.448V66.968C69.0678 66.408 69.1598 65.976 69.3438 65.672C69.5358 65.36 69.8038 65.14 70.1478 65.012C70.4998 64.884 70.9118 64.82 71.3838 64.82C71.7358 64.82 72.0518 64.848 72.3318 64.904C72.6198 64.96 72.8518 65.024 73.0278 65.096L72.5718 66.404C72.4358 66.364 72.2878 66.328 72.1278 66.296C71.9678 66.256 71.7838 66.236 71.5758 66.236C71.3278 66.236 71.1438 66.312 71.0238 66.464C70.9118 66.616 70.8558 66.808 70.8558 67.04V67.448H72.4038V68.792ZM79.3724 70.712C79.3724 71.256 79.2964 71.74 79.1444 72.164C79.0004 72.588 78.7884 72.948 78.5084 73.244C78.2364 73.532 77.9044 73.752 77.5124 73.904C77.1204 74.048 76.6764 74.12 76.1804 74.12C75.7244 74.12 75.3004 74.048 74.9084 73.904C74.5244 73.752 74.1924 73.532 73.9124 73.244C73.6324 72.948 73.4124 72.588 73.2524 72.164C73.1004 71.74 73.0244 71.256 73.0244 70.712C73.0244 69.984 73.1524 69.372 73.4084 68.876C73.6644 68.372 74.0324 67.988 74.5124 67.724C74.9924 67.46 75.5604 67.328 76.2164 67.328C76.8324 67.328 77.3764 67.46 77.8484 67.724C78.3204 67.988 78.6924 68.372 78.9644 68.876C79.2364 69.372 79.3724 69.984 79.3724 70.712ZM74.8484 70.712C74.8484 71.144 74.8924 71.508 74.9804 71.804C75.0764 72.092 75.2244 72.312 75.4244 72.464C75.6244 72.608 75.8844 72.68 76.2044 72.68C76.5244 72.68 76.7804 72.608 76.9724 72.464C77.1724 72.312 77.3164 72.092 77.4044 71.804C77.5004 71.508 77.5484 71.144 77.5484 70.712C77.5484 70.28 77.5004 69.92 77.4044 69.632C77.3164 69.344 77.1724 69.128 76.9724 68.984C76.7724 68.84 76.5124 68.768 76.1924 68.768C75.7204 68.768 75.3764 68.932 75.1604 69.26C74.9524 69.58 74.8484 70.064 74.8484 70.712ZM84.5101 67.328C84.5981 67.328 84.7021 67.332 84.8221 67.34C84.9421 67.348 85.0381 67.36 85.1101 67.376L84.9781 69.056C84.9221 69.04 84.8381 69.028 84.7261 69.02C84.6221 69.004 84.5301 68.996 84.4501 68.996C84.2181 68.996 83.9941 69.028 83.7781 69.092C83.5621 69.148 83.3661 69.24 83.1901 69.368C83.0221 69.496 82.8861 69.668 82.7821 69.884C82.6861 70.092 82.6381 70.352 82.6381 70.664V74H80.8501V67.448H82.2061L82.4701 68.552H82.5541C82.6821 68.328 82.8421 68.124 83.0341 67.94C83.2261 67.756 83.4461 67.608 83.6941 67.496C83.9501 67.384 84.2221 67.328 84.5101 67.328ZM93.0765 67.328C93.1645 67.328 93.2685 67.332 93.3885 67.34C93.5085 67.348 93.6045 67.36 93.6765 67.376L93.5445 69.056C93.4885 69.04 93.4045 69.028 93.2925 69.02C93.1885 69.004 93.0965 68.996 93.0165 68.996C92.7845 68.996 92.5605 69.028 92.3445 69.092C92.1285 69.148 91.9325 69.24 91.7565 69.368C91.5885 69.496 91.4525 69.668 91.3485 69.884C91.2525 70.092 91.2045 70.352 91.2045 70.664V74H89.4165V67.448H90.7725L91.0365 68.552H91.1205C91.2485 68.328 91.4085 68.124 91.6005 67.94C91.7925 67.756 92.0125 67.608 92.2605 67.496C92.5165 67.384 92.7885 67.328 93.0765 67.328ZM97.3313 67.328C97.9393 67.328 98.4593 67.444 98.8913 67.676C99.3313 67.908 99.6713 68.244 99.9113 68.684C100.151 69.124 100.271 69.664 100.271 70.304V71.168H96.0473C96.0633 71.672 96.2113 72.068 96.4913 72.356C96.7793 72.644 97.1753 72.788 97.6793 72.788C98.1033 72.788 98.4873 72.748 98.8313 72.668C99.1753 72.58 99.5313 72.448 99.8993 72.272V73.652C99.5793 73.812 99.2393 73.928 98.8793 74C98.5273 74.08 98.0993 74.12 97.5953 74.12C96.9393 74.12 96.3593 74 95.8553 73.76C95.3513 73.512 94.9553 73.14 94.6673 72.644C94.3793 72.148 94.2353 71.524 94.2353 70.772C94.2353 70.004 94.3633 69.368 94.6193 68.864C94.8833 68.352 95.2473 67.968 95.7113 67.712C96.1753 67.456 96.7153 67.328 97.3313 67.328ZM97.3433 68.6C96.9993 68.6 96.7113 68.712 96.4793 68.936C96.2553 69.16 96.1233 69.508 96.0833 69.98H98.5913C98.5913 69.716 98.5433 69.48 98.4473 69.272C98.3593 69.064 98.2233 68.9 98.0393 68.78C97.8553 68.66 97.6233 68.6 97.3433 68.6ZM104.409 67.316C105.289 67.316 105.961 67.508 106.425 67.892C106.897 68.268 107.133 68.848 107.133 69.632V74H105.885L105.537 73.112H105.489C105.305 73.344 105.113 73.536 104.913 73.688C104.721 73.84 104.497 73.948 104.241 74.012C103.993 74.084 103.685 74.12 103.317 74.12C102.933 74.12 102.585 74.048 102.273 73.904C101.969 73.752 101.729 73.524 101.553 73.22C101.377 72.908 101.289 72.516 101.289 72.044C101.289 71.348 101.533 70.836 102.021 70.508C102.509 70.172 103.241 69.988 104.217 69.956L105.357 69.92V69.632C105.357 69.288 105.265 69.036 105.081 68.876C104.905 68.716 104.657 68.636 104.337 68.636C104.017 68.636 103.705 68.684 103.401 68.78C103.097 68.868 102.793 68.98 102.489 69.116L101.901 67.904C102.253 67.72 102.641 67.576 103.065 67.472C103.497 67.368 103.945 67.316 104.409 67.316ZM104.661 70.988C104.085 71.004 103.685 71.108 103.461 71.3C103.237 71.492 103.125 71.744 103.125 72.056C103.125 72.328 103.205 72.524 103.365 72.644C103.525 72.756 103.733 72.812 103.989 72.812C104.373 72.812 104.697 72.7 104.961 72.476C105.225 72.244 105.357 71.92 105.357 71.504V70.964L104.661 70.988ZM111.039 74.12C110.311 74.12 109.715 73.836 109.251 73.268C108.795 72.692 108.567 71.848 108.567 70.736C108.567 69.616 108.799 68.768 109.263 68.192C109.727 67.616 110.335 67.328 111.087 67.328C111.399 67.328 111.675 67.372 111.915 67.46C112.155 67.54 112.359 67.652 112.527 67.796C112.703 67.94 112.851 68.104 112.971 68.288H113.031C113.007 68.16 112.979 67.976 112.947 67.736C112.915 67.488 112.899 67.236 112.899 66.98V64.88H114.687V74H113.319L112.971 73.148H112.899C112.787 73.324 112.643 73.488 112.467 73.64C112.299 73.784 112.099 73.9 111.867 73.988C111.635 74.076 111.359 74.12 111.039 74.12ZM111.663 72.692C112.159 72.692 112.507 72.548 112.707 72.26C112.907 71.964 113.011 71.524 113.019 70.94V70.748C113.019 70.108 112.919 69.62 112.719 69.284C112.527 68.948 112.167 68.78 111.639 68.78C111.247 68.78 110.939 68.952 110.715 69.296C110.491 69.632 110.379 70.12 110.379 70.76C110.379 71.4 110.491 71.884 110.715 72.212C110.939 72.532 111.255 72.692 111.663 72.692ZM119.257 67.328C119.865 67.328 120.385 67.444 120.817 67.676C121.257 67.908 121.597 68.244 121.837 68.684C122.077 69.124 122.197 69.664 122.197 70.304V71.168H117.973C117.989 71.672 118.137 72.068 118.417 72.356C118.705 72.644 119.101 72.788 119.605 72.788C120.029 72.788 120.413 72.748 120.757 72.668C121.101 72.58 121.457 72.448 121.825 72.272V73.652C121.505 73.812 121.165 73.928 120.805 74C120.453 74.08 120.025 74.12 119.521 74.12C118.865 74.12 118.285 74 117.781 73.76C117.277 73.512 116.881 73.14 116.593 72.644C116.305 72.148 116.161 71.524 116.161 70.772C116.161 70.004 116.289 69.368 116.545 68.864C116.809 68.352 117.173 67.968 117.637 67.712C118.101 67.456 118.641 67.328 119.257 67.328ZM119.269 68.6C118.925 68.6 118.637 68.712 118.405 68.936C118.181 69.16 118.049 69.508 118.009 69.98H120.517C120.517 69.716 120.469 69.48 120.373 69.272C120.285 69.064 120.149 68.9 119.965 68.78C119.781 68.66 119.549 68.6 119.269 68.6ZM127.307 67.328C127.395 67.328 127.499 67.332 127.619 67.34C127.739 67.348 127.835 67.36 127.907 67.376L127.775 69.056C127.719 69.04 127.635 69.028 127.523 69.02C127.419 69.004 127.327 68.996 127.247 68.996C127.015 68.996 126.791 69.028 126.575 69.092C126.359 69.148 126.163 69.24 125.987 69.368C125.819 69.496 125.683 69.668 125.579 69.884C125.483 70.092 125.435 70.352 125.435 70.664V74H123.647V67.448H125.003L125.267 68.552H125.351C125.479 68.328 125.639 68.124 125.831 67.94C126.023 67.756 126.243 67.608 126.491 67.496C126.747 67.384 127.019 67.328 127.307 67.328ZM28.6 90.12C27.952 90.12 27.4 90.004 26.944 89.772C26.488 89.532 26.14 89.164 25.9 88.668C25.66 88.172 25.54 87.536 25.54 86.76C25.54 85.96 25.676 85.308 25.948 84.804C26.22 84.3 26.596 83.928 27.076 83.688C27.564 83.448 28.124 83.328 28.756 83.328C29.204 83.328 29.592 83.372 29.92 83.46C30.256 83.548 30.548 83.652 30.796 83.772L30.268 85.152C29.988 85.04 29.724 84.948 29.476 84.876C29.236 84.804 28.996 84.768 28.756 84.768C28.444 84.768 28.184 84.844 27.976 84.996C27.768 85.14 27.612 85.36 27.508 85.656C27.412 85.944 27.364 86.308 27.364 86.748C27.364 87.18 27.416 87.54 27.52 87.828C27.632 88.108 27.792 88.32 28 88.464C28.208 88.6 28.46 88.668 28.756 88.668C29.132 88.668 29.464 88.62 29.752 88.524C30.04 88.42 30.32 88.28 30.592 88.104V89.628C30.32 89.804 30.032 89.928 29.728 90C29.432 90.08 29.056 90.12 28.6 90.12ZM34.8001 83.328C35.4081 83.328 35.9281 83.444 36.3601 83.676C36.8001 83.908 37.1401 84.244 37.3801 84.684C37.6201 85.124 37.7401 85.664 37.7401 86.304V87.168H33.5161C33.5321 87.672 33.6801 88.068 33.9601 88.356C34.2481 88.644 34.6441 88.788 35.1481 88.788C35.5721 88.788 35.9561 88.748 36.3001 88.668C36.6441 88.58 37.0001 88.448 37.3681 88.272V89.652C37.0481 89.812 36.7081 89.928 36.3481 90C35.9961 90.08 35.5681 90.12 35.0641 90.12C34.4081 90.12 33.8281 90 33.3241 89.76C32.8201 89.512 32.4241 89.14 32.1361 88.644C31.8481 88.148 31.7041 87.524 31.7041 86.772C31.7041 86.004 31.8321 85.368 32.0881 84.864C32.3521 84.352 32.7161 83.968 33.1801 83.712C33.6441 83.456 34.1841 83.328 34.8001 83.328ZM34.8121 84.6C34.4681 84.6 34.1801 84.712 33.9481 84.936C33.7241 85.16 33.5921 85.508 33.5521 85.98H36.0601C36.0601 85.716 36.0121 85.48 35.9161 85.272C35.8281 85.064 35.6921 84.9 35.5081 84.78C35.3241 84.66 35.0921 84.6 34.8121 84.6ZM42.8499 83.328C42.9379 83.328 43.0419 83.332 43.1619 83.34C43.2819 83.348 43.3779 83.36 43.4499 83.376L43.3179 85.056C43.2619 85.04 43.1779 85.028 43.0659 85.02C42.9619 85.004 42.8699 84.996 42.7899 84.996C42.5579 84.996 42.3339 85.028 42.1179 85.092C41.9019 85.148 41.7059 85.24 41.5299 85.368C41.3619 85.496 41.2259 85.668 41.1219 85.884C41.0259 86.092 40.9779 86.352 40.9779 86.664V90H39.1899V83.448H40.5459L40.8099 84.552H40.8939C41.0219 84.328 41.1819 84.124 41.3739 83.94C41.5659 83.756 41.7859 83.608 42.0339 83.496C42.2899 83.384 42.5619 83.328 42.8499 83.328ZM47.3991 88.692C47.5991 88.692 47.7911 88.672 47.9751 88.632C48.1591 88.592 48.3431 88.544 48.5271 88.488V89.82C48.3351 89.9 48.0951 89.968 47.8071 90.024C47.5271 90.088 47.2191 90.12 46.8831 90.12C46.4911 90.12 46.1391 90.056 45.8271 89.928C45.5231 89.8 45.2791 89.58 45.0951 89.268C44.9191 88.948 44.8311 88.508 44.8311 87.948V84.792H43.9791V84.036L44.9631 83.436L45.4791 82.056H46.6191V83.448H48.4551V84.792H46.6191V87.948C46.6191 88.196 46.6911 88.384 46.8351 88.512C46.9791 88.632 47.1671 88.692 47.3991 88.692ZM51.6303 83.448V90H49.8423V83.448H51.6303ZM50.7423 80.88C51.0063 80.88 51.2343 80.944 51.4263 81.072C51.6183 81.192 51.7143 81.42 51.7143 81.756C51.7143 82.084 51.6183 82.312 51.4263 82.44C51.2343 82.568 51.0063 82.632 50.7423 82.632C50.4703 82.632 50.2383 82.568 50.0463 82.44C49.8623 82.312 49.7703 82.084 49.7703 81.756C49.7703 81.42 49.8623 81.192 50.0463 81.072C50.2383 80.944 50.4703 80.88 50.7423 80.88ZM57.1225 84.792H55.5745V90H53.7865V84.792H52.8025V83.928L53.7865 83.448V82.968C53.7865 82.408 53.8785 81.976 54.0625 81.672C54.2545 81.36 54.5225 81.14 54.8665 81.012C55.2185 80.884 55.6305 80.82 56.1025 80.82C56.4545 80.82 56.7705 80.848 57.0505 80.904C57.3385 80.96 57.5705 81.024 57.7465 81.096L57.2905 82.404C57.1545 82.364 57.0065 82.328 56.8465 82.296C56.6865 82.256 56.5025 82.236 56.2945 82.236C56.0465 82.236 55.8625 82.312 55.7425 82.464C55.6305 82.616 55.5745 82.808 55.5745 83.04V83.448H57.1225V84.792ZM59.9305 83.448V90H58.1425V83.448H59.9305ZM59.0425 80.88C59.3065 80.88 59.5345 80.944 59.7265 81.072C59.9185 81.192 60.0145 81.42 60.0145 81.756C60.0145 82.084 59.9185 82.312 59.7265 82.44C59.5345 82.568 59.3065 82.632 59.0425 82.632C58.7705 82.632 58.5385 82.568 58.3465 82.44C58.1625 82.312 58.0705 82.084 58.0705 81.756C58.0705 81.42 58.1625 81.192 58.3465 81.072C58.5385 80.944 58.7705 80.88 59.0425 80.88ZM64.4711 90.12C63.8231 90.12 63.2711 90.004 62.8151 89.772C62.3591 89.532 62.0111 89.164 61.7711 88.668C61.5311 88.172 61.4111 87.536 61.4111 86.76C61.4111 85.96 61.5471 85.308 61.8191 84.804C62.0911 84.3 62.4671 83.928 62.9471 83.688C63.4351 83.448 63.9951 83.328 64.6271 83.328C65.0751 83.328 65.4631 83.372 65.7911 83.46C66.1271 83.548 66.4191 83.652 66.6671 83.772L66.1391 85.152C65.8591 85.04 65.5951 84.948 65.3471 84.876C65.1071 84.804 64.8671 84.768 64.6271 84.768C64.3151 84.768 64.0551 84.844 63.8471 84.996C63.6391 85.14 63.4831 85.36 63.3791 85.656C63.2831 85.944 63.2351 86.308 63.2351 86.748C63.2351 87.18 63.2871 87.54 63.3911 87.828C63.5031 88.108 63.6631 88.32 63.8711 88.464C64.0791 88.6 64.3311 88.668 64.6271 88.668C65.0031 88.668 65.3351 88.62 65.6231 88.524C65.9111 88.42 66.1911 88.28 66.4631 88.104V89.628C66.1911 89.804 65.9031 89.928 65.5991 90C65.3031 90.08 64.9271 90.12 64.4711 90.12ZM70.6592 83.316C71.5392 83.316 72.2112 83.508 72.6752 83.892C73.1472 84.268 73.3832 84.848 73.3832 85.632V90H72.1352L71.7872 89.112H71.7392C71.5552 89.344 71.3632 89.536 71.1632 89.688C70.9712 89.84 70.7472 89.948 70.4912 90.012C70.2432 90.084 69.9352 90.12 69.5672 90.12C69.1832 90.12 68.8352 90.048 68.5232 89.904C68.2192 89.752 67.9792 89.524 67.8032 89.22C67.6272 88.908 67.5392 88.516 67.5392 88.044C67.5392 87.348 67.7832 86.836 68.2712 86.508C68.7592 86.172 69.4912 85.988 70.4672 85.956L71.6072 85.92V85.632C71.6072 85.288 71.5152 85.036 71.3312 84.876C71.1552 84.716 70.9072 84.636 70.5872 84.636C70.2672 84.636 69.9552 84.684 69.6512 84.78C69.3472 84.868 69.0432 84.98 68.7392 85.116L68.1512 83.904C68.5032 83.72 68.8912 83.576 69.3152 83.472C69.7472 83.368 70.1952 83.316 70.6592 83.316ZM70.9112 86.988C70.3352 87.004 69.9352 87.108 69.7112 87.3C69.4872 87.492 69.3752 87.744 69.3752 88.056C69.3752 88.328 69.4552 88.524 69.6152 88.644C69.7752 88.756 69.9832 88.812 70.2392 88.812C70.6232 88.812 70.9472 88.7 71.2112 88.476C71.4752 88.244 71.6072 87.92 71.6072 87.504V86.964L70.9112 86.988ZM77.9733 88.692C78.1733 88.692 78.3653 88.672 78.5493 88.632C78.7333 88.592 78.9173 88.544 79.1013 88.488V89.82C78.9093 89.9 78.6693 89.968 78.3813 90.024C78.1013 90.088 77.7933 90.12 77.4573 90.12C77.0653 90.12 76.7133 90.056 76.4013 89.928C76.0973 89.8 75.8533 89.58 75.6693 89.268C75.4933 88.948 75.4053 88.508 75.4053 87.948V84.792H74.5533V84.036L75.5373 83.436L76.0533 82.056H77.1933V83.448H79.0293V84.792H77.1933V87.948C77.1933 88.196 77.2653 88.384 77.4093 88.512C77.5533 88.632 77.7413 88.692 77.9733 88.692ZM83.1165 83.328C83.7245 83.328 84.2445 83.444 84.6765 83.676C85.1165 83.908 85.4565 84.244 85.6965 84.684C85.9365 85.124 86.0565 85.664 86.0565 86.304V87.168H81.8325C81.8485 87.672 81.9965 88.068 82.2765 88.356C82.5645 88.644 82.9605 88.788 83.4645 88.788C83.8885 88.788 84.2725 88.748 84.6165 88.668C84.9605 88.58 85.3165 88.448 85.6845 88.272V89.652C85.3645 89.812 85.0245 89.928 84.6645 90C84.3125 90.08 83.8845 90.12 83.3805 90.12C82.7245 90.12 82.1445 90 81.6405 89.76C81.1365 89.512 80.7405 89.14 80.4525 88.644C80.1645 88.148 80.0205 87.524 80.0205 86.772C80.0205 86.004 80.1485 85.368 80.4045 84.864C80.6685 84.352 81.0325 83.968 81.4965 83.712C81.9605 83.456 82.5005 83.328 83.1165 83.328ZM83.1285 84.6C82.7845 84.6 82.4965 84.712 82.2645 84.936C82.0405 85.16 81.9085 85.508 81.8685 85.98H84.3765C84.3765 85.716 84.3285 85.48 84.2325 85.272C84.1445 85.064 84.0085 84.9 83.8245 84.78C83.6405 84.66 83.4085 84.6 83.1285 84.6Z" fill="white" fill-opacity="0.3"/>
</g>
<defs>
<clipPath id="clip0_172_8425">
<rect width="375" height="140" fill="white"/>
</clipPath>
</defs>
</svg>
