<svg width="375" height="140" viewBox="0 0 375 140" fill="none" xmlns="http://www.w3.org/2000/svg">
<g clip-path="url(#clip0_172_9137)">
<rect width="375" height="140" fill="#1264E0"/>
<path d="M339.2 11H265C261.817 11 258.765 12.2643 256.515 14.5147C254.264 16.7652 253 19.8174 253 23V46C253 49.1826 254.264 52.2348 256.515 54.4853C258.765 56.7357 261.817 58 265 58H271.2V69.8L283 58H339.2C342.383 58 345.435 56.7357 347.685 54.4853C349.936 52.2348 351.2 49.1826 351.2 46V23C351.2 19.8174 349.936 16.7652 347.685 14.5147C345.435 12.2643 342.383 11 339.2 11Z" fill="#3570F4"/>
<path opacity="0.54" d="M337.46 20.5601H266.72C265.201 20.5601 263.97 21.7913 263.97 23.3101C263.97 24.8288 265.201 26.0601 266.72 26.0601H337.46C338.979 26.0601 340.21 24.8288 340.21 23.3101C340.21 21.7913 338.979 20.5601 337.46 20.5601Z" fill="#689CFF"/>
<path opacity="0.54" d="M337.45 36.99H292.11C291.379 36.9873 290.678 36.6957 290.161 36.1787C289.644 35.6617 289.353 34.9612 289.35 34.23C289.353 33.4997 289.645 32.8003 290.162 32.2848C290.679 31.7694 291.38 31.48 292.11 31.48H337.45C338.179 31.48 338.879 31.7697 339.395 32.2854C339.91 32.8012 340.2 33.5006 340.2 34.23C340.2 34.9602 339.911 35.6608 339.395 36.1781C338.88 36.6954 338.18 36.9873 337.45 36.99Z" fill="#689CFF"/>
<path opacity="0.54" d="M278.65 36.99H266.72C265.99 36.9873 265.29 36.6954 264.775 36.1781C264.259 35.6608 263.97 34.9602 263.97 34.23C263.97 33.5006 264.26 32.8012 264.775 32.2854C265.291 31.7697 265.991 31.48 266.72 31.48H278.65C279.379 31.48 280.079 31.7697 280.595 32.2854C281.11 32.8012 281.4 33.5006 281.4 34.23C281.4 34.9602 281.111 35.6608 280.595 36.1781C280.08 36.6954 279.38 36.9873 278.65 36.99Z" fill="#689CFF"/>
<path opacity="0.54" d="M319.79 47.9099H266.72C265.991 47.9099 265.291 47.6202 264.775 47.1044C264.26 46.5887 263.97 45.8893 263.97 45.1599C263.97 44.4296 264.259 43.7291 264.775 43.2118C265.29 42.6945 265.99 42.4025 266.72 42.3999H319.79C320.52 42.4025 321.22 42.6945 321.735 43.2118C322.251 43.7291 322.54 44.4296 322.54 45.1599C322.54 45.8893 322.25 46.5887 321.735 47.1044C321.219 47.6202 320.519 47.9099 319.79 47.9099Z" fill="#689CFF"/>
<path opacity="0.6" d="M383.052 52.7054L397.182 91.6454C397.546 92.6641 397.493 93.7854 397.034 94.765C396.575 95.7447 395.747 96.5032 394.732 96.8754L320.602 123.765C319.584 124.13 318.464 124.078 317.485 123.621C316.505 123.165 315.746 122.339 315.372 121.325L301.242 82.3754C300.875 81.3583 300.927 80.2372 301.387 79.2585C301.846 78.2797 302.675 77.5233 303.692 77.1554L377.822 50.2555C378.84 49.8912 379.962 49.9444 380.941 50.4033C381.921 50.8622 382.68 51.6897 383.052 52.7054Z" fill="#407BFF"/>
<path d="M380.812 50.3458L359.622 85.2158C357.66 88.4491 354.651 90.9148 351.096 92.2043C347.54 93.4937 343.651 93.5295 340.072 92.3058L301.452 79.1258C301.917 78.1986 302.718 77.4835 303.692 77.1258L377.822 50.2258C378.798 49.8877 379.866 49.9305 380.812 50.3458Z" fill="#558AFF"/>
<path opacity="0.6" d="M340.947 120.846L332.67 154.942C332.451 155.831 331.89 156.597 331.108 157.074C330.327 157.551 329.389 157.699 328.498 157.488L263.582 141.723C263.142 141.616 262.727 141.423 262.361 141.156C261.996 140.888 261.686 140.551 261.451 140.164C261.215 139.777 261.058 139.347 260.989 138.899C260.92 138.451 260.939 137.994 261.047 137.554L269.314 103.455C269.429 102.995 269.636 102.562 269.922 102.184C270.209 101.806 270.569 101.49 270.981 101.255C271.743 100.828 272.638 100.705 273.486 100.91L338.404 116.665C339.295 116.884 340.062 117.447 340.538 118.231C341.015 119.014 341.162 119.955 340.947 120.846Z" fill="#407BFF"/>
<path d="M340.475 118.129L309.184 132.808C306.282 134.167 303.004 134.496 299.89 133.741C296.776 132.985 294.013 131.19 292.058 128.652L271.03 101.266C271.792 100.839 272.686 100.716 273.535 100.921L338.453 116.675C339.284 116.892 340.005 117.41 340.475 118.129Z" fill="#5589FF"/>
<path d="M232.172 88.3365L232.662 88.8886L233.27 89.5212C233.667 89.9456 234.104 90.3704 234.54 90.7953C235.422 91.6293 236.379 92.4525 237.285 93.2394C239.174 94.8392 241.164 96.3171 243.242 97.6639C245.341 98.9847 247.513 100.185 249.748 101.258C250.891 101.76 252.018 102.293 253.197 102.783L254.938 103.436L255.343 103.595C255.177 103.596 255.011 103.614 254.848 103.648C254.492 103.722 254.161 103.886 253.885 104.125C253.709 104.243 253.571 104.41 253.488 104.605C253.442 104.751 253.596 104.492 253.676 104.126C253.871 103.108 253.95 102.071 253.912 101.035C253.83 98.5145 253.596 96.0014 253.209 93.5095C252.834 90.9279 252.368 88.3096 251.831 85.714C251.293 83.1184 250.753 80.4714 250.195 77.8953L254.769 76.3617C255.899 78.9259 256.84 81.4718 257.788 84.0809C258.736 86.69 259.522 89.3246 260.315 92.0225C261.086 94.8103 261.644 97.6528 261.984 100.525C262.179 102.181 262.178 103.853 261.983 105.508C261.834 106.683 261.477 107.822 260.929 108.872C260.494 109.653 259.912 110.342 259.214 110.899C258.398 111.541 257.441 111.98 256.422 112.181C255.592 112.33 254.741 112.334 253.909 112.194C253.577 112.141 253.248 112.07 252.924 111.983L252.377 111.829L250.26 111.191C248.819 110.784 247.495 110.248 246.135 109.724C243.424 108.617 240.796 107.314 238.274 105.827C235.759 104.316 233.353 102.633 231.072 100.788C229.931 99.8401 228.85 98.873 227.792 97.8982C227.258 97.3733 226.74 96.8564 226.222 96.3L225.447 95.4319C225.179 95.124 224.969 94.8761 224.623 94.4485L232.172 88.3365Z" fill="#E4897B"/>
<path d="M238.154 93.2116L233.665 106.794L238.009 108.992L243.264 96.0438L238.154 93.2116Z" fill="#F5F5F5"/>
<path d="M220.973 82.6431C230.743 82.1569 240.981 92.8242 240.981 92.8242L235.215 110.72C235.215 110.72 217.678 98.9531 216.416 93.8739C215.067 88.5604 215.077 82.9059 220.973 82.6431Z" fill="#407BFF"/>
<path opacity="0.7" d="M220.973 82.6431C230.743 82.1569 240.981 92.8242 240.981 92.8242L235.215 110.72C235.215 110.72 217.678 98.9531 216.416 93.8739C215.067 88.5604 215.077 82.9059 220.973 82.6431Z" fill="white"/>
<path d="M230.229 84.8248C230.229 84.8248 234.307 87.3821 213.205 139.829L175.534 131.333C179.619 116.149 181.764 106.694 181.519 73.5738C187.045 73.6649 192.558 74.1593 198.012 75.0529C203.792 75.9777 209.509 77.2638 215.128 78.9036C222.32 81.231 230.229 84.8248 230.229 84.8248Z" fill="#407BFF"/>
<path opacity="0.7" d="M230.229 84.8248C230.229 84.8248 234.307 87.3821 213.205 139.829L175.534 131.333C179.619 116.149 181.764 106.694 181.519 73.5738C187.045 73.6649 192.558 74.1593 198.012 75.0529C203.792 75.9777 209.509 77.2638 215.128 78.9036C222.32 81.231 230.229 84.8248 230.229 84.8248Z" fill="white"/>
<path d="M224.969 82.5522C222.139 81.4069 218.539 80.0219 215.128 78.9042C209.521 77.2171 203.801 75.9303 198.012 75.0535C194.736 74.483 191.446 74.1138 188.682 73.9178C188.498 74.6976 189.455 76.5956 191.59 79.142C198.037 83.5811 211.419 88.8821 220.827 87.7903C224.757 85.8843 225.626 84.1655 224.969 82.5522Z" fill="#F5F5F5"/>
<path d="M191.59 79.1416C196.15 84.2385 201.455 88.6158 207.324 92.1249C211.961 91.1439 216.487 89.7037 220.838 87.8256C211.419 88.8817 198.037 83.5807 191.59 79.1416Z" fill="#F5F5F5"/>
<path d="M213.24 139.817C213.24 139.817 239.707 221.237 232.734 249.391C225.476 278.67 215.358 314.786 215.358 314.786L198.106 319.37C198.106 319.37 203.857 268.87 204.808 245.976C206.111 214.422 185.642 133.598 185.642 133.598L213.24 139.817Z" fill="#407BFF"/>
<path opacity="0.4" d="M213.24 139.817C213.24 139.817 239.707 221.237 232.734 249.391C225.476 278.67 215.358 314.786 215.358 314.786L198.106 319.37C198.106 319.37 203.857 268.87 204.808 245.976C206.111 214.422 185.642 133.598 185.642 133.598L213.24 139.817Z" fill="black"/>
<path d="M203.297 137.619C203.297 137.619 183.587 200.085 169.956 234.762C158.923 262.725 111.591 295.288 111.591 295.288L101.788 286.606C101.788 286.606 136.059 250.083 143.709 231.102C168.197 170.341 159.761 145.556 175.623 131.45L203.297 137.619Z" fill="#407BFF"/>
<path opacity="0.4" d="M203.297 137.619C203.297 137.619 183.587 200.085 169.956 234.762C158.923 262.725 111.591 295.288 111.591 295.288L101.788 286.606C101.788 286.606 136.059 250.083 143.709 231.102C168.197 170.341 159.761 145.556 175.623 131.45L203.297 137.619Z" fill="black"/>
<path d="M250.659 78.9807L245.247 70.2131L255.173 69.9662C255.173 69.9662 256.961 76.4514 254.48 79.535L250.659 78.9807Z" fill="#E4897B"/>
<path d="M245.709 61.649L253.117 62.8453L255.224 70.0027L245.298 70.2497L245.709 61.649Z" fill="#E4897B"/>
<path d="M175.483 128.99L173.027 131.987C172.838 132.217 173.091 132.557 173.528 132.654L213.067 141.538C213.406 141.614 213.727 141.512 213.793 141.307L214.894 138.007C214.964 137.775 214.734 137.507 214.344 137.434L176.208 128.838C176.085 128.793 175.952 128.783 175.824 128.81C175.695 128.837 175.577 128.899 175.483 128.99Z" fill="#263238"/>
<path d="M170.19 134.783L173.793 144.394L180.051 136.702C180.051 136.702 176.002 131.344 172.043 131.414L170.19 134.783Z" fill="#E4897B"/>
<path d="M180.871 149.298L184.446 142.7L180.06 136.653L173.795 144.382L180.871 149.298Z" fill="#E4897B"/>
<path d="M177.657 83.0158C175.353 84.9733 173.427 86.8897 171.414 88.929C169.4 90.9683 167.601 93.0874 165.799 95.2824C162.147 99.6802 158.948 104.435 156.251 109.475C155.89 110.092 155.592 110.773 155.276 111.411C154.961 112.05 154.651 112.664 154.321 113.44C153.585 115.122 153.141 116.916 153.008 118.747C152.865 120.688 153.146 122.636 153.832 124.457C154.493 126.155 155.457 127.718 156.676 129.072C158.853 131.38 161.463 133.237 164.357 134.538C165.684 135.173 167.055 135.712 168.46 136.151C169.852 136.625 171.277 137 172.722 137.274L174.043 132.643C171.76 131.609 169.567 130.386 167.487 128.986C165.573 127.749 163.904 126.168 162.564 124.324C162.054 123.657 161.685 122.893 161.48 122.078C161.275 121.263 161.239 120.416 161.374 119.586C161.549 118.722 161.852 117.889 162.275 117.114C162.826 116.114 163.462 114.939 164.101 113.88C166.794 109.505 169.845 105.36 173.221 101.488C174.882 99.4944 176.708 97.6349 178.489 95.7414C180.271 93.8478 182.217 92.0245 183.975 90.4447L177.657 83.0158Z" fill="#E4897B"/>
<path d="M167.536 89.6262L175.617 100.77L178.748 97.2169L171.201 86.0214L167.536 89.6262Z" fill="#F5F5F5"/>
<path d="M179.648 134.418L178.632 134.19C178.431 134.136 178.295 133.996 178.336 133.878L179.805 129.595C179.846 129.477 180.049 129.413 180.246 129.455L181.278 129.69C181.475 129.732 181.611 129.873 181.57 129.991L180.101 134.274C180.059 134.392 179.857 134.456 179.648 134.418Z" fill="#407BFF"/>
<path d="M210.083 141.268L209.063 141.029C208.866 140.987 208.729 140.846 208.771 140.728L210.24 136.446C210.281 136.328 210.484 136.263 210.681 136.305L211.709 136.529C211.91 136.583 212.046 136.723 211.993 136.845L210.535 141.124C210.494 141.242 210.292 141.307 210.083 141.268Z" fill="#407BFF"/>
<path d="M194.87 137.834L193.841 137.611C193.644 137.569 193.508 137.428 193.557 137.295L195.019 133.028C195.068 132.894 195.258 132.833 195.471 132.884L196.487 133.111C196.696 133.149 196.821 133.293 196.783 133.423L195.31 137.694C195.273 137.824 195.07 137.889 194.87 137.834Z" fill="#407BFF"/>
<path opacity="0.4" d="M179.648 134.418L178.632 134.19C178.431 134.136 178.295 133.996 178.336 133.878L179.805 129.595C179.846 129.477 180.049 129.413 180.246 129.455L181.278 129.69C181.475 129.732 181.611 129.873 181.57 129.991L180.101 134.274C180.059 134.392 179.857 134.456 179.648 134.418Z" fill="black"/>
<path opacity="0.4" d="M210.083 141.268L209.063 141.029C208.866 140.987 208.729 140.846 208.771 140.728L210.24 136.446C210.281 136.328 210.484 136.263 210.681 136.305L211.709 136.529C211.91 136.583 212.046 136.723 211.993 136.845L210.535 141.124C210.494 141.242 210.292 141.307 210.083 141.268Z" fill="black"/>
<path opacity="0.4" d="M194.87 137.834L193.841 137.611C193.644 137.569 193.508 137.428 193.557 137.295L195.019 133.028C195.068 132.894 195.258 132.833 195.471 132.884L196.487 133.111C196.696 133.149 196.821 133.293 196.783 133.423L195.31 137.694C195.273 137.824 195.07 137.889 194.87 137.834Z" fill="black"/>
<path d="M201.603 76.5324C199.331 69.3886 188.006 42.035 198.964 35.9263C201.425 30.843 219.644 24.6009 225.613 33.6369C233.476 45.4926 238.096 79.0567 238.096 79.0567L201.603 76.5324Z" fill="#263238"/>
<path d="M240.56 78.3514C240.519 78.3595 240.477 78.3594 240.437 78.3512C240.396 78.3429 240.358 78.3267 240.323 78.3034C240.289 78.2802 240.26 78.2503 240.237 78.2156C240.215 78.181 240.199 78.1421 240.192 78.1014C240.089 77.7799 233.834 44.7229 225.552 33.4857C223.262 30.4116 219.183 29.0477 213.975 29.6558C207.195 30.436 200.786 34.1927 199.574 37.0172C199.535 37.0894 199.47 37.1438 199.392 37.1686C199.314 37.1934 199.23 37.1866 199.157 37.1498C199.083 37.1097 199.028 37.0428 199.002 36.9629C198.977 36.883 198.983 36.7964 199.02 36.7211C200.433 33.4134 207.533 29.7254 213.933 28.9874C219.367 28.3468 223.689 29.8169 226.087 33.0663C234.454 44.4469 240.767 77.6035 240.834 77.9364C240.848 77.9818 240.851 78.0297 240.844 78.0766C240.837 78.1235 240.82 78.1683 240.794 78.2079C240.767 78.2474 240.733 78.2808 240.692 78.3056C240.652 78.3304 240.607 78.346 240.56 78.3514Z" fill="#263238"/>
<path d="M204.068 56.1724C203.914 61.9118 202.717 72.2443 198.035 75.0448C198.035 75.0448 198.282 80.9715 208.52 83.2736C219.811 85.7916 215.152 78.8955 215.152 78.8955C209.343 76.0497 210.515 71.5334 212.55 67.5032L204.068 56.1724Z" fill="#E4897B"/>
<path d="M207.506 60.7961L212.523 67.4996C212.041 68.4367 211.636 69.4118 211.313 70.415C209.045 69.5501 205.987 66.6551 206.29 64.1461C206.491 62.9657 206.903 61.831 207.506 60.7961Z" fill="#CE6F64"/>
<path d="M200.863 45.851C201.152 55.2911 201.074 59.2889 205.684 64.26C212.618 71.7563 224.135 69.3381 226.626 60.0231C228.91 51.626 228.044 37.6101 218.959 33.6168C216.962 32.7277 214.772 32.3617 212.595 32.5533C210.418 32.7448 208.326 33.4876 206.515 34.7117C204.705 35.9357 203.236 37.6006 202.247 39.5495C201.258 41.4984 200.782 43.6671 200.863 45.851Z" fill="#E4897B"/>
<path d="M200.062 52.1117C206.948 52.4512 218.987 40.2168 221.439 34.2838C219.667 26.9018 203.654 35.1301 203.654 35.1301C203.654 35.1301 193.746 35.2272 200.062 52.1117Z" fill="#263238"/>
<path d="M199.146 54.3037C199.284 56.1227 200.137 57.8129 201.52 59.003C203.332 60.5768 205.28 59.1178 205.619 56.886C205.916 54.8511 205.305 51.5708 203.054 50.884C202.557 50.7442 202.034 50.7305 201.531 50.8442C201.028 50.9578 200.561 51.1952 200.173 51.5348C199.785 51.8744 199.488 52.3055 199.309 52.789C199.129 53.2725 199.074 53.7931 199.146 54.3037Z" fill="#E4897B"/>
<path d="M215.07 48.9237C215.04 49.6938 215.426 50.3313 215.928 50.3422C216.429 50.353 216.853 49.7463 216.883 48.9762C216.913 48.2061 216.519 47.5842 216.013 47.5615C215.508 47.5387 215.088 48.1573 215.07 48.9237Z" fill="#263238"/>
<path d="M223.731 49.1967C223.713 49.963 224.096 50.5886 224.601 50.6114C225.106 50.6341 225.526 50.0156 225.544 49.2492C225.563 48.4829 225.176 47.8454 224.687 47.8307C224.197 47.8161 223.762 48.4265 223.731 49.1967Z" fill="#263238"/>
<path d="M224.461 47.8628L226.317 47.3904C226.317 47.3904 225.325 48.8072 224.461 47.8628Z" fill="#263238"/>
<path d="M221.399 50.4365C222.031 52.2033 222.898 53.8768 223.978 55.4113C223.579 55.6801 223.127 55.8579 222.652 55.9319C222.177 56.006 221.691 55.9745 221.23 55.8398L221.399 50.4365Z" fill="#DE5753"/>
<path d="M218.519 58.7739L218.447 58.7966C217.416 58.7903 216.401 58.5377 215.487 58.0598C214.574 57.5819 213.787 56.8927 213.194 56.0493C213.165 55.9961 213.157 55.9338 213.173 55.8753C213.188 55.8167 213.226 55.7663 213.277 55.7344C213.302 55.7187 213.331 55.7084 213.36 55.7043C213.39 55.7002 213.42 55.7024 213.448 55.7106C213.477 55.7188 213.503 55.7329 213.526 55.752C213.549 55.7711 213.567 55.7948 213.58 55.8215C214.143 56.5915 214.877 57.2203 215.724 57.6584C216.571 58.0965 217.508 58.332 218.461 58.3464C218.514 58.3478 218.565 58.368 218.605 58.4035C218.645 58.439 218.671 58.4874 218.678 58.5402C218.685 58.5929 218.674 58.6465 218.645 58.6915C218.617 58.7365 218.573 58.7699 218.522 58.7858L218.519 58.7739Z" fill="#263238"/>
<path d="M213.857 46.3056C213.761 46.3378 213.656 46.3364 213.561 46.3019C213.466 46.2673 213.385 46.2015 213.332 46.1152C213.278 46.0289 213.256 45.9272 213.268 45.8265C213.28 45.7257 213.325 45.632 213.397 45.5604C213.882 45.0377 214.485 44.6382 215.156 44.3952C215.826 44.1522 216.545 44.0727 217.253 44.1632C217.316 44.1682 217.377 44.1864 217.432 44.2166C217.488 44.2469 217.536 44.2884 217.575 44.3386C217.613 44.3888 217.64 44.4464 217.655 44.5079C217.669 44.5693 217.671 44.6331 217.659 44.6951C217.647 44.7571 217.623 44.8159 217.587 44.8678C217.551 44.9197 217.504 44.9634 217.45 44.9961C217.396 45.0289 217.336 45.0499 217.273 45.0578C217.211 45.0657 217.147 45.0603 217.087 45.0421C216.525 44.9805 215.956 45.0528 215.427 45.2529C214.899 45.4531 214.425 45.7754 214.044 46.1936C213.992 46.2462 213.928 46.2847 213.857 46.3056Z" fill="#263238"/>
<path d="M227.934 45.3022C227.84 45.3319 227.739 45.329 227.647 45.294C227.555 45.259 227.477 45.194 227.427 45.1095C227.14 44.6236 226.744 44.2117 226.269 43.9073C225.794 43.6029 225.254 43.4144 224.693 43.357C224.573 43.3534 224.459 43.3033 224.376 43.2173C224.292 43.1314 224.245 43.0164 224.245 42.8965C224.245 42.8368 224.257 42.7777 224.281 42.723C224.304 42.6682 224.339 42.6189 224.383 42.578C224.426 42.5372 224.478 42.5056 224.534 42.4854C224.59 42.4651 224.649 42.4566 224.709 42.4603C225.421 42.5187 226.109 42.7478 226.714 43.1282C227.319 43.5086 227.823 44.0291 228.184 44.6458C228.216 44.6959 228.237 44.7519 228.247 44.8104C228.257 44.8689 228.255 44.9288 228.242 44.9867C228.229 45.0446 228.204 45.0992 228.17 45.1475C228.135 45.1958 228.092 45.2368 228.041 45.2681L227.934 45.3022Z" fill="#263238"/>
<path d="M215.767 47.6125L217.623 47.1401C217.623 47.1401 216.664 48.5337 215.767 47.6125Z" fill="#263238"/>
<path d="M181.543 73.5669C177.508 73.8671 168.766 86.3247 168.766 86.3247L178.626 100.377C178.626 100.377 188.562 89.8604 188.117 84.587C187.603 79.1388 186.143 73.231 181.543 73.5669Z" fill="#407BFF"/>
<path opacity="0.7" d="M181.543 73.5669C177.508 73.8671 168.766 86.3247 168.766 86.3247L178.626 100.377C178.626 100.377 188.562 89.8604 188.117 84.587C187.603 79.1388 186.143 73.231 181.543 73.5669Z" fill="white"/>
<path d="M32.86 35.58V37.56H43.08V35.58H32.86ZM36.78 34.02V39.7H39.14V34.02H36.78ZM33.54 42.22C34.58 42.76 35.84 43.58 36.46 44.16L37.48 42.9C36.82 42.34 35.5 41.58 34.52 41.1L33.54 42.22ZM32.04 43.96C33.12 44.54 34.42 45.46 35.04 46.1L36.12 44.8C35.48 44.18 34.14 43.32 33.1 42.8L32.04 43.96ZM32.16 38.82V40.84H42.68V38.82H32.16ZM41.88 38.82V39.12C41.66 40.38 41.24 41.96 40.9 42.94L42.76 43.34C43.2 42.26 43.7 40.58 44.06 39.06L42.54 38.74L42.18 38.82H41.88ZM31.74 45.58V47.64H44V45.58H31.74ZM37.28 41.36V43.46C37.28 45.78 36.68 49.1 31.34 51.08C31.82 51.52 32.52 52.38 32.78 52.94C38.8 50.56 39.58 46.46 39.58 43.52V41.36H37.28ZM38.54 49.2C40.14 50.24 42.08 51.82 43 52.86L44.5 51.34C43.54 50.28 41.5 48.82 39.96 47.86L38.54 49.2ZM26.58 35.82C27.7 36.74 29.16 38.08 29.84 38.94L31.46 37.2C30.74 36.36 29.2 35.12 28.1 34.26L26.58 35.82ZM28.28 52.66C28.6 52.18 29.2 51.6 32.4 48.82C32.12 48.36 31.72 47.42 31.5 46.78L28.1 49.64L27.7 50.42L28.28 52.66ZM28.28 52.68C28.28 51.86 30.26 50.16 30.26 50.16V40.16H28.06V48.9C28.06 49.96 27.52 50.7 27.1 51.06C27.46 51.4 28.06 52.2 28.28 52.68ZM25.62 40.16V42.46H29.7V40.16H25.62ZM45.98 40.08V42.2H63.98V40.08H45.98ZM47.72 36.18V38.26H59.16V36.18H47.72ZM51.24 47.06V48.86H60.18V47.06H51.24ZM51.24 50.2V52.22H60.18V50.2H51.24ZM52.44 34.02V41.26H54.8V34.02H52.44ZM61.24 34.6C57.74 39.62 51.86 43.44 45.36 45.52C45.8 46 46.52 47 46.8 47.52C53.28 45.14 59.38 41.12 63.3 35.66L61.24 34.6ZM49.9 43.8V52.82H52.3V45.76H59.2V52.74H61.7V43.8H49.9ZM68.16 44.04V52.8H70.6V45.94H79.56V52.72H82.12V44.04H68.16ZM69.38 47.2V48.94H80.6V47.2H69.38ZM75 34.96V37.02H82.16V34.96H75ZM69.38 50.24V52.16H80.6V50.24H69.38ZM73.98 44.86V51.32H76.24V44.86H73.98ZM81.34 34.96V35.32C81.22 39.24 81.04 40.7 80.72 41.08C80.56 41.26 80.38 41.3 80.1 41.3C79.78 41.32 79.1 41.3 78.36 41.24C78.68 41.78 78.94 42.66 78.96 43.3C79.9 43.32 80.76 43.32 81.28 43.24C81.86 43.16 82.32 42.98 82.7 42.5C83.22 41.86 83.44 40.12 83.62 35.84C83.62 35.56 83.64 34.96 83.64 34.96H81.34ZM72.76 33.9C71.34 34.52 69.12 35.18 67.14 35.6C67.38 36.06 67.68 36.84 67.78 37.32C69.88 36.94 72.36 36.38 74.26 35.66L72.76 33.9ZM77 35.68C76.82 38.52 76.46 40.7 73.68 41.96C74.16 42.36 74.76 43.16 75.02 43.7C78.34 42.04 78.98 39.28 79.22 35.68H77ZM70.66 38.2C71.48 39.68 72.34 41.62 72.64 42.84L74.72 41.96C74.38 40.72 73.44 38.84 72.58 37.44L70.66 38.2ZM67.48 43.44C67.96 43.12 68.74 42.84 73.18 41.72C73.02 41.22 72.82 40.34 72.7 39.72L68.2 40.72L67.28 41.46L67.48 43.44ZM67.48 43.42C67.48 42.56 69.48 40.88 69.48 40.88V35.6H67.14V39.6C67.14 40.64 66.66 41.34 66.26 41.7C66.62 42.04 67.26 42.94 67.48 43.42ZM90.06 50.12V52.1H100.1V50.12H90.06ZM88.7 43.04V44.94H101.46V43.04H88.7ZM88.7 39.92V41.8H101.46V39.92H88.7ZM85.92 36.72V38.76H104.14V36.72H85.92ZM88.46 46.3V52.78H90.82V48.3H99.22V52.72H101.68V46.3H88.46ZM92.86 34.5C93.52 35.44 94.22 36.7 94.46 37.5L97.02 36.84C96.72 36 95.96 34.8 95.26 33.9L92.86 34.5Z" fill="white"/>
<path d="M28.576 65.432C29.352 65.432 29.992 65.528 30.496 65.72C31 65.904 31.376 66.188 31.624 66.572C31.872 66.948 31.996 67.424 31.996 68C31.996 68.392 31.92 68.736 31.768 69.032C31.624 69.32 31.428 69.568 31.18 69.776C30.94 69.976 30.68 70.14 30.4 70.268L32.92 74H30.904L28.864 70.712H27.892V74H26.08V65.432H28.576ZM28.444 66.92H27.892V69.236H28.48C28.88 69.236 29.204 69.192 29.452 69.104C29.7 69.016 29.88 68.884 29.992 68.708C30.104 68.524 30.16 68.304 30.16 68.048C30.16 67.776 30.096 67.56 29.968 67.4C29.848 67.232 29.66 67.112 29.404 67.04C29.156 66.96 28.836 66.92 28.444 66.92ZM36.5579 67.328C37.1659 67.328 37.6859 67.444 38.1179 67.676C38.5579 67.908 38.8979 68.244 39.1379 68.684C39.3779 69.124 39.4979 69.664 39.4979 70.304V71.168H35.2739C35.2899 71.672 35.4379 72.068 35.7179 72.356C36.0059 72.644 36.4019 72.788 36.9059 72.788C37.3299 72.788 37.7139 72.748 38.0579 72.668C38.4019 72.58 38.7579 72.448 39.1259 72.272V73.652C38.8059 73.812 38.4659 73.928 38.1059 74C37.7539 74.08 37.3259 74.12 36.8219 74.12C36.1659 74.12 35.5859 74 35.0819 73.76C34.5779 73.512 34.1819 73.14 33.8939 72.644C33.6059 72.148 33.4619 71.524 33.4619 70.772C33.4619 70.004 33.5899 69.368 33.8459 68.864C34.1099 68.352 34.4739 67.968 34.9379 67.712C35.4019 67.456 35.9419 67.328 36.5579 67.328ZM36.5699 68.6C36.2259 68.6 35.9379 68.712 35.7059 68.936C35.4819 69.16 35.3499 69.508 35.3099 69.98H37.8179C37.8179 69.716 37.7699 69.48 37.6739 69.272C37.5859 69.064 37.4499 68.9 37.2659 68.78C37.0819 68.66 36.8499 68.6 36.5699 68.6ZM43.6357 67.316C44.5157 67.316 45.1877 67.508 45.6517 67.892C46.1237 68.268 46.3597 68.848 46.3597 69.632V74H45.1117L44.7637 73.112H44.7157C44.5317 73.344 44.3397 73.536 44.1397 73.688C43.9477 73.84 43.7237 73.948 43.4677 74.012C43.2197 74.084 42.9117 74.12 42.5437 74.12C42.1597 74.12 41.8117 74.048 41.4997 73.904C41.1957 73.752 40.9557 73.524 40.7797 73.22C40.6037 72.908 40.5157 72.516 40.5157 72.044C40.5157 71.348 40.7597 70.836 41.2477 70.508C41.7357 70.172 42.4677 69.988 43.4437 69.956L44.5837 69.92V69.632C44.5837 69.288 44.4917 69.036 44.3077 68.876C44.1317 68.716 43.8837 68.636 43.5637 68.636C43.2437 68.636 42.9317 68.684 42.6277 68.78C42.3237 68.868 42.0197 68.98 41.7157 69.116L41.1277 67.904C41.4797 67.72 41.8677 67.576 42.2917 67.472C42.7237 67.368 43.1717 67.316 43.6357 67.316ZM43.8877 70.988C43.3117 71.004 42.9117 71.108 42.6877 71.3C42.4637 71.492 42.3517 71.744 42.3517 72.056C42.3517 72.328 42.4317 72.524 42.5917 72.644C42.7517 72.756 42.9597 72.812 43.2157 72.812C43.5997 72.812 43.9237 72.7 44.1877 72.476C44.4517 72.244 44.5837 71.92 44.5837 71.504V70.964L43.8877 70.988ZM50.2659 74.12C49.5379 74.12 48.9419 73.836 48.4779 73.268C48.0219 72.692 47.7939 71.848 47.7939 70.736C47.7939 69.616 48.0259 68.768 48.4899 68.192C48.9539 67.616 49.5619 67.328 50.3139 67.328C50.6259 67.328 50.9019 67.372 51.1419 67.46C51.3819 67.54 51.5859 67.652 51.7539 67.796C51.9299 67.94 52.0779 68.104 52.1979 68.288H52.2579C52.2339 68.16 52.2059 67.976 52.1739 67.736C52.1419 67.488 52.1259 67.236 52.1259 66.98V64.88H53.9139V74H52.5459L52.1979 73.148H52.1259C52.0139 73.324 51.8699 73.488 51.6939 73.64C51.5259 73.784 51.3259 73.9 51.0939 73.988C50.8619 74.076 50.5859 74.12 50.2659 74.12ZM50.8899 72.692C51.3859 72.692 51.7339 72.548 51.9339 72.26C52.1339 71.964 52.2379 71.524 52.2459 70.94V70.748C52.2459 70.108 52.1459 69.62 51.9459 69.284C51.7539 68.948 51.3939 68.78 50.8659 68.78C50.4739 68.78 50.1659 68.952 49.9419 69.296C49.7179 69.632 49.6059 70.12 49.6059 70.76C49.6059 71.4 49.7179 71.884 49.9419 72.212C50.1659 72.532 50.4819 72.692 50.8899 72.692ZM58.4837 67.328C59.0917 67.328 59.6117 67.444 60.0437 67.676C60.4837 67.908 60.8237 68.244 61.0637 68.684C61.3037 69.124 61.4237 69.664 61.4237 70.304V71.168H57.1997C57.2157 71.672 57.3637 72.068 57.6437 72.356C57.9317 72.644 58.3277 72.788 58.8317 72.788C59.2557 72.788 59.6397 72.748 59.9837 72.668C60.3277 72.58 60.6837 72.448 61.0517 72.272V73.652C60.7317 73.812 60.3917 73.928 60.0317 74C59.6797 74.08 59.2517 74.12 58.7477 74.12C58.0917 74.12 57.5117 74 57.0077 73.76C56.5037 73.512 56.1077 73.14 55.8197 72.644C55.5317 72.148 55.3877 71.524 55.3877 70.772C55.3877 70.004 55.5157 69.368 55.7717 68.864C56.0357 68.352 56.3997 67.968 56.8637 67.712C57.3277 67.456 57.8677 67.328 58.4837 67.328ZM58.4957 68.6C58.1517 68.6 57.8637 68.712 57.6317 68.936C57.4077 69.16 57.2757 69.508 57.2357 69.98H59.7437C59.7437 69.716 59.6957 69.48 59.5997 69.272C59.5117 69.064 59.3757 68.9 59.1917 68.78C59.0077 68.66 58.7757 68.6 58.4957 68.6ZM66.5335 67.328C66.6215 67.328 66.7255 67.332 66.8455 67.34C66.9655 67.348 67.0615 67.36 67.1335 67.376L67.0015 69.056C66.9455 69.04 66.8615 69.028 66.7495 69.02C66.6455 69.004 66.5535 68.996 66.4735 68.996C66.2415 68.996 66.0175 69.028 65.8015 69.092C65.5855 69.148 65.3895 69.24 65.2135 69.368C65.0455 69.496 64.9095 69.668 64.8055 69.884C64.7095 70.092 64.6615 70.352 64.6615 70.664V74H62.8735V67.448H64.2295L64.4935 68.552H64.5775C64.7055 68.328 64.8655 68.124 65.0575 67.94C65.2495 67.756 65.4695 67.608 65.7175 67.496C65.9735 67.384 66.2455 67.328 66.5335 67.328ZM75.0639 68.792H73.5159V74H71.7279V68.792H70.7439V67.928L71.7279 67.448V66.968C71.7279 66.408 71.8199 65.976 72.0039 65.672C72.1959 65.36 72.4639 65.14 72.8079 65.012C73.1599 64.884 73.5719 64.82 74.0439 64.82C74.3959 64.82 74.7119 64.848 74.9919 64.904C75.2799 64.96 75.5119 65.024 75.6879 65.096L75.2319 66.404C75.0959 66.364 74.9479 66.328 74.7879 66.296C74.6279 66.256 74.4439 66.236 74.2359 66.236C73.9879 66.236 73.8039 66.312 73.6839 66.464C73.5719 66.616 73.5159 66.808 73.5159 67.04V67.448H75.0639V68.792ZM78.7805 67.328C79.3885 67.328 79.9085 67.444 80.3405 67.676C80.7805 67.908 81.1205 68.244 81.3605 68.684C81.6005 69.124 81.7205 69.664 81.7205 70.304V71.168H77.4965C77.5125 71.672 77.6605 72.068 77.9405 72.356C78.2285 72.644 78.6245 72.788 79.1285 72.788C79.5525 72.788 79.9365 72.748 80.2805 72.668C80.6245 72.58 80.9805 72.448 81.3485 72.272V73.652C81.0285 73.812 80.6885 73.928 80.3285 74C79.9765 74.08 79.5485 74.12 79.0445 74.12C78.3885 74.12 77.8085 74 77.3045 73.76C76.8005 73.512 76.4045 73.14 76.1165 72.644C75.8285 72.148 75.6845 71.524 75.6845 70.772C75.6845 70.004 75.8125 69.368 76.0685 68.864C76.3325 68.352 76.6965 67.968 77.1605 67.712C77.6245 67.456 78.1645 67.328 78.7805 67.328ZM78.7925 68.6C78.4485 68.6 78.1605 68.712 77.9285 68.936C77.7045 69.16 77.5725 69.508 77.5325 69.98H80.0405C80.0405 69.716 79.9925 69.48 79.8965 69.272C79.8085 69.064 79.6725 68.9 79.4885 68.78C79.3045 68.66 79.0725 68.6 78.7925 68.6ZM85.8704 67.328C86.4784 67.328 86.9984 67.444 87.4304 67.676C87.8704 67.908 88.2104 68.244 88.4504 68.684C88.6904 69.124 88.8104 69.664 88.8104 70.304V71.168H84.5864C84.6024 71.672 84.7504 72.068 85.0304 72.356C85.3184 72.644 85.7144 72.788 86.2184 72.788C86.6424 72.788 87.0264 72.748 87.3704 72.668C87.7144 72.58 88.0704 72.448 88.4384 72.272V73.652C88.1184 73.812 87.7784 73.928 87.4184 74C87.0664 74.08 86.6384 74.12 86.1344 74.12C85.4784 74.12 84.8984 74 84.3944 73.76C83.8904 73.512 83.4944 73.14 83.2064 72.644C82.9184 72.148 82.7744 71.524 82.7744 70.772C82.7744 70.004 82.9024 69.368 83.1584 68.864C83.4224 68.352 83.7864 67.968 84.2504 67.712C84.7144 67.456 85.2544 67.328 85.8704 67.328ZM85.8824 68.6C85.5384 68.6 85.2504 68.712 85.0184 68.936C84.7944 69.16 84.6624 69.508 84.6224 69.98H87.1304C87.1304 69.716 87.0824 69.48 86.9864 69.272C86.8984 69.064 86.7624 68.9 86.5784 68.78C86.3944 68.66 86.1624 68.6 85.8824 68.6ZM92.3362 74.12C91.6082 74.12 91.0122 73.836 90.5482 73.268C90.0922 72.692 89.8642 71.848 89.8642 70.736C89.8642 69.616 90.0962 68.768 90.5602 68.192C91.0242 67.616 91.6322 67.328 92.3842 67.328C92.6962 67.328 92.9722 67.372 93.2122 67.46C93.4522 67.54 93.6562 67.652 93.8242 67.796C94.0002 67.94 94.1482 68.104 94.2682 68.288H94.3282C94.3042 68.16 94.2762 67.976 94.2442 67.736C94.2122 67.488 94.1962 67.236 94.1962 66.98V64.88H95.9842V74H94.6162L94.2682 73.148H94.1962C94.0842 73.324 93.9402 73.488 93.7642 73.64C93.5962 73.784 93.3962 73.9 93.1642 73.988C92.9322 74.076 92.6562 74.12 92.3362 74.12ZM92.9602 72.692C93.4562 72.692 93.8042 72.548 94.0042 72.26C94.2042 71.964 94.3082 71.524 94.3162 70.94V70.748C94.3162 70.108 94.2162 69.62 94.0162 69.284C93.8242 68.948 93.4642 68.78 92.9362 68.78C92.5442 68.78 92.2362 68.952 92.0122 69.296C91.7882 69.632 91.6762 70.12 91.6762 70.76C91.6762 71.4 91.7882 71.884 92.0122 72.212C92.2362 72.532 92.5522 72.692 92.9602 72.692ZM99.642 67.004C99.642 67.252 99.634 67.496 99.618 67.736C99.602 67.976 99.586 68.164 99.57 68.3H99.642C99.818 68.028 100.054 67.8 100.35 67.616C100.646 67.424 101.03 67.328 101.502 67.328C102.238 67.328 102.834 67.616 103.29 68.192C103.746 68.76 103.974 69.6 103.974 70.712C103.974 71.456 103.866 72.084 103.65 72.596C103.442 73.1 103.15 73.48 102.774 73.736C102.398 73.992 101.958 74.12 101.454 74.12C100.974 74.12 100.594 74.036 100.314 73.868C100.042 73.692 99.818 73.496 99.642 73.28H99.522L99.222 74H97.854V64.88H99.642V67.004ZM100.926 68.756C100.614 68.756 100.366 68.82 100.182 68.948C99.998 69.076 99.862 69.272 99.774 69.536C99.694 69.792 99.65 70.116 99.642 70.508V70.7C99.642 71.332 99.734 71.82 99.918 72.164C100.11 72.5 100.454 72.668 100.95 72.668C101.318 72.668 101.61 72.5 101.826 72.164C102.042 71.82 102.15 71.328 102.15 70.688C102.15 70.048 102.038 69.568 101.814 69.248C101.598 68.92 101.302 68.756 100.926 68.756ZM108.136 67.316C109.016 67.316 109.688 67.508 110.152 67.892C110.624 68.268 110.86 68.848 110.86 69.632V74H109.612L109.264 73.112H109.216C109.032 73.344 108.84 73.536 108.64 73.688C108.448 73.84 108.224 73.948 107.968 74.012C107.72 74.084 107.412 74.12 107.044 74.12C106.66 74.12 106.312 74.048 106 73.904C105.696 73.752 105.456 73.524 105.28 73.22C105.104 72.908 105.016 72.516 105.016 72.044C105.016 71.348 105.26 70.836 105.748 70.508C106.236 70.172 106.968 69.988 107.944 69.956L109.084 69.92V69.632C109.084 69.288 108.992 69.036 108.808 68.876C108.632 68.716 108.384 68.636 108.064 68.636C107.744 68.636 107.432 68.684 107.128 68.78C106.824 68.868 106.52 68.98 106.216 69.116L105.628 67.904C105.98 67.72 106.368 67.576 106.792 67.472C107.224 67.368 107.672 67.316 108.136 67.316ZM108.388 70.988C107.812 71.004 107.412 71.108 107.188 71.3C106.964 71.492 106.852 71.744 106.852 72.056C106.852 72.328 106.932 72.524 107.092 72.644C107.252 72.756 107.46 72.812 107.716 72.812C108.1 72.812 108.424 72.7 108.688 72.476C108.952 72.244 109.084 71.92 109.084 71.504V70.964L108.388 70.988ZM115.354 74.12C114.706 74.12 114.154 74.004 113.698 73.772C113.242 73.532 112.894 73.164 112.654 72.668C112.414 72.172 112.294 71.536 112.294 70.76C112.294 69.96 112.43 69.308 112.702 68.804C112.974 68.3 113.35 67.928 113.83 67.688C114.318 67.448 114.878 67.328 115.51 67.328C115.958 67.328 116.346 67.372 116.674 67.46C117.01 67.548 117.302 67.652 117.55 67.772L117.022 69.152C116.742 69.04 116.478 68.948 116.23 68.876C115.99 68.804 115.75 68.768 115.51 68.768C115.198 68.768 114.938 68.844 114.73 68.996C114.522 69.14 114.366 69.36 114.262 69.656C114.166 69.944 114.118 70.308 114.118 70.748C114.118 71.18 114.17 71.54 114.274 71.828C114.386 72.108 114.546 72.32 114.754 72.464C114.962 72.6 115.214 72.668 115.51 72.668C115.886 72.668 116.218 72.62 116.506 72.524C116.794 72.42 117.074 72.28 117.346 72.104V73.628C117.074 73.804 116.786 73.928 116.482 74C116.186 74.08 115.81 74.12 115.354 74.12ZM120.642 68.96C120.642 69.208 120.63 69.456 120.606 69.704C120.59 69.944 120.57 70.188 120.546 70.436H120.57C120.65 70.324 120.73 70.212 120.81 70.1C120.898 69.988 120.986 69.876 121.074 69.764C121.162 69.652 121.254 69.544 121.35 69.44L123.186 67.448H125.202L122.598 70.292L125.358 74H123.294L121.41 71.348L120.642 71.96V74H118.854V64.88H120.642V68.96Z" fill="white" fill-opacity="0.3"/>
</g>
<defs>
<clipPath id="clip0_172_9137">
<rect width="375" height="140" fill="white"/>
</clipPath>
</defs>
</svg>
