<svg width="76" height="76" viewBox="0 0 76 76" fill="none" xmlns="http://www.w3.org/2000/svg">
<g filter="url(#filter0_d_167_11589)">
<rect x="10" y="6" width="56" height="56" rx="12" fill="white"/>
</g>
<path d="M19 20H47V49H23C20.7909 49 19 47.2091 19 45V20Z" fill="url(#paint0_linear_167_11589)"/>
<mask id="mask0_167_11589" style="mask-type:alpha" maskUnits="userSpaceOnUse" x="19" y="20" width="28" height="29">
<path d="M19 20H47V49H23C20.7909 49 19 47.2091 19 45V20Z" fill="url(#paint1_linear_167_11589)"/>
</mask>
<g mask="url(#mask0_167_11589)">
<rect x="19" y="20" width="4" height="29" fill="url(#paint2_linear_167_11589)"/>
</g>
<path d="M19 20.5C19 18.567 20.567 17 22.5 17H45C46.1046 17 47 17.8954 47 19V24H22.5C20.567 24 19 22.433 19 20.5Z" fill="#B08AFF"/>
<path fill-rule="evenodd" clip-rule="evenodd" d="M47 24H45C46.1046 24 47 24.8954 47 26V24Z" fill="#B08AFF"/>
<g filter="url(#filter1_bi_167_11589)">
<rect x="37" y="36" width="20" height="18" rx="3" fill="#C7B1F5" fill-opacity="0.5"/>
</g>
<g filter="url(#filter2_b_167_11589)">
<rect x="40" y="34" width="2" height="4" rx="1" fill="#C7B1F5" fill-opacity="0.4"/>
</g>
<g filter="url(#filter3_b_167_11589)">
<rect x="52" y="34" width="2" height="4" rx="1" fill="#C7B1F5" fill-opacity="0.4"/>
</g>
<rect x="40" y="43" width="14" height="3" rx="1.5" fill="white" fill-opacity="0.6"/>
<rect x="40" y="48" width="14" height="3" rx="1.5" fill="white" fill-opacity="0.6"/>
<path fill-rule="evenodd" clip-rule="evenodd" d="M57 40H37V39H57V40Z" fill="url(#paint3_linear_167_11589)" fill-opacity="0.5"/>
<defs>
<filter id="filter0_d_167_11589" x="0" y="0" width="76" height="76" filterUnits="userSpaceOnUse" color-interpolation-filters="sRGB">
<feFlood flood-opacity="0" result="BackgroundImageFix"/>
<feColorMatrix in="SourceAlpha" type="matrix" values="0 0 0 0 0 0 0 0 0 0 0 0 0 0 0 0 0 0 127 0" result="hardAlpha"/>
<feOffset dy="4"/>
<feGaussianBlur stdDeviation="5"/>
<feComposite in2="hardAlpha" operator="out"/>
<feColorMatrix type="matrix" values="0 0 0 0 0.330556 0 0 0 0 0.716333 0 0 0 0 0.933333 0 0 0 0.15 0"/>
<feBlend mode="normal" in2="BackgroundImageFix" result="effect1_dropShadow_167_11589"/>
<feBlend mode="normal" in="SourceGraphic" in2="effect1_dropShadow_167_11589" result="shape"/>
</filter>
<filter id="filter1_bi_167_11589" x="33" y="32" width="28" height="26" filterUnits="userSpaceOnUse" color-interpolation-filters="sRGB">
<feFlood flood-opacity="0" result="BackgroundImageFix"/>
<feGaussianBlur in="BackgroundImageFix" stdDeviation="2"/>
<feComposite in2="SourceAlpha" operator="in" result="effect1_backgroundBlur_167_11589"/>
<feBlend mode="normal" in="SourceGraphic" in2="effect1_backgroundBlur_167_11589" result="shape"/>
<feColorMatrix in="SourceAlpha" type="matrix" values="0 0 0 0 0 0 0 0 0 0 0 0 0 0 0 0 0 0 127 0" result="hardAlpha"/>
<feOffset dy="1"/>
<feGaussianBlur stdDeviation="1"/>
<feComposite in2="hardAlpha" operator="arithmetic" k2="-1" k3="1"/>
<feColorMatrix type="matrix" values="0 0 0 0 1 0 0 0 0 1 0 0 0 0 1 0 0 0 0.35 0"/>
<feBlend mode="normal" in2="shape" result="effect2_innerShadow_167_11589"/>
</filter>
<filter id="filter2_b_167_11589" x="36" y="30" width="10" height="12" filterUnits="userSpaceOnUse" color-interpolation-filters="sRGB">
<feFlood flood-opacity="0" result="BackgroundImageFix"/>
<feGaussianBlur in="BackgroundImageFix" stdDeviation="2"/>
<feComposite in2="SourceAlpha" operator="in" result="effect1_backgroundBlur_167_11589"/>
<feBlend mode="normal" in="SourceGraphic" in2="effect1_backgroundBlur_167_11589" result="shape"/>
</filter>
<filter id="filter3_b_167_11589" x="48" y="30" width="10" height="12" filterUnits="userSpaceOnUse" color-interpolation-filters="sRGB">
<feFlood flood-opacity="0" result="BackgroundImageFix"/>
<feGaussianBlur in="BackgroundImageFix" stdDeviation="2"/>
<feComposite in2="SourceAlpha" operator="in" result="effect1_backgroundBlur_167_11589"/>
<feBlend mode="normal" in="SourceGraphic" in2="effect1_backgroundBlur_167_11589" result="shape"/>
</filter>
<linearGradient id="paint0_linear_167_11589" x1="33" y1="20" x2="33" y2="49" gradientUnits="userSpaceOnUse">
<stop stop-color="#8E59FF"/>
<stop offset="1" stop-color="#B998FF"/>
</linearGradient>
<linearGradient id="paint1_linear_167_11589" x1="33" y1="20" x2="33" y2="49" gradientUnits="userSpaceOnUse">
<stop stop-color="#8E59FF"/>
<stop offset="1" stop-color="#B998FF"/>
</linearGradient>
<linearGradient id="paint2_linear_167_11589" x1="21" y1="20" x2="21" y2="49" gradientUnits="userSpaceOnUse">
<stop stop-color="#8454E7"/>
<stop offset="1" stop-color="#8454E7" stop-opacity="0"/>
</linearGradient>
<linearGradient id="paint3_linear_167_11589" x1="37" y1="40" x2="57" y2="40" gradientUnits="userSpaceOnUse">
<stop stop-color="white"/>
<stop offset="0.5" stop-color="white" stop-opacity="0.71"/>
<stop offset="1" stop-color="white" stop-opacity="0"/>
</linearGradient>
</defs>
</svg>
