<svg width="76" height="82" viewBox="0 0 76 82" fill="none" xmlns="http://www.w3.org/2000/svg">
<g filter="url(#filter0_d_1_4784)">
<rect x="10" y="6" width="56" height="56" rx="12" fill="white"/>
</g>
<path fill-rule="evenodd" clip-rule="evenodd" d="M38.5 51C49.2696 51 58 43.3888 58 34C58 24.6112 49.2696 17 38.5 17C27.7304 17 19 24.6112 19 34C19 38.384 20.9035 42.3804 24.0293 45.3954L20.8425 49.9764C19.7065 51.6095 21.3921 53.7194 23.2357 52.972L31.1665 49.7568C33.4303 50.5584 35.906 51 38.5 51Z" fill="url(#paint0_linear_1_4784)"/>
<g filter="url(#filter1_bi_1_4784)">
<path fill-rule="evenodd" clip-rule="evenodd" d="M57.6793 37.1213C56.5077 35.9497 54.6082 35.9497 53.4367 37.1213L44.3208 46.2372L44.3208 46.2373L42.6853 47.8728L42.6853 52.4149C42.6853 53.5195 43.5807 54.4149 44.6853 54.4149H49.2274L51.6807 51.9616L51.6807 51.9615L59.9788 43.6635C61.1504 42.4919 61.1504 40.5924 59.9788 39.4208L57.6793 37.1213Z" fill="#72E492" fill-opacity="0.6"/>
</g>
<path d="M45.5603 44.9978L52.1024 51.5399L50.1337 53.5087L43.5916 46.9665L45.5603 44.9978Z" fill="url(#paint1_linear_1_4784)" fill-opacity="0.5"/>
<path d="M17.788 70.916V71.864H23.776V70.916H17.788ZM20.212 69.872V73.232H21.328V69.872H20.212ZM18.232 74.648C18.856 74.972 19.612 75.476 19.972 75.836L20.488 75.224C20.104 74.864 19.324 74.396 18.724 74.096L18.232 74.648ZM17.344 75.716C17.992 76.064 18.76 76.604 19.132 76.988L19.66 76.352C19.288 75.968 18.496 75.464 17.86 75.152L17.344 75.716ZM17.356 72.8V73.76H23.644V72.8H17.356ZM23.272 72.8V72.956C23.116 73.676 22.84 74.564 22.624 75.116L23.512 75.332C23.788 74.732 24.088 73.772 24.328 72.92L23.608 72.764L23.428 72.8H23.272ZM17.104 76.892V77.876H24.376V76.892H17.104ZM20.536 74.168V75.524C20.536 76.988 20.188 78.956 16.888 80.204C17.116 80.408 17.452 80.816 17.572 81.08C21.196 79.652 21.628 77.324 21.628 75.548V74.168H20.536ZM21.16 78.824C22.132 79.46 23.308 80.42 23.872 81.056L24.592 80.324C24.004 79.688 22.792 78.788 21.844 78.176L21.16 78.824ZM14.116 70.832C14.776 71.384 15.616 72.176 16.012 72.692L16.78 71.852C16.372 71.36 15.496 70.616 14.836 70.1L14.116 70.832ZM15.076 80.84C15.256 80.576 15.58 80.276 17.488 78.668C17.344 78.452 17.164 78.008 17.056 77.708L15.052 79.34L14.824 79.772L15.076 80.84ZM15.076 80.852C15.076 80.444 16.12 79.556 16.12 79.556V73.604H15.076V78.848C15.076 79.46 14.728 79.88 14.5 80.072C14.68 80.24 14.968 80.624 15.076 80.852ZM13.432 73.604V74.696H15.82V73.604H13.432ZM25.624 73.64V74.648H36.364V73.64H25.624ZM26.668 71.288V72.284H33.58V71.288H26.668ZM28.696 77.732V78.608H34.216V77.732H28.696ZM28.696 79.676V80.648H34.216V79.676H28.696ZM29.644 69.872V74.192H30.76V69.872H29.644ZM34.912 70.256C32.74 73.256 29.188 75.572 25.3 76.868C25.528 77.096 25.864 77.564 26.008 77.816C29.86 76.364 33.496 73.976 35.884 70.772L34.912 70.256ZM28.06 75.776V81.02H29.2V76.724H33.76V80.972H34.936V75.776H28.06ZM38.968 75.884V81.008H40.12V76.796H45.976V80.96H47.176V75.884H38.968ZM39.544 77.792V78.644H46.468V77.792H39.544ZM43 70.496V71.48H47.368V70.496H43ZM39.544 79.676V80.6H46.468V79.676H39.544ZM42.496 76.268V80.192H43.576V76.268H42.496ZM46.996 70.496V70.676C46.912 73.112 46.804 74.012 46.6 74.24C46.516 74.348 46.408 74.372 46.228 74.36C46.036 74.372 45.592 74.36 45.1 74.324C45.256 74.588 45.376 74.996 45.388 75.308C45.94 75.32 46.456 75.332 46.756 75.296C47.092 75.26 47.332 75.164 47.536 74.912C47.836 74.552 47.956 73.544 48.076 70.94C48.076 70.796 48.088 70.496 48.088 70.496H46.996ZM41.728 69.848C40.9 70.22 39.532 70.616 38.332 70.868C38.452 71.096 38.596 71.468 38.644 71.696C39.904 71.456 41.392 71.108 42.472 70.688L41.728 69.848ZM44.344 70.844C44.224 72.632 43.924 74.012 42.208 74.78C42.448 74.972 42.736 75.344 42.856 75.596C44.824 74.648 45.256 73.004 45.4 70.844H44.344ZM40.54 72.332C41.068 73.184 41.608 74.312 41.812 75.032L42.808 74.6C42.58 73.88 42.004 72.788 41.464 71.96L40.54 72.332ZM38.44 75.368C38.704 75.188 39.136 75.044 41.992 74.288C41.908 74.048 41.812 73.64 41.764 73.34L38.824 74.036L38.356 74.42L38.44 75.368ZM38.44 75.368C38.44 74.936 39.436 74.108 39.436 74.108V70.868H38.332V73.4C38.332 73.988 38.068 74.348 37.852 74.528C38.032 74.696 38.332 75.128 38.44 75.368ZM51.928 79.592V80.54H58.144V79.592H51.928ZM51.316 75.272V76.184H58.744V75.272H51.316ZM51.316 73.436V74.348H58.744V73.436H51.316ZM49.6 71.6V72.572H60.436V71.6H49.6ZM51.184 77.18V81.008H52.3V78.14H57.712V80.972H58.876V77.18H51.184ZM53.848 70.136C54.28 70.688 54.736 71.42 54.916 71.888L56.104 71.552C55.9 71.06 55.408 70.352 54.964 69.836L53.848 70.136Z" fill="#234B70"/>
<circle cx="30.5" cy="33.5" r="2.5" fill="white" fill-opacity="0.8"/>
<circle cx="39.5" cy="33.5" r="2.5" fill="white" fill-opacity="0.8"/>
<circle cx="48.5" cy="33.5" r="2.5" fill="white" fill-opacity="0.8"/>
<defs>
<filter id="filter0_d_1_4784" x="0" y="0" width="76" height="76" filterUnits="userSpaceOnUse" color-interpolation-filters="sRGB">
<feFlood flood-opacity="0" result="BackgroundImageFix"/>
<feColorMatrix in="SourceAlpha" type="matrix" values="0 0 0 0 0 0 0 0 0 0 0 0 0 0 0 0 0 0 127 0" result="hardAlpha"/>
<feOffset dy="4"/>
<feGaussianBlur stdDeviation="5"/>
<feComposite in2="hardAlpha" operator="out"/>
<feColorMatrix type="matrix" values="0 0 0 0 0.330556 0 0 0 0 0.716333 0 0 0 0 0.933333 0 0 0 0.15 0"/>
<feBlend mode="normal" in2="BackgroundImageFix" result="effect1_dropShadow_1_4784"/>
<feBlend mode="normal" in="SourceGraphic" in2="effect1_dropShadow_1_4784" result="shape"/>
</filter>
<filter id="filter1_bi_1_4784" x="38.6853" y="32.2427" width="26.1722" height="26.1722" filterUnits="userSpaceOnUse" color-interpolation-filters="sRGB">
<feFlood flood-opacity="0" result="BackgroundImageFix"/>
<feGaussianBlur in="BackgroundImageFix" stdDeviation="2"/>
<feComposite in2="SourceAlpha" operator="in" result="effect1_backgroundBlur_1_4784"/>
<feBlend mode="normal" in="SourceGraphic" in2="effect1_backgroundBlur_1_4784" result="shape"/>
<feColorMatrix in="SourceAlpha" type="matrix" values="0 0 0 0 0 0 0 0 0 0 0 0 0 0 0 0 0 0 127 0" result="hardAlpha"/>
<feOffset dy="1"/>
<feGaussianBlur stdDeviation="1"/>
<feComposite in2="hardAlpha" operator="arithmetic" k2="-1" k3="1"/>
<feColorMatrix type="matrix" values="0 0 0 0 1 0 0 0 0 1 0 0 0 0 1 0 0 0 0.35 0"/>
<feBlend mode="normal" in2="shape" result="effect2_innerShadow_1_4784"/>
</filter>
<linearGradient id="paint0_linear_1_4784" x1="38.5" y1="17.9916" x2="38.5" y2="52.1355" gradientUnits="userSpaceOnUse">
<stop stop-color="#0CB13A"/>
<stop offset="1" stop-color="#08C926" stop-opacity="0.65"/>
</linearGradient>
<linearGradient id="paint1_linear_1_4784" x1="43.6617" y1="45.8383" x2="51.1617" y2="53.3383" gradientUnits="userSpaceOnUse">
<stop stop-color="white" stop-opacity="0.25"/>
<stop offset="0.333333" stop-color="white"/>
<stop offset="0.666667" stop-color="white"/>
<stop offset="1" stop-color="white" stop-opacity="0.25"/>
</linearGradient>
</defs>
</svg>
