<svg width="76" height="76" viewBox="0 0 76 76" fill="none" xmlns="http://www.w3.org/2000/svg">
<g filter="url(#filter0_d_167_11651)">
<rect x="10" y="6" width="56" height="56" rx="12" fill="white"/>
</g>
<path d="M19 18C19 16.3431 20.3431 15 22 15H46C47.1046 15 48 15.8954 48 17V48H22C20.3431 48 19 46.6569 19 45V18Z" fill="url(#paint0_linear_167_11651)"/>
<rect x="19" y="18" width="4" height="30" fill="url(#paint1_linear_167_11651)"/>
<path fill-rule="evenodd" clip-rule="evenodd" d="M48 21H46C47.1046 21 48 21.8954 48 23V21Z" fill="#FCCB82"/>
<path d="M19 18C19 16.3431 20.3431 15 22 15H46C47.1046 15 48 15.8954 48 17V21H22C20.3431 21 19 19.6569 19 18Z" fill="#FCCB82"/>
<path d="M27 21H35V32L31 29.8462L27 32V21Z" fill="url(#paint2_linear_167_11651)"/>
<g filter="url(#filter1_bi_167_11651)">
<path d="M43 34C46.3137 34 49 35.6889 49 39.0078C49 35.6889 51.6863 34 55 34C58.3137 34 61 36.6905 61 40.0094C61 43.194 58.9491 46.9019 56.6562 48.9609C53.9375 51.4021 50.9688 53.2175 49.0001 54C47.0313 53.2175 44.0625 51.4021 41.3438 48.9609C39.0509 46.9019 37 43.194 37 40.0094C37 36.6905 39.6863 34 43 34Z" fill="#FFC164" fill-opacity="0.4"/>
</g>
<defs>
<filter id="filter0_d_167_11651" x="0" y="0" width="76" height="76" filterUnits="userSpaceOnUse" color-interpolation-filters="sRGB">
<feFlood flood-opacity="0" result="BackgroundImageFix"/>
<feColorMatrix in="SourceAlpha" type="matrix" values="0 0 0 0 0 0 0 0 0 0 0 0 0 0 0 0 0 0 127 0" result="hardAlpha"/>
<feOffset dy="4"/>
<feGaussianBlur stdDeviation="5"/>
<feComposite in2="hardAlpha" operator="out"/>
<feColorMatrix type="matrix" values="0 0 0 0 0.330556 0 0 0 0 0.716333 0 0 0 0 0.933333 0 0 0 0.15 0"/>
<feBlend mode="normal" in2="BackgroundImageFix" result="effect1_dropShadow_167_11651"/>
<feBlend mode="normal" in="SourceGraphic" in2="effect1_dropShadow_167_11651" result="shape"/>
</filter>
<filter id="filter1_bi_167_11651" x="33" y="30" width="32" height="28" filterUnits="userSpaceOnUse" color-interpolation-filters="sRGB">
<feFlood flood-opacity="0" result="BackgroundImageFix"/>
<feGaussianBlur in="BackgroundImageFix" stdDeviation="2"/>
<feComposite in2="SourceAlpha" operator="in" result="effect1_backgroundBlur_167_11651"/>
<feBlend mode="normal" in="SourceGraphic" in2="effect1_backgroundBlur_167_11651" result="shape"/>
<feColorMatrix in="SourceAlpha" type="matrix" values="0 0 0 0 0 0 0 0 0 0 0 0 0 0 0 0 0 0 127 0" result="hardAlpha"/>
<feOffset dy="1"/>
<feGaussianBlur stdDeviation="1"/>
<feComposite in2="hardAlpha" operator="arithmetic" k2="-1" k3="1"/>
<feColorMatrix type="matrix" values="0 0 0 0 1 0 0 0 0 1 0 0 0 0 1 0 0 0 0.55 0"/>
<feBlend mode="normal" in2="shape" result="effect2_innerShadow_167_11651"/>
</filter>
<linearGradient id="paint0_linear_167_11651" x1="31.1613" y1="13.9687" x2="30.0796" y2="48.9978" gradientUnits="userSpaceOnUse">
<stop stop-color="#F2AD46"/>
<stop offset="1" stop-color="#FFD28E"/>
</linearGradient>
<linearGradient id="paint1_linear_167_11651" x1="21" y1="18" x2="21" y2="54.9231" gradientUnits="userSpaceOnUse">
<stop stop-color="#F19B1C"/>
<stop offset="0.666667" stop-color="#F19B1C" stop-opacity="0"/>
</linearGradient>
<linearGradient id="paint2_linear_167_11651" x1="31" y1="21" x2="31" y2="38.2308" gradientUnits="userSpaceOnUse">
<stop stop-color="#F19B1C"/>
<stop offset="1" stop-color="#F19B1C" stop-opacity="0"/>
</linearGradient>
</defs>
</svg>
