<svg width="76" height="76" viewBox="0 0 76 76" fill="none" xmlns="http://www.w3.org/2000/svg">
<g filter="url(#filter0_d_167_11638)">
<rect x="10" y="6" width="56" height="56" rx="12" fill="white"/>
</g>
<rect x="20" y="14" width="36" height="24" rx="4" fill="#D4C9FF" fill-opacity="0.4"/>
<rect x="17" y="18" width="42" height="29" rx="4" fill="url(#paint0_linear_167_11638)"/>
<rect x="48" y="21" width="3" height="3" rx="1.5" fill="white" fill-opacity="0.6"/>
<rect x="53" y="21" width="3" height="3" rx="1.5" fill="white" fill-opacity="0.6"/>
<rect x="20" y="21" width="25" height="3" rx="1.5" fill="white" fill-opacity="0.6"/>
<rect x="20" y="27" width="36" height="16" rx="2" fill="url(#paint1_linear_167_11638)"/>
<g filter="url(#filter1_bi_167_11638)">
<path fill-rule="evenodd" clip-rule="evenodd" d="M35.7504 33.3105C34.6846 32.9618 33.6745 33.9719 34.0232 35.0377L39.83 52.7852C40.1476 53.7558 41.3775 54.0497 42.0997 53.3276L45.6494 49.7779L49.9428 54.0712C51.1143 55.2428 53.0138 55.2428 54.1854 54.0712L54.784 53.4727C55.9556 52.3011 55.9556 50.4016 54.784 49.23L50.4906 44.9366L54.0403 41.387C54.7624 40.6648 54.4685 39.4349 53.4979 39.1173L35.7504 33.3105Z" fill="#C7B1F5" fill-opacity="0.4"/>
</g>
<defs>
<filter id="filter0_d_167_11638" x="0" y="0" width="76" height="76" filterUnits="userSpaceOnUse" color-interpolation-filters="sRGB">
<feFlood flood-opacity="0" result="BackgroundImageFix"/>
<feColorMatrix in="SourceAlpha" type="matrix" values="0 0 0 0 0 0 0 0 0 0 0 0 0 0 0 0 0 0 127 0" result="hardAlpha"/>
<feOffset dy="4"/>
<feGaussianBlur stdDeviation="5"/>
<feComposite in2="hardAlpha" operator="out"/>
<feColorMatrix type="matrix" values="0 0 0 0 0.330556 0 0 0 0 0.716333 0 0 0 0 0.933333 0 0 0 0.15 0"/>
<feBlend mode="normal" in2="BackgroundImageFix" result="effect1_dropShadow_167_11638"/>
<feBlend mode="normal" in="SourceGraphic" in2="effect1_dropShadow_167_11638" result="shape"/>
</filter>
<filter id="filter1_bi_167_11638" x="29.9531" y="29.2402" width="29.7095" height="29.7097" filterUnits="userSpaceOnUse" color-interpolation-filters="sRGB">
<feFlood flood-opacity="0" result="BackgroundImageFix"/>
<feGaussianBlur in="BackgroundImageFix" stdDeviation="2"/>
<feComposite in2="SourceAlpha" operator="in" result="effect1_backgroundBlur_167_11638"/>
<feBlend mode="normal" in="SourceGraphic" in2="effect1_backgroundBlur_167_11638" result="shape"/>
<feColorMatrix in="SourceAlpha" type="matrix" values="0 0 0 0 0 0 0 0 0 0 0 0 0 0 0 0 0 0 127 0" result="hardAlpha"/>
<feOffset dy="1"/>
<feGaussianBlur stdDeviation="1"/>
<feComposite in2="hardAlpha" operator="arithmetic" k2="-1" k3="1"/>
<feColorMatrix type="matrix" values="0 0 0 0 1 0 0 0 0 1 0 0 0 0 1 0 0 0 0.35 0"/>
<feBlend mode="normal" in2="shape" result="effect2_innerShadow_167_11638"/>
</filter>
<linearGradient id="paint0_linear_167_11638" x1="38" y1="18" x2="38" y2="47" gradientUnits="userSpaceOnUse">
<stop stop-color="#8E59FF"/>
<stop offset="1" stop-color="#B998FF"/>
</linearGradient>
<linearGradient id="paint1_linear_167_11638" x1="38" y1="27" x2="38" y2="43" gradientUnits="userSpaceOnUse">
<stop stop-color="#BE9EFF" stop-opacity="0.6"/>
<stop offset="1" stop-color="#BE9EFF" stop-opacity="0.3"/>
</linearGradient>
</defs>
</svg>
