<svg width="76" height="82" viewBox="0 0 76 82" fill="none" xmlns="http://www.w3.org/2000/svg">
<g filter="url(#filter0_d_1_4825)">
<rect x="10" y="6" width="56" height="56" rx="12" fill="white"/>
</g>
<path d="M19 18C19 16.3431 20.3431 15 22 15H46C47.1046 15 48 15.8954 48 17V48H22C20.3431 48 19 46.6569 19 45V18Z" fill="url(#paint0_linear_1_4825)"/>
<rect x="19" y="18" width="4" height="30" fill="url(#paint1_linear_1_4825)"/>
<path fill-rule="evenodd" clip-rule="evenodd" d="M48 21H46C47.1046 21 48 21.8954 48 23V21Z" fill="#FCCB82"/>
<path d="M19 18C19 16.3431 20.3431 15 22 15H46C47.1046 15 48 15.8954 48 17V21H22C20.3431 21 19 19.6569 19 18Z" fill="#FCCB82"/>
<path d="M27 21H35V32L31 29.8462L27 32V21Z" fill="url(#paint2_linear_1_4825)"/>
<g filter="url(#filter1_bi_1_4825)">
<path d="M43 34C46.3137 34 49 35.6889 49 39.0078C49 35.6889 51.6863 34 55 34C58.3137 34 61 36.6905 61 40.0094C61 43.194 58.9491 46.9019 56.6562 48.9609C53.9375 51.4021 50.9688 53.2175 49.0001 54C47.0313 53.2175 44.0625 51.4021 41.3438 48.9609C39.0509 46.9019 37 43.194 37 40.0094C37 36.6905 39.6863 34 43 34Z" fill="#FFC164" fill-opacity="0.4"/>
</g>
<path d="M21.448 70.784C22.12 71.396 22.912 72.248 23.248 72.824L24.172 72.176C23.8 71.612 22.984 70.784 22.3 70.196L21.448 70.784ZM13.636 73.364V74.444H24.376V73.364H13.636ZM13.432 76.832L13.732 77.972C15.268 77.648 17.368 77.192 19.324 76.748L19.24 75.728C17.14 76.148 14.86 76.592 13.432 76.832ZM16.072 71.204V79.616C16.072 79.82 16 79.88 15.796 79.88C15.58 79.892 14.872 79.904 14.14 79.868C14.308 80.192 14.5 80.708 14.548 81.02C15.544 81.02 16.216 80.984 16.636 80.804C17.068 80.624 17.212 80.3 17.212 79.628V71.204H16.072ZM18.436 69.992C17.248 70.412 15.328 70.808 13.648 71.048C13.78 71.312 13.924 71.732 13.984 71.996C15.712 71.78 17.752 71.432 19.216 70.952L18.436 69.992ZM19.624 69.968C19.672 75.548 20.68 81.056 23.092 81.056C24.076 81.056 24.46 80.492 24.652 78.452C24.34 78.332 23.944 78.068 23.704 77.804C23.632 79.304 23.488 79.904 23.2 79.904C21.892 79.904 20.764 75.188 20.812 69.968H19.624ZM22.888 74.924C21.808 76.94 19.852 78.692 17.74 79.688C18.028 79.94 18.352 80.312 18.52 80.588C20.716 79.436 22.684 77.564 23.884 75.356L22.888 74.924ZM26.632 71.816V72.812H29.26V78.752H26.632V79.76H30.292V71.816H26.632ZM25.96 71.816V80.684H27.004V71.816H25.96ZM26.572 75.092V76.088H29.776V75.092H26.572ZM27.748 69.86C27.664 70.496 27.46 71.408 27.268 72.008L28.18 72.224C28.42 71.672 28.72 70.832 28.972 70.052L27.748 69.86ZM31.948 71.756V72.8H35.56V71.756H31.948ZM35.164 71.756V71.984C35.02 77.144 34.84 79.172 34.444 79.592C34.312 79.76 34.168 79.796 33.928 79.796C33.64 79.796 32.92 79.784 32.14 79.724C32.344 80.024 32.488 80.504 32.512 80.828C33.196 80.852 33.916 80.876 34.348 80.828C34.804 80.768 35.104 80.648 35.392 80.252C35.884 79.64 36.04 77.756 36.208 72.296C36.22 72.152 36.22 71.756 36.22 71.756H35.164ZM32.104 69.848C31.72 71.48 31.06 73.124 30.244 74.168C30.508 74.312 30.976 74.636 31.18 74.816C31.996 73.676 32.74 71.888 33.196 70.1L32.104 69.848ZM31.54 75.02C32.164 75.896 32.944 77.084 33.292 77.816L34.264 77.228C33.88 76.52 33.064 75.356 32.428 74.516L31.54 75.02ZM43.624 72.164V73.244H48.532V72.164H43.624ZM43.912 69.872C43.588 71.936 42.964 73.868 41.944 75.068C42.196 75.296 42.592 75.8 42.748 76.04C43.912 74.624 44.668 72.428 45.076 70.064L43.912 69.872ZM46.66 72.728C46.132 76.376 44.908 78.788 42.172 80.108C42.412 80.336 42.772 80.804 42.904 81.044C45.772 79.484 47.128 76.868 47.776 72.884L46.66 72.728ZM44.068 73.112L43.144 73.316C43.948 76.748 45.376 79.58 47.848 80.96C48.016 80.672 48.376 80.252 48.628 80.036C46.252 78.86 44.788 76.172 44.068 73.112ZM40.804 70.052V81.02H41.932V70.052H40.804ZM38.104 78.932C38.392 78.716 38.824 78.488 41.62 77.516C41.524 77.276 41.392 76.844 41.32 76.544L38.452 77.444L37.984 77.864L38.104 78.932ZM38.104 78.932C38.104 78.536 39.208 77.972 39.208 77.972V71.192H38.092V77.06C38.092 77.54 37.852 77.78 37.66 77.9C37.828 78.14 38.032 78.656 38.104 78.932ZM49.684 70.664V71.612H60.328V70.664H49.684ZM52.144 72.788V73.76H60.448V72.788H52.144ZM50.404 74.84V75.764H52.024V74.84H50.404ZM49.432 76.628V77.576H51.976V76.628H49.432ZM53.5 78.932V79.676H56.752V78.932H53.5ZM52.444 69.872V72.356H53.572V69.872H52.444ZM56.38 69.872V72.38H57.508V69.872H56.38ZM54.784 74.804V76.208H55.564V74.804H54.784ZM49.948 72.884V76.076H50.8V72.884H49.948ZM54.784 77.804V79.232H55.564V77.804H54.784ZM53.596 75.848V76.556H55.864V77.456H53.596V78.164H56.668V75.848H53.596ZM53.116 74.384V80.372H53.932V75.128H56.656V74.384H53.116ZM51.64 72.788V76.232C51.64 77.576 51.58 79.328 50.908 80.576C51.148 80.66 51.58 80.888 51.76 81.044C52.48 79.724 52.588 77.72 52.588 76.244V72.788H51.64ZM56.788 72.044C56.932 77.672 57.796 81.032 59.404 81.032C60.184 81.032 60.52 80.708 60.664 79.016C60.424 78.932 60.1 78.716 59.896 78.512C59.836 79.688 59.716 80.024 59.488 80.036C58.732 80.036 57.832 77.336 57.808 72.044H56.788ZM58.312 72.14C58.72 72.404 59.176 72.8 59.392 73.088L60.1 72.536C59.872 72.248 59.392 71.876 58.984 71.636L58.312 72.14ZM58.936 74.372C58.42 77.024 57.34 79.112 55.516 80.36C55.756 80.504 56.176 80.864 56.344 81.044C58.168 79.64 59.332 77.432 59.944 74.54L58.936 74.372ZM50.056 76.976V77.984C50.056 78.704 49.96 79.796 49.336 80.552C49.528 80.66 49.852 80.876 50.008 81.02C50.764 80.156 50.884 78.86 50.884 78.008V76.976H50.056Z" fill="#234B70"/>
<defs>
<filter id="filter0_d_1_4825" x="0" y="0" width="76" height="76" filterUnits="userSpaceOnUse" color-interpolation-filters="sRGB">
<feFlood flood-opacity="0" result="BackgroundImageFix"/>
<feColorMatrix in="SourceAlpha" type="matrix" values="0 0 0 0 0 0 0 0 0 0 0 0 0 0 0 0 0 0 127 0" result="hardAlpha"/>
<feOffset dy="4"/>
<feGaussianBlur stdDeviation="5"/>
<feComposite in2="hardAlpha" operator="out"/>
<feColorMatrix type="matrix" values="0 0 0 0 0.330556 0 0 0 0 0.716333 0 0 0 0 0.933333 0 0 0 0.15 0"/>
<feBlend mode="normal" in2="BackgroundImageFix" result="effect1_dropShadow_1_4825"/>
<feBlend mode="normal" in="SourceGraphic" in2="effect1_dropShadow_1_4825" result="shape"/>
</filter>
<filter id="filter1_bi_1_4825" x="33" y="30" width="32" height="28" filterUnits="userSpaceOnUse" color-interpolation-filters="sRGB">
<feFlood flood-opacity="0" result="BackgroundImageFix"/>
<feGaussianBlur in="BackgroundImageFix" stdDeviation="2"/>
<feComposite in2="SourceAlpha" operator="in" result="effect1_backgroundBlur_1_4825"/>
<feBlend mode="normal" in="SourceGraphic" in2="effect1_backgroundBlur_1_4825" result="shape"/>
<feColorMatrix in="SourceAlpha" type="matrix" values="0 0 0 0 0 0 0 0 0 0 0 0 0 0 0 0 0 0 127 0" result="hardAlpha"/>
<feOffset dy="1"/>
<feGaussianBlur stdDeviation="1"/>
<feComposite in2="hardAlpha" operator="arithmetic" k2="-1" k3="1"/>
<feColorMatrix type="matrix" values="0 0 0 0 1 0 0 0 0 1 0 0 0 0 1 0 0 0 0.55 0"/>
<feBlend mode="normal" in2="shape" result="effect2_innerShadow_1_4825"/>
</filter>
<linearGradient id="paint0_linear_1_4825" x1="31.1613" y1="13.9687" x2="30.0796" y2="48.9978" gradientUnits="userSpaceOnUse">
<stop stop-color="#F2AD46"/>
<stop offset="1" stop-color="#FFD28E"/>
</linearGradient>
<linearGradient id="paint1_linear_1_4825" x1="21" y1="18" x2="21" y2="54.9231" gradientUnits="userSpaceOnUse">
<stop stop-color="#F19B1C"/>
<stop offset="0.666667" stop-color="#F19B1C" stop-opacity="0"/>
</linearGradient>
<linearGradient id="paint2_linear_1_4825" x1="31" y1="21" x2="31" y2="38.2308" gradientUnits="userSpaceOnUse">
<stop stop-color="#F19B1C"/>
<stop offset="1" stop-color="#F19B1C" stop-opacity="0"/>
</linearGradient>
</defs>
</svg>
