<svg width="76" height="76" viewBox="0 0 76 76" fill="none" xmlns="http://www.w3.org/2000/svg">
<g filter="url(#filter0_d_167_11544)">
<rect x="10" y="6" width="56" height="56" rx="12" fill="white"/>
</g>
<path d="M24.5625 21.6485C24.5625 18.4191 28.192 16.5209 30.8444 18.3632L38 23.3333V50L26.2806 41.86C25.2044 41.1125 24.5625 39.8852 24.5625 38.5748V21.6485Z" fill="#DBE7FF"/>
<path d="M51.4375 21.6485C51.4375 18.4191 47.808 16.5209 45.1556 18.3632L38 23.3333V50L49.7194 41.86C50.7956 41.1125 51.4375 39.8852 51.4375 38.5748V21.6485Z" fill="#DBE7FF"/>
<path d="M18 23.2064C18 20.5783 20.4913 18.6643 23.0307 19.3415L38 23.3333V50L20.9693 45.4585C19.2183 44.9916 18 43.4058 18 41.5936V23.2064Z" fill="url(#paint0_linear_167_11544)"/>
<path d="M38 23.3333L52.9694 19.3415C55.5087 18.6643 58 20.5783 58 23.2064V44.6667L38 50V23.3333Z" fill="url(#paint1_linear_167_11544)"/>
<g filter="url(#filter1_bi_167_11544)">
<path fill-rule="evenodd" clip-rule="evenodd" d="M57 50.7124C59.4022 49.2105 61 46.5419 61 43.5C61 38.8056 57.1944 35 52.5 35C47.8056 35 44 38.8056 44 43.5C44 46.5419 45.5978 49.2105 48 50.7124V54.1958C48 54.9812 48.864 55.46 49.53 55.0438L52.5 53.1875L55.47 55.0438C56.136 55.46 57 54.9812 57 54.1958V50.7124Z" fill="#BED0FF" fill-opacity="0.4"/>
</g>
<circle cx="52.5" cy="43.5" r="4.5" fill="url(#paint2_linear_167_11544)" fill-opacity="0.6"/>
<path d="M35 22.5391L38 23.3359L41 22.5391V49.2109L38 50L35 49.2109V22.5391Z" fill="url(#paint3_linear_167_11544)"/>
<defs>
<filter id="filter0_d_167_11544" x="0" y="0" width="76" height="76" filterUnits="userSpaceOnUse" color-interpolation-filters="sRGB">
<feFlood flood-opacity="0" result="BackgroundImageFix"/>
<feColorMatrix in="SourceAlpha" type="matrix" values="0 0 0 0 0 0 0 0 0 0 0 0 0 0 0 0 0 0 127 0" result="hardAlpha"/>
<feOffset dy="4"/>
<feGaussianBlur stdDeviation="5"/>
<feComposite in2="hardAlpha" operator="out"/>
<feColorMatrix type="matrix" values="0 0 0 0 0.330556 0 0 0 0 0.716333 0 0 0 0 0.933333 0 0 0 0.15 0"/>
<feBlend mode="normal" in2="BackgroundImageFix" result="effect1_dropShadow_167_11544"/>
<feBlend mode="normal" in="SourceGraphic" in2="effect1_dropShadow_167_11544" result="shape"/>
</filter>
<filter id="filter1_bi_167_11544" x="40" y="31" width="25" height="28.1973" filterUnits="userSpaceOnUse" color-interpolation-filters="sRGB">
<feFlood flood-opacity="0" result="BackgroundImageFix"/>
<feGaussianBlur in="BackgroundImageFix" stdDeviation="2"/>
<feComposite in2="SourceAlpha" operator="in" result="effect1_backgroundBlur_167_11544"/>
<feBlend mode="normal" in="SourceGraphic" in2="effect1_backgroundBlur_167_11544" result="shape"/>
<feColorMatrix in="SourceAlpha" type="matrix" values="0 0 0 0 0 0 0 0 0 0 0 0 0 0 0 0 0 0 127 0" result="hardAlpha"/>
<feOffset dy="1"/>
<feGaussianBlur stdDeviation="1"/>
<feComposite in2="hardAlpha" operator="arithmetic" k2="-1" k3="1"/>
<feColorMatrix type="matrix" values="0 0 0 0 1 0 0 0 0 1 0 0 0 0 1 0 0 0 0.35 0"/>
<feBlend mode="normal" in2="shape" result="effect2_innerShadow_167_11544"/>
</filter>
<linearGradient id="paint0_linear_167_11544" x1="28" y1="18" x2="28" y2="50" gradientUnits="userSpaceOnUse">
<stop stop-color="#366EFF"/>
<stop offset="1" stop-color="#7BB0FF"/>
</linearGradient>
<linearGradient id="paint1_linear_167_11544" x1="48" y1="18" x2="48" y2="50" gradientUnits="userSpaceOnUse">
<stop stop-color="#366EFF"/>
<stop offset="1" stop-color="#7BB0FF"/>
</linearGradient>
<linearGradient id="paint2_linear_167_11544" x1="52.5" y1="39" x2="52.5" y2="48" gradientUnits="userSpaceOnUse">
<stop stop-color="white" stop-opacity="0.7"/>
<stop offset="1" stop-color="white" stop-opacity="0.2"/>
</linearGradient>
<linearGradient id="paint3_linear_167_11544" x1="38" y1="22.5391" x2="38" y2="50" gradientUnits="userSpaceOnUse">
<stop stop-color="#4876EB"/>
<stop offset="1" stop-color="#4880EB" stop-opacity="0"/>
</linearGradient>
</defs>
</svg>
