<svg width="76" height="76" viewBox="0 0 76 76" fill="none" xmlns="http://www.w3.org/2000/svg">
<g filter="url(#filter0_d_167_11559)">
<rect x="10" y="6" width="56" height="56" rx="12" fill="white"/>
</g>
<path fill-rule="evenodd" clip-rule="evenodd" d="M32 20C29.7909 20 28 21.7909 28 24V33H21C18.7909 33 17 34.7909 17 37V45C17 47.2091 18.7909 49 21 49H55C57.2091 49 59 47.2091 59 45V37C59 34.7909 57.2091 33 55 33H48V24C48 21.7909 46.2091 20 44 20H32Z" fill="url(#paint0_linear_167_11559)"/>
<path d="M17 37C17 34.7909 18.7909 33 21 33H28V37C28 39.2091 26.2091 41 24 41H17V37Z" fill="url(#paint1_linear_167_11559)"/>
<path d="M59 37C59 34.7909 57.2091 33 55 33H48V37C48 39.2091 49.7909 41 52 41H59V37Z" fill="url(#paint2_linear_167_11559)"/>
<g filter="url(#filter1_bi_167_11559)">
<path fill-rule="evenodd" clip-rule="evenodd" d="M54.6405 34.4888C54.0935 34.1082 53.4087 34.552 53.2536 35.2C53.0939 35.8667 52.8108 36.6921 52.3104 37.4428C51.454 38.7273 49.2128 40.201 48.3477 40.7409C47.0045 41.0387 46 42.2369 46 43.6697V50.3013C46 51.9582 47.3431 53.3013 49 53.3013H57C59.2091 53.3013 61 51.5105 61 49.3013V44.6697C61 42.4606 59.2091 40.6697 57 40.6697H55.1975C55.5028 40.2242 56.0439 39.3042 56.1273 38.2798C56.2419 36.8717 56.0214 36.4362 55.5334 35.4721C55.5224 35.4504 55.5113 35.4285 55.5 35.4062C55.3104 35.0314 54.9805 34.7254 54.6405 34.4888Z" fill="#FFC164" fill-opacity="0.4"/>
</g>
<path fill-rule="evenodd" clip-rule="evenodd" d="M36.5 25C35.6716 25 35 25.6716 35 26.5C35 27.3284 35.6716 28 36.5 28H37V35.5C37 36.3284 37.6716 37 38.5 37C39.3284 37 40 36.3284 40 35.5V26.5C40 25.6716 39.3284 25 38.5 25H36.5Z" fill="url(#paint3_linear_167_11559)" fill-opacity="0.6"/>
<defs>
<filter id="filter0_d_167_11559" x="0" y="0" width="76" height="76" filterUnits="userSpaceOnUse" color-interpolation-filters="sRGB">
<feFlood flood-opacity="0" result="BackgroundImageFix"/>
<feColorMatrix in="SourceAlpha" type="matrix" values="0 0 0 0 0 0 0 0 0 0 0 0 0 0 0 0 0 0 127 0" result="hardAlpha"/>
<feOffset dy="4"/>
<feGaussianBlur stdDeviation="5"/>
<feComposite in2="hardAlpha" operator="out"/>
<feColorMatrix type="matrix" values="0 0 0 0 0.330556 0 0 0 0 0.716333 0 0 0 0 0.933333 0 0 0 0.15 0"/>
<feBlend mode="normal" in2="BackgroundImageFix" result="effect1_dropShadow_167_11559"/>
<feBlend mode="normal" in="SourceGraphic" in2="effect1_dropShadow_167_11559" result="shape"/>
</filter>
<filter id="filter1_bi_167_11559" x="42" y="30.3481" width="23" height="26.9531" filterUnits="userSpaceOnUse" color-interpolation-filters="sRGB">
<feFlood flood-opacity="0" result="BackgroundImageFix"/>
<feGaussianBlur in="BackgroundImageFix" stdDeviation="2"/>
<feComposite in2="SourceAlpha" operator="in" result="effect1_backgroundBlur_167_11559"/>
<feBlend mode="normal" in="SourceGraphic" in2="effect1_backgroundBlur_167_11559" result="shape"/>
<feColorMatrix in="SourceAlpha" type="matrix" values="0 0 0 0 0 0 0 0 0 0 0 0 0 0 0 0 0 0 127 0" result="hardAlpha"/>
<feOffset dy="1"/>
<feGaussianBlur stdDeviation="1"/>
<feComposite in2="hardAlpha" operator="arithmetic" k2="-1" k3="1"/>
<feColorMatrix type="matrix" values="0 0 0 0 1 0 0 0 0 1 0 0 0 0 1 0 0 0 0.55 0"/>
<feBlend mode="normal" in2="shape" result="effect2_innerShadow_167_11559"/>
</filter>
<linearGradient id="paint0_linear_167_11559" x1="38" y1="20" x2="38" y2="49" gradientUnits="userSpaceOnUse">
<stop stop-color="#F2AD46"/>
<stop offset="1" stop-color="#FFD28E"/>
</linearGradient>
<linearGradient id="paint1_linear_167_11559" x1="22" y1="30.25" x2="26.0138" y2="43.9489" gradientUnits="userSpaceOnUse">
<stop stop-color="#F2A32E"/>
<stop offset="1" stop-color="#F2A32E" stop-opacity="0"/>
</linearGradient>
<linearGradient id="paint2_linear_167_11559" x1="54" y1="30.25" x2="49.9862" y2="43.9489" gradientUnits="userSpaceOnUse">
<stop stop-color="#F2A32E"/>
<stop offset="1" stop-color="#F2A32E" stop-opacity="0"/>
</linearGradient>
<linearGradient id="paint3_linear_167_11559" x1="37.5" y1="25" x2="37.5" y2="37" gradientUnits="userSpaceOnUse">
<stop stop-color="white"/>
<stop offset="1" stop-color="white" stop-opacity="0.4"/>
</linearGradient>
</defs>
</svg>
