<svg width="76" height="76" viewBox="0 0 76 76" fill="none" xmlns="http://www.w3.org/2000/svg">
<g filter="url(#filter0_d_167_11577)">
<rect x="10" y="6" width="56" height="56" rx="12" fill="white"/>
</g>
<rect x="17" y="19" width="42" height="30" rx="4" fill="url(#paint0_linear_167_11577)"/>
<path fill-rule="evenodd" clip-rule="evenodd" d="M29.05 35.4536C31.3844 35.4536 33.2768 33.5612 33.2768 31.2268C33.2768 28.8924 31.3844 27 29.05 27C26.7156 27 24.8232 28.8924 24.8232 31.2268C24.8232 33.5612 26.7156 35.4536 29.05 35.4536ZM23.7426 44.4081C22.4054 44.4081 21.4448 43.1093 22.0911 41.9387C23.7138 38.9998 26.4268 37.0738 29.4996 37.0738C32.5725 37.0738 35.2855 38.9998 36.9082 41.9387C37.5545 43.1093 36.5939 44.4081 35.2567 44.4081H23.7426Z" fill="url(#paint1_linear_167_11577)" fill-opacity="0.8"/>
<g filter="url(#filter1_bi_167_11577)">
<circle cx="50.4736" cy="45" r="11" fill="#72E492" fill-opacity="0.6"/>
</g>
<path d="M54.4677 48.7812C53.4652 49.8397 52.0465 50.5 50.4736 50.5C47.4361 50.5 44.9736 48.0376 44.9736 45C44.9736 41.9624 47.4361 39.5 50.4736 39.5C53.5112 39.5 55.9736 41.9624 55.9736 45H46.3486" stroke="white" stroke-opacity="0.5" stroke-width="3" stroke-linecap="round" stroke-linejoin="round"/>
<rect x="34" y="22" width="8" height="2" rx="1" fill="white" fill-opacity="0.4"/>
<defs>
<filter id="filter0_d_167_11577" x="0" y="0" width="76" height="76" filterUnits="userSpaceOnUse" color-interpolation-filters="sRGB">
<feFlood flood-opacity="0" result="BackgroundImageFix"/>
<feColorMatrix in="SourceAlpha" type="matrix" values="0 0 0 0 0 0 0 0 0 0 0 0 0 0 0 0 0 0 127 0" result="hardAlpha"/>
<feOffset dy="4"/>
<feGaussianBlur stdDeviation="5"/>
<feComposite in2="hardAlpha" operator="out"/>
<feColorMatrix type="matrix" values="0 0 0 0 0.330556 0 0 0 0 0.716333 0 0 0 0 0.933333 0 0 0 0.15 0"/>
<feBlend mode="normal" in2="BackgroundImageFix" result="effect1_dropShadow_167_11577"/>
<feBlend mode="normal" in="SourceGraphic" in2="effect1_dropShadow_167_11577" result="shape"/>
</filter>
<filter id="filter1_bi_167_11577" x="35.4736" y="30" width="30" height="30" filterUnits="userSpaceOnUse" color-interpolation-filters="sRGB">
<feFlood flood-opacity="0" result="BackgroundImageFix"/>
<feGaussianBlur in="BackgroundImageFix" stdDeviation="2"/>
<feComposite in2="SourceAlpha" operator="in" result="effect1_backgroundBlur_167_11577"/>
<feBlend mode="normal" in="SourceGraphic" in2="effect1_backgroundBlur_167_11577" result="shape"/>
<feColorMatrix in="SourceAlpha" type="matrix" values="0 0 0 0 0 0 0 0 0 0 0 0 0 0 0 0 0 0 127 0" result="hardAlpha"/>
<feOffset dy="1"/>
<feGaussianBlur stdDeviation="1"/>
<feComposite in2="hardAlpha" operator="arithmetic" k2="-1" k3="1"/>
<feColorMatrix type="matrix" values="0 0 0 0 1 0 0 0 0 1 0 0 0 0 1 0 0 0 0.35 0"/>
<feBlend mode="normal" in2="shape" result="effect2_innerShadow_167_11577"/>
</filter>
<linearGradient id="paint0_linear_167_11577" x1="38" y1="19.8234" x2="38" y2="48.1766" gradientUnits="userSpaceOnUse">
<stop stop-color="#0CB13A"/>
<stop offset="1" stop-color="#08C926" stop-opacity="0.65"/>
</linearGradient>
<linearGradient id="paint1_linear_167_11577" x1="29.4996" y1="22.5816" x2="29.4996" y2="51.4038" gradientUnits="userSpaceOnUse">
<stop stop-color="white"/>
<stop offset="1" stop-color="white" stop-opacity="0"/>
</linearGradient>
</defs>
</svg>
