<svg width="76" height="82" viewBox="0 0 76 82" fill="none" xmlns="http://www.w3.org/2000/svg">
<g filter="url(#filter0_d_1_4733)">
<rect x="10" y="6" width="56" height="56" rx="12" fill="white"/>
</g>
<path fill-rule="evenodd" clip-rule="evenodd" d="M32 20C29.7909 20 28 21.7909 28 24V33H21C18.7909 33 17 34.7909 17 37V45C17 47.2091 18.7909 49 21 49H55C57.2091 49 59 47.2091 59 45V37C59 34.7909 57.2091 33 55 33H48V24C48 21.7909 46.2091 20 44 20H32Z" fill="url(#paint0_linear_1_4733)"/>
<path d="M17 37C17 34.7909 18.7909 33 21 33H28V37C28 39.2091 26.2091 41 24 41H17V37Z" fill="url(#paint1_linear_1_4733)"/>
<path d="M59 37C59 34.7909 57.2091 33 55 33H48V37C48 39.2091 49.7909 41 52 41H59V37Z" fill="url(#paint2_linear_1_4733)"/>
<g filter="url(#filter1_bi_1_4733)">
<path fill-rule="evenodd" clip-rule="evenodd" d="M54.6405 34.4888C54.0935 34.1082 53.4087 34.552 53.2536 35.2C53.0939 35.8666 52.8108 36.6921 52.3104 37.4428C51.454 38.7273 49.2128 40.201 48.3477 40.7408C47.0045 41.0387 46 42.2369 46 43.6697V50.3013C46 51.9582 47.3431 53.3013 49 53.3013H57C59.2091 53.3013 61 51.5105 61 49.3013V44.6697C61 42.4606 59.2091 40.6697 57 40.6697H55.1975C55.5028 40.2242 56.0439 39.3042 56.1273 38.2798C56.2419 36.8717 56.0214 36.4362 55.5334 35.4721C55.5224 35.4504 55.5113 35.4285 55.5 35.4062C55.3104 35.0314 54.9805 34.7254 54.6405 34.4888Z" fill="#FFC164" fill-opacity="0.4"/>
</g>
<path fill-rule="evenodd" clip-rule="evenodd" d="M36.5 25C35.6716 25 35 25.6716 35 26.5C35 27.3284 35.6716 28 36.5 28H37V35.5C37 36.3284 37.6716 37 38.5 37C39.3284 37 40 36.3284 40 35.5V26.5C40 25.6716 39.3284 25 38.5 25H36.5Z" fill="url(#paint3_linear_1_4733)" fill-opacity="0.6"/>
<path d="M10.948 71.336V72.32H18.268V71.336H10.948ZM10.48 73.748V74.78H18.64V73.748H10.48ZM12.472 69.98V74.312H13.576V69.98H12.472ZM15.532 69.98V74.312H16.66V69.98H15.532ZM11.68 75.62V81.056H12.772V76.568H16.516V81.008H17.656V75.62H11.68ZM12.22 77.636V78.512H17.056V77.636H12.22ZM12.22 79.628V80.564H17.056V79.628H12.22ZM10.024 69.92C9.376 71.696 8.296 73.46 7.144 74.588C7.348 74.852 7.66 75.464 7.768 75.74C9.076 74.384 10.312 72.296 11.092 70.256L10.024 69.92ZM8.824 73.112V80.996H9.904V72.044L9.892 72.032L8.824 73.112ZM23.296 74.792H26.584V76.04H23.296V74.792ZM22.288 73.88V76.952H27.64V73.88H22.288ZM23.584 76.664C23.44 77.924 23.068 78.86 21.544 79.4C21.772 79.58 22.06 79.988 22.168 80.24C23.92 79.508 24.412 78.296 24.592 76.664H23.584ZM26.284 71.984C26.02 72.596 25.528 73.484 25.132 74.036L26.08 74.3C26.476 73.772 26.956 72.992 27.388 72.248L26.284 71.984ZM22.684 72.416C23.068 72.908 23.464 73.58 23.608 74.012L24.532 73.58C24.376 73.124 23.956 72.488 23.56 72.008L22.684 72.416ZM28.924 70.52V79.724C28.924 79.892 28.876 79.94 28.708 79.94C28.552 79.952 28.06 79.952 27.568 79.928C27.712 80.204 27.856 80.672 27.892 80.96C28.672 80.96 29.212 80.936 29.56 80.768C29.908 80.576 30.016 80.3 30.016 79.736V70.52H28.924ZM19.984 72.656V81.008H21.088V72.656H19.984ZM20.152 70.544C20.692 71.072 21.292 71.804 21.556 72.296L22.48 71.672C22.192 71.18 21.556 70.484 21.016 69.992L20.152 70.544ZM23.164 70.52V71.516H29.56V70.52H23.164ZM25.288 76.652V78.764C25.288 79.664 25.48 79.94 26.38 79.94C26.56 79.94 27.196 79.94 27.364 79.94C28.036 79.94 28.3 79.64 28.396 78.44C28.132 78.368 27.724 78.224 27.532 78.068C27.496 78.932 27.46 79.052 27.244 79.052C27.112 79.052 26.632 79.052 26.536 79.052C26.308 79.052 26.272 79.016 26.272 78.752V76.652H25.288ZM31.432 76.112L31.624 77.228C32.74 76.916 34.144 76.532 35.476 76.148L35.344 75.104C33.928 75.488 32.44 75.896 31.432 76.112ZM31.588 72.236V73.292H35.332V72.236H31.588ZM33.04 69.872V79.688C33.04 79.844 32.98 79.892 32.824 79.892C32.692 79.892 32.236 79.892 31.78 79.88C31.912 80.168 32.056 80.624 32.104 80.912C32.86 80.912 33.352 80.888 33.688 80.708C34.012 80.54 34.12 80.252 34.12 79.688V69.872H33.04ZM35.764 71.864V72.872H38.104V71.864H35.764ZM39.988 71.864V72.872H42.436V71.864H39.988ZM35.8 74.384V75.38H37.936V74.384H35.8ZM40.048 74.384V75.38H42.328V74.384H40.048ZM40.084 76.94V77.96H42.58V76.94H40.084ZM39.52 69.98V81.02H40.612V69.98H39.52ZM37.444 69.992V80.996H38.536V69.992H37.444ZM35.512 76.904V77.936H38.008V76.904H35.512ZM48.28 70.58V71.66H54.16V70.58H48.28ZM51.58 74.228V79.616C51.58 79.808 51.508 79.856 51.28 79.868C51.064 79.88 50.26 79.88 49.48 79.844C49.636 80.18 49.792 80.66 49.84 80.984C50.968 80.984 51.688 80.972 52.144 80.804C52.6 80.624 52.744 80.288 52.744 79.64V74.228H51.58ZM47.752 73.904V74.984H54.484V73.904H47.752ZM45.232 75.044V81.044H46.36V74.108L46.228 74.048L45.232 75.044ZM46.6 72.464C45.796 73.832 44.476 75.224 43.24 76.1C43.468 76.328 43.864 76.832 44.032 77.06C45.304 76.028 46.744 74.42 47.68 72.872L46.6 72.464ZM46.132 69.872C45.532 70.724 44.368 71.804 43.372 72.464C43.564 72.692 43.864 73.136 44.02 73.388C45.124 72.608 46.384 71.408 47.224 70.316L46.132 69.872ZM59.596 70.976V71.888H66.184V70.976H59.596ZM59.608 75.644V76.58H66.196V75.644H59.608ZM60.712 72.092C60.88 72.536 61.036 73.148 61.084 73.52L62.14 73.292C62.08 72.932 61.888 72.356 61.708 71.912L60.712 72.092ZM64.156 71.864C64.024 72.356 63.796 73.076 63.58 73.544L64.54 73.724C64.756 73.292 65.02 72.656 65.272 72.044L64.156 71.864ZM59.428 73.268V75.272H60.46V74.168H65.332V75.26H66.412V73.268H59.428ZM61.576 77.576V78.5H64.96V77.576H61.576ZM64.6 77.576V77.708C64.492 79.196 64.372 79.784 64.204 79.964C64.108 80.06 64.012 80.072 63.82 80.072C63.628 80.072 63.148 80.072 62.644 80.012C62.8 80.276 62.908 80.672 62.932 80.972C63.496 80.996 64.036 80.996 64.324 80.96C64.66 80.936 64.9 80.864 65.116 80.636C65.392 80.336 65.548 79.616 65.668 77.984C65.692 77.852 65.704 77.576 65.704 77.576H64.6ZM61.372 75.944C61.264 78.008 60.988 79.424 59.02 80.192C59.248 80.396 59.548 80.792 59.656 81.032C61.912 80.096 62.32 78.392 62.452 75.944H61.372ZM62.212 69.944C62.356 70.448 62.5 71.12 62.524 71.528L63.628 71.348C63.592 70.952 63.436 70.304 63.256 69.8L62.212 69.944ZM62.2 74.588C62.344 75.032 62.476 75.596 62.524 75.956L63.64 75.752C63.592 75.404 63.436 74.852 63.256 74.432L62.2 74.588ZM55.516 72.164V73.208H59.176V72.164H55.516ZM57.004 69.872V81.008H57.976V69.872H57.004ZM56.968 72.896C56.68 74.504 55.996 76.52 55.264 77.564C55.444 77.852 55.696 78.368 55.804 78.692C56.572 77.456 57.256 75.08 57.568 73.136L56.968 72.896ZM57.94 73.58L57.448 73.988C57.736 74.528 58.384 75.968 58.612 76.628L59.26 75.848C59.068 75.476 58.18 73.928 57.94 73.58Z" fill="#234B70"/>
<defs>
<filter id="filter0_d_1_4733" x="0" y="0" width="76" height="76" filterUnits="userSpaceOnUse" color-interpolation-filters="sRGB">
<feFlood flood-opacity="0" result="BackgroundImageFix"/>
<feColorMatrix in="SourceAlpha" type="matrix" values="0 0 0 0 0 0 0 0 0 0 0 0 0 0 0 0 0 0 127 0" result="hardAlpha"/>
<feOffset dy="4"/>
<feGaussianBlur stdDeviation="5"/>
<feComposite in2="hardAlpha" operator="out"/>
<feColorMatrix type="matrix" values="0 0 0 0 0.330556 0 0 0 0 0.716333 0 0 0 0 0.933333 0 0 0 0.15 0"/>
<feBlend mode="normal" in2="BackgroundImageFix" result="effect1_dropShadow_1_4733"/>
<feBlend mode="normal" in="SourceGraphic" in2="effect1_dropShadow_1_4733" result="shape"/>
</filter>
<filter id="filter1_bi_1_4733" x="42" y="30.3481" width="23" height="26.9531" filterUnits="userSpaceOnUse" color-interpolation-filters="sRGB">
<feFlood flood-opacity="0" result="BackgroundImageFix"/>
<feGaussianBlur in="BackgroundImageFix" stdDeviation="2"/>
<feComposite in2="SourceAlpha" operator="in" result="effect1_backgroundBlur_1_4733"/>
<feBlend mode="normal" in="SourceGraphic" in2="effect1_backgroundBlur_1_4733" result="shape"/>
<feColorMatrix in="SourceAlpha" type="matrix" values="0 0 0 0 0 0 0 0 0 0 0 0 0 0 0 0 0 0 127 0" result="hardAlpha"/>
<feOffset dy="1"/>
<feGaussianBlur stdDeviation="1"/>
<feComposite in2="hardAlpha" operator="arithmetic" k2="-1" k3="1"/>
<feColorMatrix type="matrix" values="0 0 0 0 1 0 0 0 0 1 0 0 0 0 1 0 0 0 0.55 0"/>
<feBlend mode="normal" in2="shape" result="effect2_innerShadow_1_4733"/>
</filter>
<linearGradient id="paint0_linear_1_4733" x1="38" y1="20" x2="38" y2="49" gradientUnits="userSpaceOnUse">
<stop stop-color="#F2AD46"/>
<stop offset="1" stop-color="#FFD28E"/>
</linearGradient>
<linearGradient id="paint1_linear_1_4733" x1="22" y1="30.25" x2="26.0138" y2="43.9489" gradientUnits="userSpaceOnUse">
<stop stop-color="#F2A32E"/>
<stop offset="1" stop-color="#F2A32E" stop-opacity="0"/>
</linearGradient>
<linearGradient id="paint2_linear_1_4733" x1="54" y1="30.25" x2="49.9862" y2="43.9489" gradientUnits="userSpaceOnUse">
<stop stop-color="#F2A32E"/>
<stop offset="1" stop-color="#F2A32E" stop-opacity="0"/>
</linearGradient>
<linearGradient id="paint3_linear_1_4733" x1="37.5" y1="25" x2="37.5" y2="37" gradientUnits="userSpaceOnUse">
<stop stop-color="white"/>
<stop offset="1" stop-color="white" stop-opacity="0.4"/>
</linearGradient>
</defs>
</svg>
