<svg width="76" height="76" viewBox="0 0 76 76" fill="none" xmlns="http://www.w3.org/2000/svg">
<g filter="url(#filter0_d_167_11625)">
<rect x="10" y="6" width="56" height="56" rx="12" fill="white"/>
</g>
<rect x="22" y="15" width="32" height="36" rx="4" fill="url(#paint0_linear_167_11625)"/>
<g filter="url(#filter1_bi_167_11625)">
<circle cx="50" cy="45" r="11" fill="#BED0FF" fill-opacity="0.4"/>
</g>
<path fill-rule="evenodd" clip-rule="evenodd" d="M56.3479 41.0547C55.7589 40.4722 54.8091 40.4776 54.2267 41.0667L48.9535 46.3999L47.1757 44.6422C46.5866 44.0597 45.6369 44.0651 45.0544 44.6542C44.472 45.2433 44.4774 46.193 45.0665 46.7755L47.8559 49.5335C47.865 49.5425 47.8742 49.5514 47.8834 49.5601C47.8924 49.5694 47.9015 49.5787 47.9108 49.5878C48.4999 50.1703 49.4496 50.1649 50.0321 49.5758L56.3599 43.176C56.9424 42.5869 56.937 41.6372 56.3479 41.0547Z" fill="white" fill-opacity="0.6"/>
<rect x="27" y="21" width="22" height="3" rx="1.5" fill="white" fill-opacity="0.6"/>
<rect x="27" y="28" width="22" height="3" rx="1.5" fill="white" fill-opacity="0.6"/>
<rect x="27" y="35" width="10" height="3" rx="1.5" fill="white" fill-opacity="0.6"/>
<defs>
<filter id="filter0_d_167_11625" x="0" y="0" width="76" height="76" filterUnits="userSpaceOnUse" color-interpolation-filters="sRGB">
<feFlood flood-opacity="0" result="BackgroundImageFix"/>
<feColorMatrix in="SourceAlpha" type="matrix" values="0 0 0 0 0 0 0 0 0 0 0 0 0 0 0 0 0 0 127 0" result="hardAlpha"/>
<feOffset dy="4"/>
<feGaussianBlur stdDeviation="5"/>
<feComposite in2="hardAlpha" operator="out"/>
<feColorMatrix type="matrix" values="0 0 0 0 0.330556 0 0 0 0 0.716333 0 0 0 0 0.933333 0 0 0 0.15 0"/>
<feBlend mode="normal" in2="BackgroundImageFix" result="effect1_dropShadow_167_11625"/>
<feBlend mode="normal" in="SourceGraphic" in2="effect1_dropShadow_167_11625" result="shape"/>
</filter>
<filter id="filter1_bi_167_11625" x="35" y="30" width="30" height="30" filterUnits="userSpaceOnUse" color-interpolation-filters="sRGB">
<feFlood flood-opacity="0" result="BackgroundImageFix"/>
<feGaussianBlur in="BackgroundImageFix" stdDeviation="2"/>
<feComposite in2="SourceAlpha" operator="in" result="effect1_backgroundBlur_167_11625"/>
<feBlend mode="normal" in="SourceGraphic" in2="effect1_backgroundBlur_167_11625" result="shape"/>
<feColorMatrix in="SourceAlpha" type="matrix" values="0 0 0 0 0 0 0 0 0 0 0 0 0 0 0 0 0 0 127 0" result="hardAlpha"/>
<feOffset dy="1"/>
<feGaussianBlur stdDeviation="1"/>
<feComposite in2="hardAlpha" operator="arithmetic" k2="-1" k3="1"/>
<feColorMatrix type="matrix" values="0 0 0 0 1 0 0 0 0 1 0 0 0 0 1 0 0 0 0.35 0"/>
<feBlend mode="normal" in2="shape" result="effect2_innerShadow_167_11625"/>
</filter>
<linearGradient id="paint0_linear_167_11625" x1="38" y1="15" x2="38" y2="51" gradientUnits="userSpaceOnUse">
<stop stop-color="#366EFF"/>
<stop offset="1" stop-color="#7BB0FF"/>
</linearGradient>
</defs>
</svg>
