<svg width="76" height="76" viewBox="0 0 76 76" fill="none" xmlns="http://www.w3.org/2000/svg">
<g filter="url(#filter0_d_167_11610)">
<rect x="10" y="6" width="56" height="56" rx="12" fill="white"/>
</g>
<path fill-rule="evenodd" clip-rule="evenodd" d="M38.5 51C49.2696 51 58 43.3888 58 34C58 24.6112 49.2696 17 38.5 17C27.7304 17 19 24.6112 19 34C19 38.384 20.9035 42.3804 24.0293 45.3954L20.8425 49.9764C19.7065 51.6095 21.3921 53.7194 23.2357 52.972L31.1665 49.7568C33.4303 50.5584 35.906 51 38.5 51Z" fill="url(#paint0_linear_167_11610)"/>
<g filter="url(#filter1_bi_167_11610)">
<path fill-rule="evenodd" clip-rule="evenodd" d="M57.6794 37.1213C56.5079 35.9497 54.6084 35.9497 53.4368 37.1213L44.3209 46.2372L44.3209 46.2373L42.6854 47.8728L42.6854 52.4149C42.6854 53.5195 43.5809 54.4149 44.6854 54.4149H49.2276L51.6809 51.9616L51.6808 51.9615L59.9789 43.6635C61.1505 42.4919 61.1505 40.5924 59.9789 39.4208L57.6794 37.1213Z" fill="#72E492" fill-opacity="0.6"/>
</g>
<path d="M45.5601 44.9978L52.1022 51.5399L50.1334 53.5087L43.5913 46.9665L45.5601 44.9978Z" fill="url(#paint1_linear_167_11610)" fill-opacity="0.5"/>
<circle cx="30.5" cy="33.5" r="2.5" fill="white" fill-opacity="0.8"/>
<circle cx="39.5" cy="33.5" r="2.5" fill="white" fill-opacity="0.8"/>
<circle cx="48.5" cy="33.5" r="2.5" fill="white" fill-opacity="0.8"/>
<defs>
<filter id="filter0_d_167_11610" x="0" y="0" width="76" height="76" filterUnits="userSpaceOnUse" color-interpolation-filters="sRGB">
<feFlood flood-opacity="0" result="BackgroundImageFix"/>
<feColorMatrix in="SourceAlpha" type="matrix" values="0 0 0 0 0 0 0 0 0 0 0 0 0 0 0 0 0 0 127 0" result="hardAlpha"/>
<feOffset dy="4"/>
<feGaussianBlur stdDeviation="5"/>
<feComposite in2="hardAlpha" operator="out"/>
<feColorMatrix type="matrix" values="0 0 0 0 0.330556 0 0 0 0 0.716333 0 0 0 0 0.933333 0 0 0 0.15 0"/>
<feBlend mode="normal" in2="BackgroundImageFix" result="effect1_dropShadow_167_11610"/>
<feBlend mode="normal" in="SourceGraphic" in2="effect1_dropShadow_167_11610" result="shape"/>
</filter>
<filter id="filter1_bi_167_11610" x="38.6855" y="32.2427" width="26.1719" height="26.1721" filterUnits="userSpaceOnUse" color-interpolation-filters="sRGB">
<feFlood flood-opacity="0" result="BackgroundImageFix"/>
<feGaussianBlur in="BackgroundImageFix" stdDeviation="2"/>
<feComposite in2="SourceAlpha" operator="in" result="effect1_backgroundBlur_167_11610"/>
<feBlend mode="normal" in="SourceGraphic" in2="effect1_backgroundBlur_167_11610" result="shape"/>
<feColorMatrix in="SourceAlpha" type="matrix" values="0 0 0 0 0 0 0 0 0 0 0 0 0 0 0 0 0 0 127 0" result="hardAlpha"/>
<feOffset dy="1"/>
<feGaussianBlur stdDeviation="1"/>
<feComposite in2="hardAlpha" operator="arithmetic" k2="-1" k3="1"/>
<feColorMatrix type="matrix" values="0 0 0 0 1 0 0 0 0 1 0 0 0 0 1 0 0 0 0.35 0"/>
<feBlend mode="normal" in2="shape" result="effect2_innerShadow_167_11610"/>
</filter>
<linearGradient id="paint0_linear_167_11610" x1="38.5" y1="17.9916" x2="38.5" y2="52.1355" gradientUnits="userSpaceOnUse">
<stop stop-color="#0CB13A"/>
<stop offset="1" stop-color="#08C926" stop-opacity="0.65"/>
</linearGradient>
<linearGradient id="paint1_linear_167_11610" x1="43.6614" y1="45.8383" x2="51.1614" y2="53.3383" gradientUnits="userSpaceOnUse">
<stop stop-color="white" stop-opacity="0.25"/>
<stop offset="0.333333" stop-color="white"/>
<stop offset="0.666667" stop-color="white"/>
<stop offset="1" stop-color="white" stop-opacity="0.25"/>
</linearGradient>
</defs>
</svg>
