<svg width="120" height="40" viewBox="0 0 120 40" fill="none" xmlns="http://www.w3.org/2000/svg">
<rect width="120" height="40" rx="6" fill="#D2E4F5"/>
<path d="M38.96 16.02C38.96 16.66 38.8333 17.22 38.58 17.7C38.34 18.1667 37.9933 18.5467 37.54 18.84C37.0867 19.1333 36.5667 19.3467 35.98 19.48V19.56C37.1267 19.6933 37.98 20.0533 38.54 20.64C39.1133 21.2133 39.4 21.9733 39.4 22.92C39.4 23.7467 39.2 24.4867 38.8 25.14C38.4133 25.78 37.8067 26.2867 36.98 26.66C36.1667 27.02 35.12 27.2 33.84 27.2C33.08 27.2 32.3733 27.14 31.72 27.02C31.0667 26.9 30.4467 26.7 29.86 26.42V24.5C30.46 24.8067 31.1 25.04 31.78 25.2C32.4733 25.36 33.1333 25.44 33.76 25.44C34.9733 25.44 35.8467 25.2133 36.38 24.76C36.9133 24.2933 37.18 23.6467 37.18 22.82C37.18 22.2867 37.04 21.8533 36.76 21.52C36.48 21.1733 36.0533 20.92 35.48 20.76C34.9067 20.5867 34.1933 20.5 33.34 20.5H32.04V18.76H33.36C34.1733 18.76 34.8333 18.66 35.34 18.46C35.8467 18.2467 36.22 17.9533 36.46 17.58C36.7 17.2067 36.82 16.78 36.82 16.3C36.82 15.66 36.6067 15.1667 36.18 14.82C35.7667 14.46 35.1667 14.28 34.38 14.28C33.9 14.28 33.4533 14.3333 33.04 14.44C32.64 14.5467 32.2733 14.6867 31.94 14.86C31.6067 15.0333 31.28 15.2267 30.96 15.44L29.92 13.98C30.28 13.7133 30.68 13.4667 31.12 13.24C31.5733 13.0133 32.0733 12.84 32.62 12.72C33.18 12.5867 33.7867 12.52 34.44 12.52C35.92 12.52 37.04 12.8467 37.8 13.5C38.5733 14.14 38.96 14.98 38.96 16.02ZM46.9653 19.14H50.8853V20.76H46.9653V24.78H45.3253V20.76H41.4053V19.14H45.3253V15.1H46.9653V19.14ZM61.8506 16.02C61.8506 16.66 61.724 17.22 61.4706 17.7C61.2306 18.1667 60.884 18.5467 60.4306 18.84C59.9773 19.1333 59.4573 19.3467 58.8706 19.48V19.56C60.0173 19.6933 60.8706 20.0533 61.4306 20.64C62.004 21.2133 62.2906 21.9733 62.2906 22.92C62.2906 23.7467 62.0906 24.4867 61.6906 25.14C61.304 25.78 60.6973 26.2867 59.8706 26.66C59.0573 27.02 58.0106 27.2 56.7306 27.2C55.9706 27.2 55.264 27.14 54.6106 27.02C53.9573 26.9 53.3373 26.7 52.7506 26.42V24.5C53.3506 24.8067 53.9906 25.04 54.6706 25.2C55.364 25.36 56.024 25.44 56.6506 25.44C57.864 25.44 58.7373 25.2133 59.2706 24.76C59.804 24.2933 60.0706 23.6467 60.0706 22.82C60.0706 22.2867 59.9306 21.8533 59.6506 21.52C59.3706 21.1733 58.944 20.92 58.3706 20.76C57.7973 20.5867 57.084 20.5 56.2306 20.5H54.9306V18.76H56.2506C57.064 18.76 57.724 18.66 58.2306 18.46C58.7373 18.2467 59.1106 17.9533 59.3506 17.58C59.5906 17.2067 59.7106 16.78 59.7106 16.3C59.7106 15.66 59.4973 15.1667 59.0706 14.82C58.6573 14.46 58.0573 14.28 57.2706 14.28C56.7906 14.28 56.344 14.3333 55.9306 14.44C55.5306 14.5467 55.164 14.6867 54.8306 14.86C54.4973 15.0333 54.1706 15.2267 53.8506 15.44L52.8106 13.98C53.1706 13.7133 53.5706 13.4667 54.0106 13.24C54.464 13.0133 54.964 12.84 55.5106 12.72C56.0706 12.5867 56.6773 12.52 57.3306 12.52C58.8106 12.52 59.9306 12.8467 60.6906 13.5C61.464 14.14 61.8506 14.98 61.8506 16.02ZM64.3759 18.8V17.18H73.6959V18.8H64.3759ZM64.3759 22.74V21.1H73.6959V22.74H64.3759ZM83.6613 22.18H85.3013C84.7812 19.18 89.5613 18.56 89.5613 15.54C89.5613 13.24 87.7413 11.78 84.9213 11.78C82.7613 11.78 81.2013 12.72 79.8813 14.12L80.9413 15.1C82.1013 13.9 83.3613 13.3 84.7413 13.3C86.7813 13.3 87.7613 14.3 87.7613 15.68C87.7613 17.96 83.0613 18.84 83.6613 22.18ZM84.5213 27.1C85.2213 27.1 85.8012 26.6 85.8012 25.8C85.8012 25 85.2213 24.46 84.5213 24.46C83.8213 24.46 83.2413 25 83.2413 25.8C83.2413 26.6 83.8013 27.1 84.5213 27.1Z" fill="#88A7D7"/>
</svg>
