<svg width="176" height="292" viewBox="0 0 176 292" fill="none" xmlns="http://www.w3.org/2000/svg">
<path d="M89.3357 75.5516L96.9657 74.1217C97.0877 74.1013 97.2038 74.0543 97.3056 73.984C97.4073 73.9136 97.4923 73.8217 97.5544 73.7147C97.6165 73.6077 97.6542 73.4883 97.6648 73.365C97.6754 73.2418 97.6586 73.1177 97.6157 73.0016L91.6157 55.2316C91.5218 54.9753 91.3419 54.7594 91.1067 54.6208C90.8714 54.4823 90.5954 54.4295 90.3257 54.4716L82.7057 55.8916C82.5824 55.9116 82.4652 55.9588 82.3624 56.0298C82.2597 56.1008 82.1741 56.1938 82.1119 56.302C82.0496 56.4102 82.0123 56.531 82.0025 56.6555C81.9928 56.78 82.011 56.9051 82.0557 57.0216L88.0557 74.7916C88.146 75.0483 88.3237 75.2651 88.5577 75.404C88.7917 75.543 89.0671 75.5952 89.3357 75.5516Z" fill="#407BFF"/>
<path opacity="0.6" d="M89.3357 75.5516L96.9657 74.1217C97.0877 74.1013 97.2038 74.0543 97.3056 73.984C97.4073 73.9136 97.4923 73.8217 97.5544 73.7147C97.6165 73.6077 97.6542 73.4883 97.6648 73.365C97.6754 73.2418 97.6586 73.1177 97.6157 73.0016L91.6157 55.2316C91.5218 54.9753 91.3419 54.7594 91.1067 54.6208C90.8714 54.4823 90.5954 54.4295 90.3257 54.4716L82.7057 55.8916C82.5824 55.9116 82.4652 55.9588 82.3624 56.0298C82.2597 56.1008 82.1741 56.1938 82.1119 56.302C82.0496 56.4102 82.0123 56.531 82.0025 56.6555C81.9928 56.78 82.011 56.9051 82.0557 57.0216L88.0557 74.7916C88.146 75.0483 88.3237 75.2651 88.5577 75.404C88.7917 75.543 89.0671 75.5952 89.3357 75.5516Z" fill="black"/>
<path d="M90.2756 75.4115L97.8956 73.9915C98.0188 73.9715 98.1361 73.9244 98.2388 73.8534C98.3415 73.7824 98.4271 73.6894 98.4894 73.5812C98.5517 73.4729 98.589 73.3522 98.5987 73.2277C98.6084 73.1032 98.5903 72.9781 98.5456 72.8615L92.5456 55.0915C92.4516 54.8351 92.2717 54.6193 92.0365 54.4807C91.8013 54.3421 91.5253 54.2894 91.2555 54.3315L83.6355 55.7615C83.5126 55.7801 83.3955 55.8261 83.2927 55.896C83.19 55.9659 83.1042 56.058 83.0418 56.1656C82.9794 56.2731 82.942 56.3932 82.9322 56.5171C82.9225 56.641 82.9407 56.7656 82.9856 56.8815L88.9856 74.6515C89.0795 74.9079 89.2594 75.1237 89.4946 75.2623C89.7298 75.4009 90.0058 75.4536 90.2756 75.4115Z" fill="#407BFF"/>
<path opacity="0.3" d="M90.2756 75.4115L97.8956 73.9915C98.0188 73.9715 98.1361 73.9244 98.2388 73.8534C98.3415 73.7824 98.4271 73.6894 98.4894 73.5812C98.5517 73.4729 98.589 73.3522 98.5987 73.2277C98.6084 73.1032 98.5903 72.9781 98.5456 72.8615L92.5456 55.0915C92.4516 54.8351 92.2717 54.6193 92.0365 54.4807C91.8013 54.3421 91.5253 54.2894 91.2555 54.3315L83.6355 55.7615C83.5126 55.7801 83.3955 55.8261 83.2927 55.896C83.19 55.9659 83.1042 56.058 83.0418 56.1656C82.9794 56.2731 82.942 56.3932 82.9322 56.5171C82.9225 56.641 82.9407 56.7656 82.9856 56.8815L88.9856 74.6515C89.0795 74.9079 89.2594 75.1237 89.4946 75.2623C89.7298 75.4009 90.0058 75.4536 90.2756 75.4115Z" fill="black"/>
<path d="M88.5756 73.4414L98.1356 71.6514L92.7556 55.7114L83.1855 57.5014L88.5756 73.4414Z" fill="#FAFAFA"/>
<path opacity="0.14" d="M88.5756 73.4414L98.1356 71.6514L92.7556 55.7114L83.1855 57.5014L88.5756 73.4414Z" fill="#407BFF"/>
<path d="M83.1855 64.3914L83.9355 62.6514L91.1356 70.7414L84.9055 71.2214L83.1855 64.3914Z" fill="#E58A7B"/>
<path d="M146.326 23.6616C145.326 28.6616 143.146 38.6616 146.626 42.0116C146.626 42.0116 145.266 47.0116 136.036 47.0116C125.876 47.0116 131.176 42.0116 131.176 42.0116C136.726 40.6916 136.576 36.5816 135.616 32.7216L146.326 23.6616Z" fill="#E58A7B"/>
<path d="M126.106 43.7213C126.106 42.9713 127.246 42.2013 128.906 41.6013C129.796 41.2713 130.666 40.0213 132.016 39.7913C133.016 39.6213 134.306 40.4813 135.586 40.3913C136.656 40.3113 137.776 39.2713 139.016 39.2613C140.256 39.2513 141.256 40.2613 142.476 40.3313C143.236 40.3313 143.996 39.4113 144.636 39.4713C145.276 39.5313 145.966 40.6213 146.576 40.7313C147.386 40.8713 148.296 40.0613 148.846 40.2413C149.726 40.5213 149.846 41.7113 150.236 42.0313C151.356 42.9413 152.236 43.8013 151.236 43.9613C148.766 44.3513 148.666 42.9613 146.166 42.9613C143.666 42.9613 143.666 43.9613 141.166 43.9113C138.666 43.8613 138.676 42.9113 136.166 42.9113C133.656 42.9113 133.706 43.6013 131.166 43.8613C129.486 44.1428 127.767 44.0952 126.106 43.7213Z" fill="#407BFF"/>
<g opacity="0.6">
<path opacity="0.6" d="M126.106 43.7213C126.106 42.9713 127.246 42.2013 128.906 41.6013C129.796 41.2713 130.666 40.0213 132.016 39.7913C133.016 39.6213 134.306 40.4813 135.586 40.3913C136.656 40.3113 137.776 39.2713 139.016 39.2613C140.256 39.2513 141.256 40.2613 142.476 40.3313C143.236 40.3313 143.996 39.4113 144.636 39.4713C145.276 39.5313 145.966 40.6213 146.576 40.7313C147.386 40.8713 148.296 40.0613 148.846 40.2413C149.726 40.5213 149.846 41.7113 150.236 42.0313C151.356 42.9413 152.236 43.8013 151.236 43.9613C148.766 44.3513 148.666 42.9613 146.166 42.9613C143.666 42.9613 143.666 43.9613 141.166 43.9113C138.666 43.8613 138.676 42.9113 136.166 42.9113C133.656 42.9113 133.706 43.6013 131.166 43.8613C129.486 44.1428 127.767 44.0952 126.106 43.7213Z" fill="black"/>
</g>
<path d="M164.486 52.7812C165.786 55.5312 166.806 58.1613 167.836 60.9013C168.866 63.6413 169.696 66.4013 170.496 69.1913C171.306 72.0091 171.973 74.8661 172.496 77.7513C172.736 79.2013 172.986 80.6513 173.146 82.1413C173.246 82.8713 173.336 83.6113 173.386 84.3613L173.556 86.6613C173.599 88.563 173.259 90.454 172.556 92.2213C171.981 93.7039 171.296 95.1413 170.506 96.5213C169.015 99.0898 167.344 101.549 165.506 103.881C161.945 108.4 158.04 112.636 153.826 116.551L150.706 113.671C152.356 111.491 154.046 109.251 155.626 106.991C157.206 104.731 158.786 102.471 160.216 100.161C161.649 97.9084 162.945 95.5708 164.096 93.1613C164.625 92.0589 165.073 90.9192 165.436 89.7513C165.729 88.8858 165.865 87.9746 165.836 87.0612L165.586 85.1712C165.516 84.5212 165.406 83.8713 165.276 83.1712C165.066 81.8713 164.776 80.5613 164.486 79.2613C164.196 77.9613 163.866 76.6613 163.486 75.3613C163.106 74.0613 162.766 72.7613 162.366 71.4713C161.576 68.8913 160.666 66.3212 159.726 63.7812C158.786 61.2413 157.726 58.6613 156.726 56.2913L164.486 52.7812Z" fill="#E58A7B"/>
<path d="M161.076 43.9215C164.556 44.6815 168.266 57.2015 168.266 57.2015L154.566 65.9415C154.566 65.9415 150.266 55.9415 151.926 51.5815C153.666 47.0815 156.966 43.0215 161.076 43.9215Z" fill="#407BFF"/>
<path opacity="0.6" d="M161.076 43.9215C164.556 44.6815 168.266 57.2015 168.266 57.2015L154.566 65.9415C154.566 65.9415 150.266 55.9415 151.926 51.5815C153.666 47.0815 156.966 43.0215 161.076 43.9215Z" fill="white"/>
<path opacity="0.28" d="M159.216 48.1816L154.536 65.8616V65.9416L160.016 62.4416L159.216 48.1816Z" fill="#407BFF"/>
<path d="M117.016 44.1615C117.016 44.1615 113.016 45.5715 121.016 94.7115H155.016C154.446 80.8715 154.426 72.3315 161.016 43.9215C156.251 42.938 151.422 42.2997 146.566 42.0115C141.422 41.6511 136.259 41.6511 131.116 42.0115C124.546 42.6215 117.016 44.1615 117.016 44.1615Z" fill="#407BFF"/>
<path opacity="0.6" d="M117.016 44.1615C117.016 44.1615 113.016 45.5715 121.016 94.7115H155.016C154.446 80.8715 154.426 72.3315 161.016 43.9215C156.251 42.938 151.422 42.2997 146.566 42.0115C141.422 41.6511 136.259 41.6511 131.116 42.0115C124.546 42.6215 117.016 44.1615 117.016 44.1615Z" fill="white"/>
<path d="M152.326 112.551L144.226 110.111L147.606 117.931C147.606 117.931 152.956 118.451 154.886 115.551L152.326 112.551Z" fill="#E58A7B"/>
<path d="M137.666 112.691L140.846 119.081L147.606 117.951L144.226 110.131L137.666 112.691Z" fill="#E58A7B"/>
<path d="M173.756 283.281H165.386L162.686 263.881H171.066L173.756 283.281Z" fill="#E58A7B"/>
<path d="M135.696 283.281H127.326L126.766 263.881H135.136L135.696 283.281Z" fill="#E58A7B"/>
<path d="M126.766 263.892L127.056 273.882H135.436L135.146 263.892H126.766Z" fill="#CF6F64"/>
<path d="M171.066 263.892H162.686L164.076 273.882H172.456L171.066 263.892Z" fill="#CF6F64"/>
<path d="M130.006 94.7114C130.006 94.7114 134.866 152.211 139.916 184.611C143.986 210.781 162.056 271.951 162.056 271.951H173.476C173.476 271.951 164.066 212.871 161.996 186.951C156.766 121.451 165.936 109.861 155.046 94.6714L130.006 94.7114Z" fill="#407BFF"/>
<path opacity="0.6" d="M130.006 94.7114C130.006 94.7114 134.866 152.211 139.916 184.611C143.986 210.781 162.056 271.951 162.056 271.951H173.476C173.476 271.951 164.066 212.871 161.996 186.951C156.766 121.451 165.936 109.861 155.046 94.6714L130.006 94.7114Z" fill="black"/>
<path opacity="0.4" d="M140.386 117.332C140.386 117.332 135.706 131.912 135.776 152.942C136.586 160.052 137.446 167.112 138.326 173.652C141.006 167.552 145.936 149.772 140.386 117.332Z" fill="black"/>
<path d="M121.026 94.7114C121.026 94.7114 114.416 159.241 114.966 184.781C115.536 211.351 125.276 271.951 125.276 271.951H136.596C136.596 271.951 134.806 212.951 135.806 186.811C136.896 158.361 145.936 94.7114 145.936 94.7114H121.026Z" fill="#407BFF"/>
<path opacity="0.6" d="M121.026 94.7114C121.026 94.7114 114.416 159.241 114.966 184.781C115.536 211.351 125.276 271.951 125.276 271.951H136.596C136.596 271.951 134.806 212.951 135.806 186.811C136.896 158.361 145.936 94.7114 145.936 94.7114H121.026Z" fill="black"/>
<path d="M161.996 283.771C161.429 283.819 160.863 283.667 160.396 283.341C160.256 283.206 160.153 283.039 160.096 282.853C160.038 282.668 160.028 282.472 160.066 282.281C160.078 282.161 160.121 282.046 160.191 281.948C160.261 281.85 160.356 281.772 160.466 281.721C161.466 281.291 163.986 282.921 164.266 283.111C164.299 283.132 164.325 283.162 164.341 283.198C164.357 283.233 164.362 283.273 164.356 283.311C164.35 283.35 164.333 283.387 164.306 283.415C164.279 283.444 164.244 283.463 164.206 283.471C163.482 283.652 162.741 283.753 161.996 283.771ZM160.876 282.041C160.789 282.037 160.703 282.054 160.626 282.091C160.566 282.091 160.486 282.171 160.466 282.341C160.434 282.465 160.436 282.595 160.471 282.718C160.506 282.842 160.573 282.953 160.666 283.041C161.086 283.431 162.186 283.481 163.666 283.191C162.826 282.617 161.876 282.225 160.876 282.041Z" fill="#407BFF"/>
<path d="M164.156 283.482C164.126 283.49 164.095 283.49 164.066 283.482C163.266 283.032 161.746 281.222 161.926 280.282C161.957 280.126 162.041 279.986 162.163 279.884C162.285 279.783 162.437 279.725 162.596 279.722C162.747 279.699 162.902 279.712 163.047 279.759C163.193 279.806 163.326 279.885 163.436 279.992C164.346 280.792 164.356 283.212 164.356 283.312C164.356 283.346 164.347 283.381 164.33 283.411C164.312 283.441 164.286 283.465 164.256 283.482C164.223 283.492 164.188 283.492 164.156 283.482ZM162.736 280.082H162.646C162.396 280.082 162.336 280.222 162.316 280.312C162.206 280.892 163.156 282.252 163.946 282.882C163.969 281.946 163.7 281.027 163.176 280.252C163.056 280.141 162.899 280.08 162.736 280.082Z" fill="#407BFF"/>
<path d="M123.886 283.771C123.181 283.828 122.477 283.648 121.886 283.261C121.748 283.138 121.643 282.981 121.582 282.806C121.521 282.631 121.505 282.444 121.536 282.261C121.54 282.152 121.572 282.045 121.63 281.953C121.688 281.86 121.769 281.783 121.866 281.731C122.866 281.171 126.236 282.881 126.606 283.071C126.644 283.09 126.675 283.12 126.695 283.158C126.715 283.196 126.722 283.239 126.716 283.281C126.71 283.322 126.691 283.359 126.662 283.388C126.633 283.417 126.596 283.435 126.556 283.441C125.678 283.635 124.784 283.745 123.886 283.771ZM122.396 282.041C122.268 282.034 122.141 282.058 122.026 282.111C121.987 282.134 121.954 282.166 121.932 282.204C121.909 282.243 121.896 282.287 121.896 282.331C121.88 282.447 121.893 282.565 121.933 282.675C121.973 282.784 122.039 282.883 122.126 282.961C122.636 283.421 124.016 283.501 125.866 283.191C124.783 282.613 123.609 282.224 122.396 282.041Z" fill="#407BFF"/>
<path d="M126.486 283.482H126.406C125.406 283.032 123.406 281.222 123.586 280.272C123.586 280.052 123.786 279.772 124.336 279.712C124.533 279.692 124.733 279.713 124.922 279.773C125.111 279.834 125.286 279.932 125.436 280.062C126.486 280.932 126.676 283.192 126.686 283.282C126.688 283.316 126.682 283.35 126.668 283.382C126.654 283.413 126.633 283.44 126.606 283.462C126.569 283.481 126.527 283.488 126.486 283.482ZM124.486 280.082H124.366C124.006 280.082 123.976 280.262 123.966 280.312C123.876 280.882 125.216 282.312 126.236 282.912C126.152 281.962 125.778 281.062 125.166 280.332C124.978 280.172 124.741 280.084 124.496 280.082H124.486Z" fill="#407BFF"/>
<path d="M126.196 14.8516C126.131 14.8584 126.066 14.8502 126.005 14.8276C125.945 14.8051 125.89 14.7688 125.846 14.7216C125.525 14.3384 125.117 14.0377 124.656 13.8446C124.195 13.6515 123.694 13.5716 123.196 13.6116C123.091 13.6258 122.985 13.5981 122.901 13.5344C122.816 13.4707 122.761 13.3762 122.746 13.2716C122.734 13.1688 122.761 13.0652 122.822 12.9818C122.884 12.8983 122.974 12.8411 123.076 12.8216C123.704 12.7689 124.336 12.8656 124.92 13.1037C125.504 13.3418 126.023 13.7145 126.436 14.1916C126.507 14.2675 126.546 14.3676 126.546 14.4716C126.546 14.5756 126.507 14.6756 126.436 14.7516C126.367 14.8078 126.284 14.8426 126.196 14.8516Z" fill="#263238"/>
<path d="M124.456 19.8213C124.08 21.432 123.485 22.9832 122.686 24.4313C123.061 24.6268 123.475 24.738 123.898 24.757C124.322 24.776 124.744 24.7024 125.136 24.5413L124.456 19.8213Z" fill="#DF5753"/>
<path d="M124.896 18.5514C124.986 19.2214 124.716 19.8114 124.276 19.8714C123.836 19.9314 123.406 19.4414 123.276 18.7814C123.146 18.1214 123.456 17.5114 123.896 17.4514C124.336 17.3914 124.826 17.9214 124.896 18.5514Z" fill="#263238"/>
<path d="M124.126 17.5513L122.456 17.3213C122.456 17.3213 123.456 18.4013 124.126 17.5513Z" fill="#263238"/>
<path d="M164.826 282.312H174.236C174.397 282.308 174.553 282.364 174.675 282.47C174.797 282.575 174.876 282.722 174.896 282.882L175.976 290.332C175.995 290.52 175.975 290.711 175.916 290.891C175.857 291.072 175.761 291.238 175.633 291.378C175.506 291.519 175.35 291.631 175.177 291.707C175.003 291.784 174.815 291.823 174.626 291.822C171.346 291.762 169.766 291.572 165.626 291.572C163.086 291.572 159.366 291.832 155.846 291.832C152.326 291.832 152.146 288.352 153.606 288.042C160.176 286.632 161.206 284.682 163.426 282.822C163.817 282.492 164.313 282.311 164.826 282.312Z" fill="#263238"/>
<path d="M127.036 282.312H136.446C136.607 282.31 136.764 282.366 136.887 282.471C137.011 282.576 137.092 282.722 137.116 282.882L138.186 290.332C138.205 290.519 138.185 290.709 138.127 290.889C138.069 291.068 137.973 291.234 137.847 291.374C137.721 291.515 137.566 291.627 137.394 291.704C137.221 291.781 137.035 291.821 136.846 291.822C133.566 291.762 131.986 291.572 127.846 291.572C125.296 291.572 120.036 291.832 116.516 291.832C112.996 291.832 112.816 288.352 114.276 288.042C120.836 286.632 123.426 284.682 125.636 282.822C126.029 282.495 126.524 282.314 127.036 282.312Z" fill="#263238"/>
<path opacity="0.28" d="M116.036 52.1016V52.3016C116.136 57.8916 116.906 67.3016 119.226 83.1216L123.966 64.5516L116.036 52.1016Z" fill="#407BFF"/>
<path d="M122.766 54.9715C121.826 59.7215 120.766 64.3715 119.506 69.0415C118.246 73.7115 116.966 78.3515 115.306 83.0415L114.656 84.7915L113.946 86.5515C113.786 86.9684 113.595 87.3728 113.376 87.7615C113.1 88.2793 112.765 88.7626 112.376 89.2014C111.469 90.1994 110.279 90.8971 108.966 91.2014C107.866 91.4522 106.725 91.4522 105.626 91.2014C104.788 91.0287 103.972 90.7603 103.196 90.4015C101.907 89.7973 100.686 89.0564 99.5556 88.1915C97.535 86.6354 95.6544 84.9055 93.9356 83.0215C93.0756 82.1215 92.2756 81.1814 91.4956 80.2314C90.7156 79.2814 89.9656 78.3314 89.2256 77.2814L92.3956 74.4715C95.7581 77.508 99.3897 80.2326 103.246 82.6115C104.078 83.0955 104.955 83.4974 105.866 83.8114C106.636 84.1014 107.326 84.0215 107.056 83.9715C106.893 83.9936 106.739 84.0555 106.606 84.1515L106.746 83.7215L107.276 82.1414L107.776 80.5115C109.076 76.1215 110.186 71.5115 111.286 66.9915L114.416 53.2314L122.766 54.9715Z" fill="#E58A7B"/>
<path d="M89.4858 77.7017L84.9058 71.2217L91.1358 70.7417C91.1358 70.7417 94.6558 74.8017 93.4158 78.0617L89.4858 77.7017Z" fill="#E58A7B"/>
<path d="M89.1057 69.5514L90.4257 68.7414L91.0357 65.6714L92.0457 66.9314L92.7957 74.1414L89.1057 69.5514Z" fill="#E58A7B"/>
<path d="M147.046 13.0713C147.726 21.3513 148.186 24.8413 144.646 29.6613C139.316 36.8913 128.986 35.9113 125.856 27.9913C123.026 20.8613 122.396 8.51133 129.976 4.09133C131.64 3.1074 133.528 2.56567 135.461 2.51766C137.393 2.46964 139.306 2.91695 141.017 3.81702C142.728 4.71709 144.18 6.03997 145.235 7.65982C146.291 9.27967 146.914 11.1426 147.046 13.0713Z" fill="#E58A7B"/>
<path d="M128.536 3.16148C126.842 3.87346 125.455 5.16115 124.618 6.79703C123.782 8.4329 123.551 10.3117 123.966 12.1015C123.966 12.1015 130.476 9.29148 130.736 19.7215C130.926 27.2515 125.736 37.4115 125.736 37.4115C125.736 37.4115 137.806 39.9115 155.176 34.5915C162.566 32.3315 159.236 -12.0285 128.536 3.16148Z" fill="#263238"/>
<path d="M127.916 7.77148C126.736 10.6115 127.046 16.2315 131.696 15.6315C136.346 15.0315 134.986 10.3415 134.986 10.3415L127.916 7.77148Z" fill="#263238"/>
<path d="M133.096 18.9915C133.144 20.5992 132.559 22.1615 131.466 23.3415C130.006 24.8815 128.176 23.8415 127.676 21.8815C127.216 20.1315 127.426 17.2015 129.336 16.3815C129.757 16.2097 130.214 16.1458 130.666 16.1956C131.118 16.2454 131.55 16.4073 131.924 16.6665C132.297 16.9258 132.6 17.2743 132.805 17.6803C133.009 18.0863 133.109 18.537 133.096 18.9915Z" fill="#E58A7B"/>
<path d="M174.326 272.321H161.276L159.886 267.771L174.776 268.121L174.326 272.321Z" fill="#407BFF"/>
<path d="M150.926 96.5513H151.826C152.016 96.5513 152.156 96.4613 152.136 96.3413L151.706 92.3413C151.706 92.2313 151.536 92.1313 151.346 92.1313H150.426C150.246 92.1313 150.106 92.2313 150.116 92.3413L150.546 96.3413C150.586 96.4813 150.746 96.5513 150.926 96.5513Z" fill="#407BFF"/>
<path d="M128.566 96.5513H129.486C129.666 96.5513 129.806 96.4613 129.796 96.3413L129.366 92.3413C129.366 92.2313 129.186 92.1313 129.006 92.1313H128.086C127.896 92.1313 127.756 92.2313 127.776 92.3413L128.206 96.3413C128.216 96.4813 128.376 96.5513 128.566 96.5513Z" fill="#407BFF"/>
<path d="M137.466 272.321H124.406L123.466 268.431L137.956 267.771L137.466 272.321Z" fill="#407BFF"/>
<path d="M155.556 92.7214L157.086 95.7214C157.206 95.9614 156.926 96.2014 156.536 96.2014H120.826C120.516 96.2014 120.266 96.0514 120.246 95.8614L119.936 92.8614C119.936 92.6514 120.186 92.4714 120.516 92.4714H154.966C155.077 92.4564 155.191 92.4718 155.295 92.5157C155.398 92.5597 155.489 92.6307 155.556 92.7214Z" fill="#407BFF"/>
<path opacity="0.1" d="M155.556 92.7214L157.086 95.7214C157.206 95.9614 156.926 96.2014 156.536 96.2014H120.826C120.516 96.2014 120.266 96.0514 120.246 95.8614L119.936 92.8614C119.936 92.6514 120.186 92.4714 120.516 92.4714H154.966C155.077 92.4564 155.191 92.4718 155.295 92.5157C155.398 92.5597 155.489 92.6307 155.556 92.7214Z" fill="black"/>
<path opacity="0.6" d="M150.926 96.5513H151.826C152.016 96.5513 152.156 96.4613 152.136 96.3413L151.706 92.3413C151.706 92.2313 151.536 92.1313 151.346 92.1313H150.426C150.246 92.1313 150.106 92.2313 150.116 92.3413L150.546 96.3413C150.586 96.4813 150.746 96.5513 150.926 96.5513Z" fill="black"/>
<path opacity="0.6" d="M128.566 96.5513H129.486C129.666 96.5513 129.806 96.4613 129.796 96.3413L129.366 92.3413C129.366 92.2313 129.186 92.1313 129.006 92.1313H128.086C127.896 92.1313 127.756 92.2313 127.776 92.3413L128.206 96.3413C128.216 96.4813 128.376 96.5513 128.566 96.5513Z" fill="black"/>
<path d="M117.016 44.1615C113.566 45.0415 111.156 59.2515 111.156 59.2515L124.476 68.3015C124.476 68.3015 129.826 51.3815 127.136 47.5515C124.366 43.6315 122.056 42.8815 117.016 44.1615Z" fill="#407BFF"/>
<path opacity="0.6" d="M117.016 44.1615C113.566 45.0415 111.156 59.2515 111.156 59.2515L124.476 68.3015C124.476 68.3015 129.826 51.3815 127.136 47.5515C124.366 43.6315 122.056 42.8815 117.016 44.1615Z" fill="white"/>
<path d="M60.0597 103.068C60.0646 103.035 60.0646 103.001 60.0597 102.968C60.3397 101.358 60.5797 99.7379 60.7797 98.0979C63.6097 101.248 66.0697 102.048 67.8297 102.048C68.0162 102.058 68.2032 102.058 68.3897 102.048C71.8397 101.708 74.7497 98.3279 76.1897 93.0479C76.2182 92.9434 76.224 92.834 76.2067 92.7271C76.1895 92.6201 76.1496 92.5181 76.0897 92.4279C75.9658 92.2383 75.7776 92.0998 75.5597 92.0379C73.1156 91.3692 70.5536 91.251 68.0583 91.692C65.563 92.133 63.1966 93.122 61.1297 94.5879C61.2497 93.0479 61.3197 91.5079 61.3397 89.9579C61.8978 90.0557 62.4632 90.1058 63.0297 90.1079C68.7297 90.1079 72.2597 85.0379 72.4297 84.7879C72.4935 84.6914 72.5323 84.5806 72.5428 84.4654C72.5532 84.3502 72.535 84.2343 72.4897 84.1279C72.4434 84.0113 72.3732 83.9057 72.2836 83.8179C72.1941 83.7301 72.0871 83.662 71.9697 83.6179C68.4097 82.2779 65.5197 82.1579 63.3897 83.2779C62.0342 84.015 60.9928 85.2198 60.4597 86.6679C58.9534 83.3861 56.6717 80.5198 53.8112 78.3161C50.9507 76.1123 47.5972 74.6372 44.0397 74.0179C43.938 73.9937 43.832 73.9941 43.7305 74.0189C43.6289 74.0437 43.5347 74.0923 43.4556 74.1606C43.3765 74.229 43.3148 74.3152 43.2755 74.412C43.2363 74.5089 43.2205 74.6137 43.2297 74.7179C43.5897 79.8879 44.5497 86.1979 48.8097 89.2179C50.5142 90.3856 52.5444 90.9842 54.6097 90.9279C56.3761 90.8895 58.1289 90.6102 59.8197 90.0979C59.731 93.7827 59.3969 97.4575 58.8197 101.098C56.4497 98.4079 50.4197 92.4279 42.1897 90.3679C42.0982 90.3394 42.0016 90.3312 41.9066 90.3438C41.8116 90.3564 41.7205 90.3896 41.6396 90.441C41.5587 90.4924 41.49 90.5607 41.4382 90.6414C41.3864 90.722 41.3528 90.8129 41.3397 90.9079C40.7297 95.3579 41.7897 98.9679 44.3897 101.348C46.5497 103.348 49.6497 104.348 53.3897 104.348C55.0492 104.333 56.7034 104.158 58.3297 103.828C57.7697 106.878 57.0797 109.828 56.3297 112.708C53.7397 110.648 46.2497 105.438 39.1097 107.608C39.0154 107.639 38.9294 107.691 38.8583 107.76C38.7872 107.83 38.733 107.914 38.6997 108.008C38.6656 108.108 38.6532 108.214 38.6636 108.319C38.6739 108.425 38.7067 108.526 38.7597 108.618C41.3997 113.538 44.0397 116.268 47.0497 117.218C47.8334 117.461 48.6491 117.586 49.4697 117.588C51.5931 117.5 53.6585 116.87 55.4697 115.758C54.3397 119.538 53.0997 123.058 51.8797 126.198C49.8399 124.293 47.3556 122.929 44.6535 122.23C41.9513 121.532 39.1173 121.52 36.4097 122.198C36.3241 122.217 36.2432 122.252 36.1717 122.303C36.1003 122.354 36.0399 122.419 35.9941 122.493C35.9484 122.568 35.9182 122.651 35.9054 122.738C35.8926 122.825 35.8975 122.913 35.9197 122.998C36.3386 124.619 37.1297 126.12 38.2303 127.382C39.3309 128.644 40.7105 129.632 42.2597 130.268C43.3916 130.736 44.6047 130.978 45.8297 130.978C47.4503 130.965 49.0407 130.538 50.4497 129.738C48.855 133.633 47.0558 137.442 45.0597 141.148C44.9747 141.333 44.9614 141.542 45.0224 141.736C45.0834 141.931 45.2143 142.095 45.3897 142.198C45.5205 142.283 45.6735 142.328 45.8297 142.328C45.9462 142.331 46.0615 142.304 46.1635 142.247C46.2656 142.191 46.3506 142.108 46.4097 142.008C48.83 137.471 50.9837 132.796 52.8597 128.008C52.8984 127.931 52.9286 127.851 52.9497 127.768C53.323 126.828 53.693 125.858 54.0597 124.858C56.4697 127.638 59.3997 129.178 62.3397 129.178C62.6597 129.178 62.9697 129.178 63.2897 129.178C64.9195 129.015 66.4586 128.351 67.6945 127.276C68.9305 126.201 69.8023 124.769 70.1897 123.178C70.2179 122.999 70.1885 122.815 70.1059 122.653C70.0233 122.491 69.8916 122.36 69.7297 122.278C67.525 121.042 65.0588 120.346 62.5332 120.247C60.0076 120.148 57.4945 120.648 55.1997 121.708C55.9897 119.418 56.7597 116.988 57.4697 114.468C57.533 114.366 57.5675 114.248 57.5697 114.128C57.7597 113.418 57.9597 112.708 58.1397 111.978C61.0297 115.118 63.6997 116.658 66.2697 116.658C69.3897 116.658 72.2697 114.348 75.0397 109.658C75.1146 109.483 75.1267 109.288 75.0738 109.106C75.0209 108.924 74.9064 108.765 74.7497 108.658C68.9397 104.658 61.9897 107.388 58.8897 108.988C59.3297 107.115 59.7164 105.208 60.0497 103.268L60.0597 103.068Z" fill="#1254B7"/>
<path d="M23.7997 123.338C24.8778 123.677 25.9997 123.855 27.1297 123.868C28.5642 123.861 29.9808 123.548 31.2847 122.95C32.5887 122.352 33.7499 121.482 34.6908 120.4C35.6318 119.317 36.3307 118.045 36.7409 116.671C37.1512 115.296 37.2632 113.85 37.0697 112.428C37.036 112.273 36.9456 112.135 36.8162 112.043C36.6868 111.951 36.5276 111.91 36.3697 111.928C33.6055 112.234 30.9439 113.151 28.5779 114.612C26.2118 116.074 24.2005 118.043 22.6897 120.378C21.4297 116.918 20.2497 113.238 19.2597 109.428C20.8757 110.384 22.7037 110.923 24.5797 110.998C25.3507 111.001 26.1172 110.879 26.8497 110.638C30.7397 109.348 33.4097 104.708 35.7197 99.8781C35.7614 99.7907 35.7831 99.695 35.7831 99.5981C35.7831 99.5012 35.7614 99.4055 35.7197 99.3181C35.6856 99.2311 35.6317 99.1532 35.5623 99.0907C35.4928 99.0282 35.4098 98.9828 35.3197 98.9581C27.7097 96.7881 20.7897 104.228 18.6097 106.888C17.8461 103.662 17.2585 100.398 16.8497 97.1081C18.4617 97.4164 20.0985 97.5771 21.7397 97.5881C25.7397 97.5881 28.8997 96.5281 31.0397 94.4381C33.5797 91.9681 34.4497 88.2681 33.5697 83.7481C33.5527 83.6608 33.5174 83.5781 33.4662 83.5054C33.415 83.4327 33.3489 83.3717 33.2724 83.3263C33.1959 83.281 33.1106 83.2523 33.0223 83.2423C32.9339 83.2323 32.8444 83.2411 32.7597 83.2681C24.6397 85.4281 18.9097 91.4681 16.5697 94.3281C16.5697 93.7381 16.4697 93.1481 16.4297 92.5581C16.4176 92.41 16.3579 92.2697 16.2597 92.1581C16.057 91.0502 15.6086 90.0016 14.9476 89.0897C14.2866 88.1777 13.4296 87.4254 12.4397 86.8881C10.2197 85.7881 7.28965 85.9481 3.74965 87.3581C3.64489 87.3989 3.55031 87.4621 3.47257 87.5433C3.39483 87.6245 3.33581 87.7217 3.29966 87.8281C3.26385 87.9311 3.25334 88.0412 3.269 88.1491C3.28467 88.257 3.32604 88.3596 3.38965 88.4481C3.56965 88.6881 7.38965 93.7081 13.1097 93.7081C13.7273 93.7062 14.3434 93.646 14.9497 93.5281C15.0697 95.1548 15.2397 96.7848 15.4597 98.4181C13.3045 96.953 10.8553 95.9765 8.28335 95.5567C5.71139 95.137 3.07877 95.2842 0.569654 95.9881C0.470752 96.0125 0.37796 96.0571 0.297086 96.1191C0.216211 96.181 0.149002 96.259 0.0996599 96.3481C0.0495087 96.4332 0.0174109 96.5278 0.00536823 96.6258C-0.00667443 96.7239 0.00159608 96.8234 0.0296602 96.9181C1.79966 102.298 4.94966 105.688 8.46966 105.978C8.62949 105.988 8.78983 105.988 8.94966 105.978C10.7497 105.978 13.2397 105.158 15.9497 101.838C16.6122 105.58 17.4802 109.282 18.5497 112.928C15.3297 111.348 8.04966 108.628 2.34966 112.768C2.26914 112.819 2.19951 112.885 2.1448 112.963C2.09008 113.041 2.05137 113.129 2.03091 113.222C2.01045 113.315 2.00864 113.411 2.02559 113.505C2.04254 113.599 2.07791 113.688 2.12966 113.768C5.19966 118.498 8.21965 120.768 11.3597 120.768H11.4397C14.0497 120.768 16.6797 119.138 19.4397 115.888C20.5697 119.448 21.8097 122.828 23.0797 125.968C19.9197 123.898 16.2197 124.228 11.6597 126.968C11.5608 127.031 11.4767 127.115 11.4128 127.213C11.349 127.311 11.307 127.422 11.2897 127.538C11.2774 127.647 11.293 127.758 11.335 127.859C11.377 127.96 11.4439 128.05 11.5297 128.118C11.7597 128.298 15.6497 131.228 19.9997 131.228C21.6699 131.244 23.3068 130.76 24.6996 129.838C27.1607 135.559 29.9969 141.111 33.1897 146.458C33.2535 146.559 33.3424 146.641 33.4475 146.697C33.5526 146.753 33.6705 146.781 33.7897 146.778C33.9506 146.78 34.108 146.731 34.2397 146.638C34.4154 146.53 34.542 146.358 34.5925 146.158C34.6429 145.958 34.6132 145.746 34.5097 145.568C30.3239 138.471 26.7413 131.035 23.7997 123.338Z" fill="#1254B7"/>
<path d="M51.2997 163.478H27.4797L25.6797 138.848H53.0997L51.2997 163.478Z" fill="#1254B7"/>
<path d="M54.8697 137.188H23.8997V141.358H54.8697V137.188Z" fill="#1254B7"/>
</svg>
