<svg width="200" height="200" viewBox="0 0 200 200" fill="none" xmlns="http://www.w3.org/2000/svg">
<g clip-path="url(#clip0_102_8971)">
<path d="M200 0H0V200H200V0Z" fill="white"/>
<path d="M8 0H0V8H8V0Z" fill="black"/>
<path d="M16 0H8V8H16V0Z" fill="black"/>
<path d="M24 0H16V8H24V0Z" fill="black"/>
<path d="M32 0H24V8H32V0Z" fill="black"/>
<path d="M40 0H32V8H40V0Z" fill="black"/>
<path d="M48 0H40V8H48V0Z" fill="black"/>
<path d="M56 0H48V8H56V0Z" fill="black"/>
<path d="M72 0H64V8H72V0Z" fill="black"/>
<path d="M80 0H72V8H80V0Z" fill="black"/>
<path d="M88 0H80V8H88V0Z" fill="black"/>
<path d="M112 0H104V8H112V0Z" fill="black"/>
<path d="M120 0H112V8H120V0Z" fill="black"/>
<path d="M128 0H120V8H128V0Z" fill="black"/>
<path d="M136 0H128V8H136V0Z" fill="black"/>
<path d="M152 0H144V8H152V0Z" fill="black"/>
<path d="M160 0H152V8H160V0Z" fill="black"/>
<path d="M168 0H160V8H168V0Z" fill="black"/>
<path d="M176 0H168V8H176V0Z" fill="black"/>
<path d="M184 0H176V8H184V0Z" fill="black"/>
<path d="M192 0H184V8H192V0Z" fill="black"/>
<path d="M200 0H192V8H200V0Z" fill="black"/>
<path d="M8 8H0V16H8V8Z" fill="black"/>
<path d="M56 8H48L48 16H56V8Z" fill="black"/>
<path d="M80 8H72V16H80V8Z" fill="black"/>
<path d="M88 8H80V16H88V8Z" fill="black"/>
<path d="M104 8H96V16H104V8Z" fill="black"/>
<path d="M120 8H112V16H120V8Z" fill="black"/>
<path d="M152 8H144V16H152V8Z" fill="black"/>
<path d="M200 8H192V16H200V8Z" fill="black"/>
<path d="M8 16H0V24H8V16Z" fill="black"/>
<path d="M24 16H16V24H24V16Z" fill="black"/>
<path d="M32 16H24V24H32V16Z" fill="black"/>
<path d="M40 16H32V24H40V16Z" fill="black"/>
<path d="M56 16H48V24H56V16Z" fill="black"/>
<path d="M96 16H88V24H96V16Z" fill="black"/>
<path d="M136 16H128V24H136V16Z" fill="black"/>
<path d="M152 16H144V24H152V16Z" fill="black"/>
<path d="M168 16H160V24H168V16Z" fill="black"/>
<path d="M176 16H168V24H176V16Z" fill="black"/>
<path d="M184 16H176V24H184V16Z" fill="black"/>
<path d="M200 16H192V24H200V16Z" fill="black"/>
<path d="M8 24H0V32H8V24Z" fill="black"/>
<path d="M24 24H16V32H24V24Z" fill="black"/>
<path d="M32 24H24V32H32V24Z" fill="black"/>
<path d="M40 24H32V32H40V24Z" fill="black"/>
<path d="M56 24H48V32H56V24Z" fill="black"/>
<path d="M72 24H64V32H72V24Z" fill="black"/>
<path d="M88 24H80V32H88V24Z" fill="black"/>
<path d="M128 24H120V32H128V24Z" fill="black"/>
<path d="M152 24H144V32H152V24Z" fill="black"/>
<path d="M168 24H160V32H168V24Z" fill="black"/>
<path d="M176 24H168V32H176V24Z" fill="black"/>
<path d="M184 24H176V32H184V24Z" fill="black"/>
<path d="M200 24H192V32H200V24Z" fill="black"/>
<path d="M8 32H0V40H8V32Z" fill="black"/>
<path d="M24 32H16V40H24V32Z" fill="black"/>
<path d="M32 32H24V40H32V32Z" fill="black"/>
<path d="M40 32H32V40H40V32Z" fill="black"/>
<path d="M56 32H48V40H56V32Z" fill="black"/>
<path d="M72 32H64V40H72V32Z" fill="black"/>
<path d="M88 32H80V40H88V32Z" fill="black"/>
<path d="M104 32H96V40H104V32Z" fill="black"/>
<path d="M112 32H104V40H112V32Z" fill="black"/>
<path d="M120 32H112V40H120L120 32Z" fill="black"/>
<path d="M128 32H120L120 40H128V32Z" fill="black"/>
<path d="M136 32H128V40H136V32Z" fill="black"/>
<path d="M152 32H144V40H152V32Z" fill="black"/>
<path d="M168 32H160V40H168V32Z" fill="black"/>
<path d="M176 32H168V40H176V32Z" fill="black"/>
<path d="M184 32H176V40H184V32Z" fill="black"/>
<path d="M200 32H192V40H200V32Z" fill="black"/>
<path d="M8 40H0V48H8V40Z" fill="black"/>
<path d="M56 40H48V48H56V40Z" fill="black"/>
<path d="M72 40H64V48H72V40Z" fill="black"/>
<path d="M80 40H72V48H80V40Z" fill="black"/>
<path d="M88 40H80V48H88V40Z" fill="black"/>
<path d="M96 40H88V48H96V40Z" fill="black"/>
<path d="M112 40H104V48H112V40Z" fill="black"/>
<path d="M136 40H128V48H136V40Z" fill="black"/>
<path d="M152 40H144V48H152V40Z" fill="black"/>
<path d="M200 40H192V48H200V40Z" fill="black"/>
<path d="M8 48H0V56H8V48Z" fill="black"/>
<path d="M16 48L8 48V56H16V48Z" fill="black"/>
<path d="M24 48H16V56H24V48Z" fill="black"/>
<path d="M32 48H24V56H32V48Z" fill="black"/>
<path d="M40 48H32V56H40V48Z" fill="black"/>
<path d="M48 48L40 48V56H48L48 48Z" fill="black"/>
<path d="M56 48H48L48 56H56V48Z" fill="black"/>
<path d="M72 48H64V56H72V48Z" fill="black"/>
<path d="M88 48H80V56H88V48Z" fill="black"/>
<path d="M104 48H96V56H104V48Z" fill="black"/>
<path d="M120 48L112 48V56H120V48Z" fill="black"/>
<path d="M136 48H128V56H136V48Z" fill="black"/>
<path d="M152 48H144V56H152V48Z" fill="black"/>
<path d="M160 48L152 48V56H160V48Z" fill="black"/>
<path d="M168 48H160V56H168V48Z" fill="black"/>
<path d="M176 48H168V56H176V48Z" fill="black"/>
<path d="M184 48H176V56H184V48Z" fill="black"/>
<path d="M192 48L184 48V56H192V48Z" fill="black"/>
<path d="M200 48H192V56H200V48Z" fill="black"/>
<path d="M72 56H64V64H72V56Z" fill="black"/>
<path d="M96 56H88V64H96V56Z" fill="black"/>
<path d="M112 56H104V64H112V56Z" fill="black"/>
<path d="M136 56H128V64H136V56Z" fill="black"/>
<path d="M8 64H0V72H8V64Z" fill="black"/>
<path d="M16 64H8V72H16V64Z" fill="black"/>
<path d="M24 64H16V72H24V64Z" fill="black"/>
<path d="M40 64H32V72H40V64Z" fill="black"/>
<path d="M56 64H48V72H56V64Z" fill="black"/>
<path d="M72 64H64V72H72V64Z" fill="black"/>
<path d="M88 64H80V72H88V64Z" fill="black"/>
<path d="M96 64H88V72H96V64Z" fill="black"/>
<path d="M104 64H96V72H104V64Z" fill="black"/>
<path d="M112 64H104V72H112V64Z" fill="black"/>
<path d="M120 64H112V72H120V64Z" fill="black"/>
<path d="M136 64H128V72H136V64Z" fill="black"/>
<path d="M144 64H136V72H144V64Z" fill="black"/>
<path d="M152 64H144V72H152V64Z" fill="black"/>
<path d="M160 64H152V72H160V64Z" fill="black"/>
<path d="M168 64H160V72H168V64Z" fill="black"/>
<path d="M176 64H168V72H176V64Z" fill="black"/>
<path d="M200 64H192V72H200V64Z" fill="black"/>
<path d="M8 72H0V80H8V72Z" fill="black"/>
<path d="M16 72H8V80H16V72Z" fill="black"/>
<path d="M24 72H16V80H24V72Z" fill="black"/>
<path d="M40 72H32V80H40V72Z" fill="black"/>
<path d="M72 72H64V80H72V72Z" fill="black"/>
<path d="M96 72H88V80H96V72Z" fill="black"/>
<path d="M120 72H112V80H120V72Z" fill="black"/>
<path d="M168 72H160V80H168V72Z" fill="black"/>
<path d="M192 72H184V80H192V72Z" fill="black"/>
<path d="M200 72H192V80H200V72Z" fill="black"/>
<path d="M16 80H8V88H16V80Z" fill="black"/>
<path d="M24 80H16V88H24V80Z" fill="black"/>
<path d="M32 80H24V88H32V80Z" fill="black"/>
<path d="M40 80H32V88H40V80Z" fill="black"/>
<path d="M56 80H48V88H56V80Z" fill="black"/>
<path d="M64 80H56V88H64V80Z" fill="black"/>
<path d="M72 80H64V88H72V80Z" fill="black"/>
<path d="M104 80H96V88H104V80Z" fill="black"/>
<path d="M112 80H104V88H112V80Z" fill="black"/>
<path d="M120 80H112V88H120V80Z" fill="black"/>
<path d="M128 80H120V88H128V80Z" fill="black"/>
<path d="M152 80H144V88H152V80Z" fill="black"/>
<path d="M184 80H176V88H184V80Z" fill="black"/>
<path d="M200 80H192V88H200V80Z" fill="black"/>
<path d="M8 88H0V96H8V88Z" fill="black"/>
<path d="M32 88H24V96H32V88Z" fill="black"/>
<path d="M48 88H40V96H48L48 88Z" fill="black"/>
<path d="M64 88H56V96H64V88Z" fill="black"/>
<path d="M80 88H72V96H80V88Z" fill="black"/>
<path d="M88 88H80V96H88V88Z" fill="black"/>
<path d="M104 88H96V96H104V88Z" fill="black"/>
<path d="M120 88H112V96H120V88Z" fill="black"/>
<path d="M128 88H120V96H128V88Z" fill="black"/>
<path d="M144 88H136V96H144V88Z" fill="black"/>
<path d="M152 88H144V96H152V88Z" fill="black"/>
<path d="M8 96H0V104H8V96Z" fill="black"/>
<path d="M16 96H8V104H16V96Z" fill="black"/>
<path d="M40 96H32V104H40V96Z" fill="black"/>
<path d="M56 96H48L48 104H56V96Z" fill="black"/>
<path d="M64 96H56V104H64V96Z" fill="black"/>
<path d="M72 96H64V104H72V96Z" fill="black"/>
<path d="M96 96H88V104H96V96Z" fill="black"/>
<path d="M104 96H96V104H104V96Z" fill="black"/>
<path d="M120 96H112V104H120V96Z" fill="black"/>
<path d="M144 96H136V104H144V96Z" fill="black"/>
<path d="M160 96H152V104H160V96Z" fill="black"/>
<path d="M168 96H160V104H168V96Z" fill="black"/>
<path d="M184 96H176V104H184V96Z" fill="black"/>
<path d="M8 104H0V112H8V104Z" fill="black"/>
<path d="M16 104H8V112H16V104Z" fill="black"/>
<path d="M32 104H24V112H32V104Z" fill="black"/>
<path d="M40 104H32V112H40V104Z" fill="black"/>
<path d="M80 104H72V112H80V104Z" fill="black"/>
<path d="M88 104H80V112H88V104Z" fill="black"/>
<path d="M96 104H88V112H96V104Z" fill="black"/>
<path d="M104 104H96V112H104V104Z" fill="black"/>
<path d="M112 104H104V112H112V104Z" fill="black"/>
<path d="M120 104H112V112H120V104Z" fill="black"/>
<path d="M144 104H136V112H144V104Z" fill="black"/>
<path d="M168 104H160V112H168V104Z" fill="black"/>
<path d="M200 104H192V112H200V104Z" fill="black"/>
<path d="M8 112H0V120H8V112Z" fill="black"/>
<path d="M24 112H16V120H24V112Z" fill="black"/>
<path d="M40 112H32V120H40V112Z" fill="black"/>
<path d="M56 112H48V120H56V112Z" fill="black"/>
<path d="M64 112H56V120H64V112Z" fill="black"/>
<path d="M80 112H72V120H80V112Z" fill="black"/>
<path d="M96 112H88V120H96V112Z" fill="black"/>
<path d="M104 112H96V120H104V112Z" fill="black"/>
<path d="M112 112H104V120H112V112Z" fill="black"/>
<path d="M136 112H128V120H136V112Z" fill="black"/>
<path d="M160 112H152V120H160V112Z" fill="black"/>
<path d="M168 112H160V120H168V112Z" fill="black"/>
<path d="M176 112H168V120H176V112Z" fill="black"/>
<path d="M184 112H176V120H184V112Z" fill="black"/>
<path d="M192 112H184V120H192V112Z" fill="black"/>
<path d="M200 112H192V120H200V112Z" fill="black"/>
<path d="M8 120H0V128H8V120Z" fill="black"/>
<path d="M16 120H8V128H16V120Z" fill="black"/>
<path d="M24 120H16V128H24V120Z" fill="black"/>
<path d="M40 120H32V128H40V120Z" fill="black"/>
<path d="M48 120H40V128H48L48 120Z" fill="black"/>
<path d="M80 120H72V128H80V120Z" fill="black"/>
<path d="M96 120H88V128H96V120Z" fill="black"/>
<path d="M112 120H104V128H112V120Z" fill="black"/>
<path d="M128 120L120 120V128H128V120Z" fill="black"/>
<path d="M184 120H176V128H184V120Z" fill="black"/>
<path d="M8 128H0V136H8V128Z" fill="black"/>
<path d="M24 128H16V136H24V128Z" fill="black"/>
<path d="M32 128H24V136H32V128Z" fill="black"/>
<path d="M48 128H40V136H48V128Z" fill="black"/>
<path d="M56 128H48V136H56V128Z" fill="black"/>
<path d="M72 128H64V136H72V128Z" fill="black"/>
<path d="M88 128H80V136H88V128Z" fill="black"/>
<path d="M96 128H88V136H96V128Z" fill="black"/>
<path d="M136 128H128V136H136V128Z" fill="black"/>
<path d="M144 128H136V136H144V128Z" fill="black"/>
<path d="M152 128H144V136H152V128Z" fill="black"/>
<path d="M160 128H152V136H160V128Z" fill="black"/>
<path d="M168 128H160V136H168V128Z" fill="black"/>
<path d="M176 128H168V136H176V128Z" fill="black"/>
<path d="M184 128H176V136H184V128Z" fill="black"/>
<path d="M72 136H64V144H72V136Z" fill="black"/>
<path d="M88 136H80V144H88V136Z" fill="black"/>
<path d="M104 136H96V144H104V136Z" fill="black"/>
<path d="M120 136H112V144H120V136Z" fill="black"/>
<path d="M136 136H128V144H136V136Z" fill="black"/>
<path d="M168 136H160V144H168V136Z" fill="black"/>
<path d="M184 136H176V144H184V136Z" fill="black"/>
<path d="M200 136H192V144H200V136Z" fill="black"/>
<path d="M8 144H0V152H8V144Z" fill="black"/>
<path d="M16 144H8V152H16V144Z" fill="black"/>
<path d="M24 144H16V152H24V144Z" fill="black"/>
<path d="M32 144H24V152H32V144Z" fill="black"/>
<path d="M40 144H32V152H40V144Z" fill="black"/>
<path d="M48 144H40V152H48V144Z" fill="black"/>
<path d="M56 144H48V152H56V144Z" fill="black"/>
<path d="M96 144H88V152H96V144Z" fill="black"/>
<path d="M120 144H112V152H120V144Z" fill="black"/>
<path d="M136 144H128V152H136V144Z" fill="black"/>
<path d="M152 144H144V152H152V144Z" fill="black"/>
<path d="M168 144H160V152H168V144Z" fill="black"/>
<path d="M184 144H176V152H184V144Z" fill="black"/>
<path d="M192 144H184V152H192V144Z" fill="black"/>
<path d="M8 152H0V160H8V152Z" fill="black"/>
<path d="M56 152H48L48 160H56V152Z" fill="black"/>
<path d="M80 152H72V160H80V152Z" fill="black"/>
<path d="M96 152H88V160H96V152Z" fill="black"/>
<path d="M104 152H96V160H104V152Z" fill="black"/>
<path d="M112 152H104V160H112V152Z" fill="black"/>
<path d="M136 152H128V160H136V152Z" fill="black"/>
<path d="M168 152H160V160H168V152Z" fill="black"/>
<path d="M176 152H168V160H176V152Z" fill="black"/>
<path d="M8 160H0V168H8V160Z" fill="black"/>
<path d="M24 160H16V168H24V160Z" fill="black"/>
<path d="M32 160H24V168H32V160Z" fill="black"/>
<path d="M40 160H32V168H40V160Z" fill="black"/>
<path d="M56 160H48V168H56V160Z" fill="black"/>
<path d="M72 160H64V168H72V160Z" fill="black"/>
<path d="M136 160H128V168H136V160Z" fill="black"/>
<path d="M144 160H136V168H144V160Z" fill="black"/>
<path d="M152 160H144V168H152V160Z" fill="black"/>
<path d="M160 160H152V168H160V160Z" fill="black"/>
<path d="M168 160H160V168H168V160Z" fill="black"/>
<path d="M200 160H192V168H200V160Z" fill="black"/>
<path d="M8 168H0V176H8V168Z" fill="black"/>
<path d="M24 168H16V176H24V168Z" fill="black"/>
<path d="M32 168H24V176H32V168Z" fill="black"/>
<path d="M40 168H32V176H40V168Z" fill="black"/>
<path d="M56 168H48V176H56V168Z" fill="black"/>
<path d="M80 168H72V176H80V168Z" fill="black"/>
<path d="M96 168H88V176H96V168Z" fill="black"/>
<path d="M104 168H96V176H104V168Z" fill="black"/>
<path d="M112 168H104V176H112V168Z" fill="black"/>
<path d="M176 168H168V176H176V168Z" fill="black"/>
<path d="M184 168H176V176H184V168Z" fill="black"/>
<path d="M192 168H184V176H192V168Z" fill="black"/>
<path d="M200 168H192V176H200V168Z" fill="black"/>
<path d="M8 176H0V184H8V176Z" fill="black"/>
<path d="M24 176H16V184H24V176Z" fill="black"/>
<path d="M32 176H24V184H32V176Z" fill="black"/>
<path d="M40 176H32V184H40V176Z" fill="black"/>
<path d="M56 176H48V184H56V176Z" fill="black"/>
<path d="M72 176H64V184H72V176Z" fill="black"/>
<path d="M88 176H80V184H88V176Z" fill="black"/>
<path d="M120 176H112V184H120V176Z" fill="black"/>
<path d="M160 176H152V184H160V176Z" fill="black"/>
<path d="M184 176H176V184H184V176Z" fill="black"/>
<path d="M8 184H0V192H8V184Z" fill="black"/>
<path d="M56 184H48V192H56V184Z" fill="black"/>
<path d="M72 184H64V192H72V184Z" fill="black"/>
<path d="M80 184H72V192H80V184Z" fill="black"/>
<path d="M88 184H80V192H88V184Z" fill="black"/>
<path d="M104 184H96V192H104V184Z" fill="black"/>
<path d="M112 184H104V192H112V184Z" fill="black"/>
<path d="M128 184H120L120 192H128V184Z" fill="black"/>
<path d="M144 184H136V192H144V184Z" fill="black"/>
<path d="M160 184H152V192H160V184Z" fill="black"/>
<path d="M168 184H160V192H168V184Z" fill="black"/>
<path d="M176 184H168V192H176V184Z" fill="black"/>
<path d="M184 184H176V192H184V184Z" fill="black"/>
<path d="M192 184H184V192H192V184Z" fill="black"/>
<path d="M8 192H0V200H8V192Z" fill="black"/>
<path d="M16 192H8V200H16V192Z" fill="black"/>
<path d="M24 192H16V200H24V192Z" fill="black"/>
<path d="M32 192H24V200H32V192Z" fill="black"/>
<path d="M40 192H32V200H40V192Z" fill="black"/>
<path d="M48 192H40V200H48L48 192Z" fill="black"/>
<path d="M56 192H48L48 200H56V192Z" fill="black"/>
<path d="M72 192H64V200H72V192Z" fill="black"/>
<path d="M160 192H152V200H160V192Z" fill="black"/>
<path d="M168 192H160V200H168V192Z" fill="black"/>
<path d="M176 192H168V200H176V192Z" fill="black"/>
<path d="M184 192H176V200H184V192Z" fill="black"/>
<path d="M192 192H184V200H192V192Z" fill="black"/>
<path d="M200 192H192V200H200V192Z" fill="black"/>
</g>
<defs>
<clipPath id="clip0_102_8971">
<rect width="200" height="200" fill="white"/>
</clipPath>
</defs>
</svg>
