<svg width="20" height="20" viewBox="0 0 20 20" fill="none" xmlns="http://www.w3.org/2000/svg">
<path fill-rule="evenodd" clip-rule="evenodd" d="M2.3989 2.39886C2.86775 1.93002 3.50363 1.66663 4.16667 1.66663H6.66667C7.12691 1.66663 7.50001 2.03972 7.50001 2.49996C7.50001 2.9602 7.12691 3.33329 6.66667 3.33329H4.16667C3.94566 3.33329 3.7337 3.42109 3.57742 3.57737C3.42114 3.73365 3.33334 3.94561 3.33334 4.16663V6.66663C3.33334 7.12686 2.96024 7.49996 2.50001 7.49996C2.03977 7.49996 1.66667 7.12686 1.66667 6.66663V4.16663C1.66667 3.50358 1.93006 2.8677 2.3989 2.39886ZM12.5 2.49996C12.5 2.03972 12.8731 1.66663 13.3333 1.66663H15.8333C16.4964 1.66663 17.1323 1.93002 17.6011 2.39886C18.0699 2.8677 18.3333 3.50358 18.3333 4.16663V6.66663C18.3333 7.12686 17.9602 7.49996 17.5 7.49996C17.0398 7.49996 16.6667 7.12686 16.6667 6.66663V4.16663C16.6667 3.94561 16.5789 3.73365 16.4226 3.57737C16.2663 3.42109 16.0544 3.33329 15.8333 3.33329H13.3333C12.8731 3.33329 12.5 2.9602 12.5 2.49996ZM2.50001 12.5C2.96024 12.5 3.33334 12.8731 3.33334 13.3333V15.8333C3.33334 16.0543 3.42114 16.2663 3.57742 16.4225C3.7337 16.5788 3.94566 16.6666 4.16667 16.6666H6.66667C7.12691 16.6666 7.50001 17.0397 7.50001 17.5C7.50001 17.9602 7.12691 18.3333 6.66667 18.3333H4.16667C3.50363 18.3333 2.86775 18.0699 2.3989 17.6011C1.93006 17.1322 1.66667 16.4963 1.66667 15.8333V13.3333C1.66667 12.8731 2.03977 12.5 2.50001 12.5ZM17.5 12.5C17.9602 12.5 18.3333 12.8731 18.3333 13.3333V15.8333C18.3333 16.4963 18.0699 17.1322 17.6011 17.6011C17.1323 18.0699 16.4964 18.3333 15.8333 18.3333H13.3333C12.8731 18.3333 12.5 17.9602 12.5 17.5C12.5 17.0397 12.8731 16.6666 13.3333 16.6666H15.8333C16.0544 16.6666 16.2663 16.5788 16.4226 16.4225C16.5789 16.2663 16.6667 16.0543 16.6667 15.8333V13.3333C16.6667 12.8731 17.0398 12.5 17.5 12.5Z" fill="black" fill-opacity="0.5"/>
<path fill-rule="evenodd" clip-rule="evenodd" d="M5 9.99996C5 9.53972 5.3731 9.16663 5.83333 9.16663H14.1667C14.6269 9.16663 15 9.53972 15 9.99996C15 10.4602 14.6269 10.8333 14.1667 10.8333H5.83333C5.3731 10.8333 5 10.4602 5 9.99996Z" fill="black" fill-opacity="0.5"/>
</svg>
