<svg width="375" height="180" viewBox="0 0 375 180" fill="none" xmlns="http://www.w3.org/2000/svg">
<mask id="mask0_180_8607" style="mask-type:alpha" maskUnits="userSpaceOnUse" x="0" y="0" width="375" height="180">
<rect width="375" height="180" fill="#1264E0"/>
</mask>
<g mask="url(#mask0_180_8607)">
<path d="M310.23 52.6276C310.23 52.6276 309.63 44.3076 297.45 44.0076C285.27 43.7076 288.53 52.3376 285.26 54.4176C281.99 56.4976 281.1 53.2276 277.83 55.3076C274.56 57.3876 276.05 61.5476 273.37 62.1376C270.69 62.7276 267.13 59.4676 263.86 61.5476C260.59 63.6276 260.59 65.4076 259.1 65.4076C257.61 65.4076 254.64 64.2276 252.86 65.4076C251.08 66.5876 249 68.0876 249 68.0876H324.2C324.2 68.0876 325.09 65.4076 321.82 63.6276C318.55 61.8476 317.07 63.3276 315.88 61.8476C314.69 60.3676 319.15 56.4976 310.23 52.6276Z" fill="#0E54BD"/>
<path d="M21.7312 79.0413C21.7312 79.0413 26.9252 74.704 28.257 71.9182C29.3668 69.5673 30.2103 66.1821 29.0339 63.6902C28.7795 63.0858 28.4075 62.5451 27.9422 62.1034C27.4769 61.6617 26.9289 61.329 26.3338 61.1271C25.7388 60.9251 25.1102 60.8585 24.4892 60.9316C23.8682 61.0046 23.2688 61.2156 22.7301 61.5509C19.5338 63.6549 19.1897 70.8368 19.9999 74.2925C20.0776 74.5511 21.6757 79.0883 21.7312 79.0413Z" fill="#0E54BD"/>
<path d="M82.4715 85.6235C82.4715 85.6235 63.4603 106.393 63.6046 131.924C63.7489 157.454 82.8822 178.047 82.8822 178.047C82.8822 178.047 101.882 157.266 101.749 131.747C101.616 106.229 82.4715 85.6235 82.4715 85.6235Z" fill="#0E54BD"/>
<path d="M55.4141 147.204C55.6683 146.92 55.8985 146.614 56.1021 146.287C57.4894 144.066 58.6658 140.833 57.778 138.189C57.5921 137.555 57.2818 136.971 56.8675 136.473C56.4532 135.976 55.9442 135.577 55.374 135.303C54.8038 135.029 54.1853 134.885 53.5591 134.882C52.9329 134.879 52.3131 135.017 51.7406 135.285C49.1658 136.578 47.9006 140.963 47.6231 144.548C46.591 144.289 45.6698 144.101 44.8708 143.96C44.5267 143.149 44.1827 142.338 43.8386 141.503C43.4946 140.669 43.206 139.799 42.8731 138.941C42.4181 137.671 42.0074 136.331 41.5968 134.991C43.0951 134.286 47.4789 132.112 49.1103 130.207C50.7417 128.303 52.4398 125.224 51.9181 122.461C51.8242 121.806 51.6006 121.18 51.2621 120.623C50.9236 120.066 50.4777 119.591 49.9538 119.229C49.4299 118.867 48.8397 118.627 48.2219 118.524C47.6042 118.42 46.9727 118.456 46.369 118.629C42.7621 119.805 40.6423 126.587 40.5646 130.149C40.5646 130.266 40.6201 131.018 40.6978 131.912C40.3316 130.595 39.9654 129.279 39.6435 127.939C38.7113 124.119 37.8789 120.193 37.0243 116.267C36.8467 115.444 36.6581 114.633 36.4805 113.81C37.7457 113.222 42.5068 110.919 44.2493 108.92C45.9917 106.922 47.5787 103.937 47.0682 101.174C46.9743 100.519 46.7507 99.893 46.4122 99.336C46.0737 98.779 45.6278 98.304 45.1039 97.9422C44.58 97.5804 43.9898 97.34 43.372 97.2366C42.7542 97.1333 42.1228 97.1693 41.5191 97.3424C37.9122 98.5179 35.7813 105.3 35.7147 108.862C35.7147 108.991 35.7813 109.896 35.8701 110.895C35.3707 108.768 34.8602 106.652 34.2942 104.571C33.3296 100.997 32.1432 97.4948 30.7428 94.0865C31.1867 93.8867 36.8245 91.3008 38.7223 89.0792C40.4093 87.1045 42.0518 84.0954 41.5413 81.3331C41.4473 80.6782 41.2238 80.0518 40.8853 79.4948C40.5467 78.9378 40.1009 78.4628 39.577 78.101C39.0531 77.7393 38.4629 77.4988 37.8451 77.3954C37.2273 77.2921 36.5959 77.3281 35.9922 77.5012C32.3853 78.6767 30.2655 85.4589 30.1878 89.0204C30.1878 89.279 30.4653 92.5467 30.5985 93.7221C30.6029 93.6831 30.6029 93.6436 30.5985 93.6046C29.1421 90.2911 27.4114 87.1207 25.4267 84.1307C23.6687 81.4561 21.7639 78.8932 19.7222 76.4551C17.8466 74.163 15.9932 72.1883 14.3507 70.4604C13.4517 69.5319 12.6193 68.6973 11.8203 67.9333H11.9091C11.9757 67.9333 10.1444 63.4784 10.0002 63.2316C8.31324 60.152 3.34124 55.2504 -0.332264 56.0967C-0.940536 56.2531 -1.51073 56.5439 -2.0054 56.9501C-2.50006 57.3563 -2.90803 57.8687 -3.20253 58.4536C-3.49703 59.0386 -3.67139 59.6829 -3.71419 60.3443C-3.75699 61.0057 -3.66728 61.6692 -3.45089 62.2912C-2.62963 64.9594 0.167152 66.7696 2.54217 67.6394C4.91719 68.5092 10.3109 68.0978 11.5983 67.9685C12.4085 68.7796 13.263 69.6611 14.1842 70.6602C15.7823 72.4234 17.5914 74.4334 19.4004 76.749C19.8887 77.3602 20.3881 78.0537 20.8875 78.7002C19.8332 77.7833 18.3793 76.5491 18.2239 76.4434C15.3828 74.5274 8.84593 72.5997 5.9493 75.1504C5.47202 75.5857 5.08769 76.1237 4.82183 76.7285C4.55597 77.3332 4.41469 77.991 4.40734 78.6581C4.39999 79.3252 4.52676 79.9863 4.77922 80.5975C5.03169 81.2086 5.40408 81.7559 5.87164 82.2029C7.76943 84.1777 11.0323 84.4128 13.5183 84.0249C16.0043 83.637 20.7432 80.5573 21.7421 79.8756C22.8519 81.3449 23.8951 82.8729 24.9162 84.5773C26.82 87.5686 28.4655 90.7355 29.8327 94.0395C29.9104 94.2393 29.9659 94.4392 30.0436 94.639C29.5996 94.0865 26.9583 91.2538 26.7141 91.1127C24.0838 88.8794 17.8355 86.1994 14.6392 88.3974C14.1249 88.7756 13.692 89.2648 13.3688 89.8327C13.0457 90.4007 12.8396 91.0346 12.7641 91.6928C12.6886 92.3511 12.7455 93.0189 12.9309 93.6522C13.1164 94.2856 13.4262 94.8702 13.8401 95.3677C15.516 97.554 18.7456 98.1652 21.2538 98.0712C24.1393 97.9537 29.8327 94.9093 30.0546 94.7918C31.3306 98.1238 32.402 101.54 33.262 105.018C33.9168 107.592 34.4717 110.225 35.0155 112.87C34.4162 112.176 31.9635 109.543 31.7638 109.344C29.1446 107.11 22.8852 104.442 19.7 106.628C19.1849 107.006 18.751 107.494 18.4268 108.061C18.1026 108.629 17.8954 109.263 17.8189 109.921C17.7424 110.579 17.7982 111.247 17.9828 111.881C18.1674 112.515 18.4765 113.1 18.8898 113.599C20.5768 115.785 23.7953 116.396 26.3035 116.302C29.1224 116.196 34.5938 113.305 35.0599 113.058C35.293 114.233 35.5483 115.409 35.7813 116.666C36.5471 120.604 37.3018 124.565 38.1563 128.421C38.456 129.761 38.8001 131.077 39.133 132.394C38.2118 131.371 36.5027 129.549 36.3362 129.408C33.717 127.175 27.4577 124.507 24.2725 126.693C23.7574 127.07 23.3235 127.559 22.9993 128.126C22.6751 128.694 22.4679 129.327 22.3913 129.986C22.3148 130.644 22.3707 131.312 22.5553 131.946C22.7399 132.58 23.049 133.165 23.4623 133.663C25.1492 135.849 28.3677 136.461 30.8759 136.367C33.3841 136.273 38.0454 133.945 39.3439 133.275C39.921 135.462 40.5314 137.613 41.2305 139.705C41.5413 140.598 41.8188 141.527 42.1739 142.373C42.3515 142.82 42.529 143.266 42.6955 143.713C42.2294 143.654 41.9741 143.642 41.9741 143.642C41.9448 144.732 41.967 145.823 42.0407 146.91C39.2662 144.818 35.2819 143.02 32.6849 144.289C32.1229 144.58 31.6253 144.994 31.2249 145.504C30.8245 146.013 30.5303 146.606 30.3616 147.244C30.1929 147.883 30.1535 148.551 30.2459 149.207C30.3384 149.862 30.5606 150.49 30.8981 151.048C31.0649 151.348 31.2581 151.632 31.4752 151.894C31.9696 154.98 33.1997 157.881 35.0488 160.322C35.1931 160.498 37.0798 162.332 38.0565 163.249L35.182 161.591C33.7726 160.757 32.3076 159.828 30.887 158.947L28.6674 157.466C27.9127 156.984 27.2468 156.419 26.5254 155.89C25.4822 155.091 24.45 154.221 23.4068 153.34C24.2947 151.87 26.814 147.463 27.1802 144.959C27.5464 142.455 27.3467 138.87 25.4933 136.86C25.0767 136.36 24.5644 135.959 23.9903 135.685C23.4163 135.41 22.7936 135.268 22.1638 135.268C21.534 135.268 20.9114 135.41 20.3373 135.685C19.7633 135.959 19.2509 136.36 18.8344 136.86C16.426 139.916 18.2129 146.851 19.9442 149.861C19.9997 149.955 20.4436 150.554 20.9763 151.248C19.9886 150.366 18.9897 149.484 18.0242 148.556C15.2607 145.911 12.4751 143.125 9.76709 140.328L8.11346 138.588C8.85704 137.354 11.6316 132.641 12.0089 129.972C12.3863 127.304 12.1865 123.884 10.322 121.874C9.90541 121.373 9.39307 120.973 8.81902 120.698C8.24498 120.424 7.62236 120.282 6.99253 120.282C6.36271 120.282 5.74009 120.424 5.16604 120.698C4.592 120.973 4.07966 121.373 3.66307 121.874C1.24366 124.93 3.03049 131.865 4.8284 134.874C4.89499 134.991 5.41658 135.697 6.01588 136.484C4.49543 134.991 2.96388 133.534 1.41013 132.135C-1.25491 129.714 -4.06896 127.484 -7.01341 125.459C-6.74706 125.024 -3.3954 119.582 -2.96257 116.608C-2.58523 113.986 -2.79609 110.519 -4.64949 108.509C-5.06608 108.009 -5.57841 107.608 -6.15246 107.334C-6.72651 107.059 -7.34912 106.917 -7.97895 106.917C-8.60878 106.917 -9.2314 107.059 -9.80544 107.334C-10.3795 107.608 -10.8918 108.009 -11.3084 108.509C-13.7167 111.565 -11.9299 118.5 -10.1431 121.509C-10.0099 121.733 -8.08995 124.283 -7.36856 125.165L-7.46844 125.094C-10.4065 123.179 -13.5004 121.547 -16.7132 120.216C-19.5763 119.012 -22.5039 117.988 -25.4808 117.148C-28.2332 116.326 -30.7969 115.761 -33.072 115.291C-34.3039 115.033 -35.4471 114.833 -36.5014 114.657H-36.4348C-36.3793 114.657 -40.2193 111.977 -40.4856 111.835C-43.4933 110.26 -50.1855 109.073 -52.8157 111.93C-53.2408 112.415 -53.5643 112.99 -53.765 113.617C-53.9657 114.244 -54.0391 114.909 -53.9804 115.568C-53.9217 116.227 -53.7323 116.866 -53.4245 117.442C-53.1167 118.018 -52.6975 118.519 -52.1942 118.912C-50.1078 120.663 -46.8449 120.534 -44.4255 119.875C-42.0061 119.217 -37.7666 115.738 -36.6567 114.856C-35.5469 115.068 -34.4371 115.303 -33.1053 115.597C-30.8857 116.126 -28.2998 116.772 -25.5696 117.619C-24.8483 117.854 -24.0714 118.136 -23.35 118.394C-24.704 118.242 -26.5685 118.053 -26.7572 118.053C-30.0866 118.124 -36.568 120.334 -37.6667 124.154C-37.8302 124.792 -37.865 125.459 -37.7687 126.112C-37.6725 126.764 -37.4474 127.389 -37.1081 127.943C-36.7688 128.498 -36.3229 128.97 -35.7996 129.33C-35.2763 129.69 -34.6872 129.929 -34.0709 130.031C-31.4628 130.572 -28.6105 128.856 -26.746 127.081C-24.8815 125.306 -22.5287 119.969 -22.0404 118.853C-20.3868 119.44 -18.7109 120.099 -16.9574 120.886C-13.8161 122.275 -10.7968 123.954 -7.93455 125.905L-7.44623 126.281C-8.10102 126.082 -11.7856 125.271 -12.0409 125.235C-15.3704 124.918 -22.0293 126.411 -23.5165 130.031C-23.748 130.646 -23.8543 131.306 -23.8285 131.967C-23.8027 132.628 -23.6453 133.277 -23.3666 133.869C-23.0879 134.462 -22.6942 134.985 -22.2113 135.405C-21.7284 135.826 -21.1672 136.133 -20.5643 136.308C-18.0228 137.154 -15.0152 135.779 -12.9732 134.239C-10.6203 132.452 -7.42406 126.587 -7.33527 126.364C-4.53342 128.394 -1.86037 130.616 0.666569 133.017C2.55326 134.78 4.38447 136.649 6.21568 138.541C5.36111 138.306 1.93175 137.554 1.68758 137.53C-1.64188 137.201 -8.30081 138.647 -9.78797 142.314C-10.0212 142.931 -10.1286 143.592 -10.103 144.256C-10.0774 144.919 -9.91946 145.569 -9.63952 146.163C-9.35958 146.757 -8.96402 147.282 -8.47886 147.702C-7.99371 148.123 -7.42995 148.43 -6.82473 148.603C-4.29433 149.437 -1.27563 148.074 0.755341 146.522C3.05267 144.783 6.11578 139.176 6.37104 138.706L8.85706 141.292C11.5428 144.124 14.2397 146.981 16.9699 149.719C17.9132 150.66 18.8787 151.565 19.8443 152.47C18.5458 152.153 16.1708 151.635 15.9599 151.612C12.6304 151.283 5.97152 152.729 4.48436 156.396C4.2511 157.012 4.14372 157.674 4.16931 158.337C4.19489 159.001 4.35287 159.651 4.6328 160.245C4.91274 160.839 5.30831 161.363 5.79346 161.784C6.27862 162.204 6.84234 162.511 7.44756 162.684C9.98906 163.519 12.9967 162.155 15.0387 160.604C17.0808 159.052 19.7555 154.398 20.488 153.069C22.0972 154.562 23.7286 155.996 25.4045 157.336C26.137 157.9 26.8472 158.512 27.6241 159.017L29.7883 160.545C31.2976 161.533 32.696 162.461 34.1277 163.343L36.2364 164.636C34.9601 164.107 32.9069 163.307 32.7404 163.26C29.4775 162.402 22.752 162.767 20.721 166.152C20.4025 166.723 20.2017 167.359 20.1317 168.018C20.0618 168.677 20.1242 169.344 20.315 169.976C20.5057 170.607 20.8205 171.189 21.2386 171.683C21.6567 172.176 22.1687 172.571 22.7409 172.84C25.127 174.016 28.29 173.204 30.5097 172.006C32.9735 170.677 36.6914 165.811 37.1686 165.212C38.8888 166.246 40.5869 167.245 42.185 168.15C46.4467 170.572 50.1757 172.499 53.0612 173.933C62.4392 182.526 75.6572 183.478 75.6572 183.478C75.6572 183.478 76.3564 166.716 67.0339 155.691C63.7969 151.991 59.8294 149.094 55.4141 147.204ZM38.6558 163.543C38.9554 162.861 41.1973 157.536 41.3526 154.527C41.8743 154.433 42.407 154.315 42.9064 154.186C43.8689 159.481 45.8565 164.508 48.744 168.949C47.0349 168.091 45.1815 167.128 43.1949 166.081C41.7632 165.259 40.2317 164.436 38.6558 163.543Z" fill="#0E54BD"/>
<path d="M124.645 143.995C124.645 143.995 108.819 144.512 99.1189 155.173C89.419 165.834 89.5411 182.607 89.5411 182.607C89.5411 182.607 105.378 182.102 115.067 171.429C124.756 160.756 124.645 143.995 124.645 143.995Z" fill="#0E54BD"/>
<path d="M83.3039 154.798L98.8414 139.999L98.1755 139.212L83.2928 153.387L83.2151 133.981L83.2928 134.04L96.4442 113.682L95.6229 113.082L83.204 132.312L83.0153 85.6123L82.0165 85.6241L82.1497 117.314L72.2501 108.239L71.5953 109.039L82.1497 118.712L82.2385 141.375L67.2336 127.316L66.5789 128.104L82.2495 142.785L82.3383 163.414L71.0514 154.046L70.441 154.88L82.3383 164.766L82.3938 178.048H83.3927L83.2928 154.798H83.3039Z" fill="#1264E0"/>
<path d="M68.9762 160.51L67.9773 160.393L66.7232 172.124L60.0532 164.225L60.0643 164.213L58.3663 150.026L57.3786 150.155L58.899 162.849L42.3072 143.208L41.5525 143.902L52.8172 157.243L45.6921 157.325L45.7032 158.383L53.6939 158.277L61.5959 167.633L50.4422 167.645L50.4532 168.703L62.4837 168.691L69.6643 177.19L61.8067 177.683L61.8622 178.741L70.5188 178.189L75.2911 183.854L76.0347 183.149L67.6222 173.181L68.9762 160.51Z" fill="#1264E0"/>
<path d="M106.544 164.694L119.784 161.849L119.584 160.815L107.742 163.354L125 144.371L124.29 143.63L112.57 156.525L111.96 149.002L110.961 149.084L111.66 157.536L103.447 166.563L102.604 154.797L101.605 154.879L102.515 167.586L95.046 175.802L93.9917 167.539L93.0039 167.68L94.1693 176.777L89.1973 182.243L89.9076 182.972L98.6752 173.345L110.695 173.827L110.728 172.769L99.5963 172.323L106.544 164.682V164.694Z" fill="#1264E0"/>
<path d="M379.306 155.272C379.306 155.272 394.23 143.931 381.478 127.319C369.671 111.901 341.082 127.054 341.082 127.054C341.082 127.054 346.364 109.132 324.192 106.23C302.021 103.329 307.659 128.778 307.659 128.778C290.761 119.72 290.247 130.105 291.739 137.872C287.594 135.51 282.511 134.767 278.216 140.375C268.407 153.184 279.874 161.924 279.874 161.924C279.874 161.924 258.391 168.593 270.928 184.374H390.905C407.165 163.914 379.306 155.272 379.306 155.272Z" fill="#0E54BD"/>
</g>
</svg>
