<svg width="47" height="40" viewBox="0 0 47 40" fill="none" xmlns="http://www.w3.org/2000/svg">
<path d="M46.3972 4.30373C46.565 4.08437 46.5231 3.77056 46.3038 3.60282L42.7291 0.869294C42.5098 0.701551 42.196 0.743392 42.0282 0.962747C41.8605 1.1821 41.9023 1.49591 42.1217 1.66365L45.2991 4.09345L42.8693 7.27088C42.7016 7.49024 42.7434 7.80404 42.9628 7.97179C43.1821 8.13953 43.4959 8.09769 43.6637 7.87833L46.3972 4.30373ZM27.5 28.5L27.3952 28.9889L27.5 28.5ZM45.9339 3.50439C38.3297 4.51828 32.4212 7.2661 26.1746 12.6204L26.8254 13.3796C32.9386 8.13978 38.6703 5.48172 46.0661 4.49561L45.9339 3.50439ZM26.1746 12.6204C22.5527 15.7248 21.4382 19.4935 21.9488 22.6653C22.4551 25.8109 24.5756 28.3847 27.3952 28.9889L27.6048 28.0111C25.2709 27.511 23.3914 25.3348 22.9361 22.5064C22.485 19.7044 23.4473 16.2752 26.8254 13.3796L26.1746 12.6204ZM27.3952 28.9889C31.0938 29.7814 34.5511 28.1997 36.291 25.5898C37.1633 24.2814 37.6049 22.7114 37.4187 21.0611C37.2324 19.4094 36.4216 17.7145 34.8536 16.1464L34.1464 16.8536C35.5784 18.2855 36.2676 19.7781 36.425 21.1732C36.5826 22.5698 36.2117 23.9061 35.459 25.0352C33.9489 27.3003 30.9062 28.7186 27.6048 28.0111L27.3952 28.9889ZM34.8536 16.1464C29.862 11.1549 22.1916 12.0339 15.3581 16.4603C8.49948 20.9029 2.29252 29.0088 0.0128044 38.8876L0.987196 39.1124C3.20748 29.4912 9.2571 21.6036 15.9018 17.2996C22.5716 12.9792 29.6512 12.3583 34.1464 16.8536L34.8536 16.1464Z" fill="white"/>
</svg>
